{"glyphs":{"0":{"ha":738,"x_min":0,"x_max":0,"o":"m 308 -24 b 639 490 496 -24 639 213 b 361 976 639 729 539 976 b 22 428 138 976 22 739 b 308 -24 22 199 117 -24 z m 332 833 b 478 439 453 833 478 626 b 335 118 478 278 421 118 b 186 492 233 118 186 263 b 332 833 186 681 254 833 z m 347 -100 b 715 453 554 -100 715 154 b 546 919 715 704 658 842 b 676 490 632 818 676 654 b 308 -62 676 192 515 -62 b 142 -3 243 -62 186 -39 b 347 -100 178 -71 239 -100 z m 369 757 b 393 751 379 757 386 756 b 332 796 376 781 356 796 b 225 492 275 796 225 660 b 308 161 225 310 251 190 b 263 454 276 215 263 317 b 369 757 263 621 314 757 z "},"1":{"ha":453,"x_min":0,"x_max":0,"o":"m 219 967 b 11 819 124 932 61 886 b 1 803 7 814 1 807 b 13 796 1 797 6 796 l 182 796 l 182 10 b 192 0 182 4 186 0 l 333 0 b 343 10 339 0 343 4 l 343 722 b 271 964 343 843 319 910 b 253 975 264 971 258 975 b 219 967 244 975 229 971 z m 381 722 l 381 10 b 333 -37 381 -14 357 -37 l 183 -37 b 231 -76 188 -57 208 -76 l 371 -76 b 419 -28 394 -76 419 -51 l 419 718 b 318 967 419 878 397 933 b 381 722 360 907 381 840 z m 143 757 l 3 757 b 51 719 7 736 25 719 l 143 719 z "},"2":{"ha":749,"x_min":0,"x_max":0,"o":"m 201 6 b 488 -22 378 6 350 -22 b 649 139 608 -22 649 42 b 599 242 649 169 633 210 b 571 258 590 247 576 258 b 561 250 565 258 563 256 b 439 156 551 208 499 156 b 265 129 379 156 307 143 b 617 692 383 313 617 525 b 322 975 617 888 474 975 b 46 731 165 975 46 849 b 186 585 46 643 97 585 b 239 603 193 585 239 590 b 206 718 239 618 206 644 b 324 832 206 776 269 832 b 454 714 397 832 454 799 b 121 203 454 549 260 369 b 21 22 82 157 21 82 b 32 -7 21 13 22 3 l 49 -26 b 57 -31 50 -29 51 -31 b 201 6 81 -31 94 6 z m 239 -71 b 526 -99 418 -71 394 -99 b 725 100 675 -99 725 -18 b 654 238 725 168 706 214 b 688 139 678 203 688 168 b 488 -61 688 21 636 -61 b 201 -33 351 -61 385 -33 b 57 -68 110 -33 92 -68 b 38 -64 51 -68 46 -68 b 96 -107 51 -99 79 -107 b 239 -71 126 -107 171 -71 z m 654 692 b 431 286 654 565 543 422 b 351 188 379 225 390 246 b 421 194 374 192 396 193 l 429 203 b 692 665 556 350 692 515 b 588 900 692 796 658 858 b 654 692 629 849 654 781 z m 324 794 b 244 718 289 794 244 757 b 276 603 244 675 276 639 b 171 543 276 546 186 543 b 79 576 142 543 100 561 b 213 507 96 532 132 507 b 315 565 253 507 315 515 b 282 679 315 600 282 639 b 363 756 282 719 326 756 b 410 747 379 756 394 753 b 324 794 396 781 364 794 z "},"3":{"ha":715,"x_min":0,"x_max":0,"o":"m 317 975 b 38 729 200 975 38 894 b 171 600 38 636 114 600 b 279 632 217 600 279 608 b 275 642 279 636 278 639 b 200 729 229 667 200 697 b 315 832 200 776 236 832 b 403 736 374 832 403 800 b 176 492 403 611 243 506 b 169 481 171 490 169 486 b 272 404 174 435 217 404 b 364 440 335 404 338 440 b 454 310 410 440 454 397 b 297 119 454 190 378 119 b 204 210 228 119 204 164 b 221 290 204 231 210 261 b 229 311 225 297 229 308 b 217 319 229 318 225 319 b 22 232 119 310 43 269 b 292 -22 22 117 103 -22 b 617 318 501 -22 617 140 b 474 524 617 408 547 483 b 564 735 529 575 564 621 b 317 975 564 893 475 975 z m 654 318 b 292 -61 654 119 526 -61 b 96 0 206 -61 144 -37 b 313 -99 132 -64 192 -99 b 692 279 564 -99 692 82 b 597 468 692 390 653 439 b 654 318 632 426 654 378 z m 603 735 b 533 529 603 632 578 579 b 574 494 547 521 560 508 b 640 696 615 543 640 599 b 550 915 640 824 603 883 b 603 735 585 868 603 807 z m 214 358 b 261 335 238 358 253 350 b 310 328 276 329 290 328 b 408 364 353 328 404 350 b 365 403 397 389 381 401 b 272 365 358 390 315 365 b 186 388 240 365 211 374 b 214 358 193 372 201 364 z m 315 794 b 238 729 260 794 238 758 b 275 682 238 713 246 701 l 275 692 b 353 756 275 721 299 756 b 364 754 358 756 363 756 b 315 794 358 781 342 794 z m 271 585 b 147 569 238 574 207 569 b 64 592 118 569 89 575 b 176 531 82 547 115 532 b 271 585 214 540 253 563 z m 243 210 b 282 158 243 186 253 164 b 281 171 281 160 281 165 b 306 274 281 228 306 246 b 265 319 306 297 292 313 b 267 311 267 317 267 314 b 243 210 267 275 243 260 z "},"4":{"ha":756,"x_min":0,"x_max":0,"o":"m 557 200 b 572 229 557 218 561 229 l 599 229 b 679 313 650 229 679 268 b 643 388 679 329 669 388 b 603 375 632 388 628 375 l 558 375 b 553 382 556 375 553 378 l 553 801 b 583 858 553 831 563 850 b 589 867 588 860 589 863 l 588 871 b 454 975 558 940 514 975 b 344 896 410 975 369 944 l 7 244 l 7 239 b 17 229 7 232 10 229 l 379 229 b 394 199 389 229 394 218 l 394 10 b 404 0 394 4 397 0 l 546 0 b 557 10 553 0 557 4 z m 697 382 b 718 313 711 357 718 326 b 594 190 718 247 676 190 l 594 10 b 546 -37 594 -14 571 -37 l 394 -37 b 442 -76 400 -57 421 -76 l 585 -76 b 632 -28 608 -76 632 -51 l 632 153 b 756 275 714 153 756 210 b 697 382 756 319 739 364 z m 394 393 b 367 371 394 379 386 371 l 243 371 l 394 678 z m 665 828 b 589 939 665 892 631 921 b 628 867 603 922 628 886 b 590 801 628 826 590 836 l 590 413 b 629 424 603 413 618 418 l 629 764 b 665 828 629 796 665 792 z m 356 190 l 7 190 b 54 153 10 165 25 153 l 356 153 z m 357 517 l 304 410 l 357 410 z "},"5":{"ha":660,"x_min":0,"x_max":0,"o":"m 254 953 b 142 975 178 953 164 975 b 133 965 138 975 135 972 l 82 488 b 93 476 82 481 86 476 l 97 478 b 207 499 138 492 174 499 b 396 303 331 499 396 425 b 217 119 396 203 288 119 b 146 201 165 119 146 156 b 138 211 146 208 143 211 b 21 103 44 211 21 156 b 214 -22 21 26 101 -22 b 558 346 443 -22 558 182 b 247 640 558 514 447 636 l 269 811 l 467 811 b 576 900 540 811 576 840 b 524 975 576 932 558 975 b 515 972 519 975 517 974 b 458 953 500 960 482 953 z m 596 346 b 214 -61 596 165 468 -61 b 44 -14 142 -61 86 -43 b 251 -99 67 -67 128 -99 b 633 307 506 -99 633 126 b 536 546 633 451 599 504 b 596 346 575 492 596 424 z m 615 900 b 467 772 615 815 565 772 l 304 772 l 290 676 l 332 669 l 342 735 l 504 735 b 653 863 603 735 653 778 b 597 965 653 900 632 946 b 615 900 608 944 615 922 z m 207 461 b 83 439 172 461 124 439 b 131 400 88 417 100 400 b 246 424 161 400 179 424 b 347 371 275 424 310 414 b 207 461 328 428 279 461 z m 222 157 l 222 164 b 183 210 222 183 207 204 b 217 157 189 196 183 157 z "},"6":{"ha":708,"x_min":0,"x_max":0,"o":"m 400 975 b 22 358 253 975 22 760 b 319 -22 22 206 101 -22 b 610 288 490 -22 610 93 b 353 569 610 439 508 569 b 199 524 290 569 235 549 b 451 832 215 668 317 832 l 539 832 b 549 843 544 832 549 836 b 400 975 543 914 513 975 z m 183 279 b 326 428 183 376 233 428 b 447 276 422 428 447 364 b 324 119 447 196 411 119 b 183 279 222 119 183 210 z m 647 288 b 319 -61 647 68 514 -61 b 86 44 215 -61 142 -18 b 357 -99 121 -46 192 -99 b 686 249 551 -99 686 31 b 575 501 686 388 647 454 b 647 288 621 444 647 368 z m 310 604 b 489 756 350 686 413 756 l 576 756 b 625 810 607 756 625 781 b 557 944 625 882 601 926 b 588 847 575 915 588 883 b 539 794 588 818 569 794 l 451 794 b 251 592 358 794 286 699 b 310 604 268 599 288 603 z m 260 242 b 364 351 260 313 294 351 b 397 346 376 351 388 350 b 326 390 386 372 365 390 b 221 279 257 390 221 350 b 275 169 221 240 236 193 b 260 242 261 193 260 217 z "},"7":{"ha":636,"x_min":0,"x_max":0,"o":"m 364 811 b 106 82 239 615 106 314 b 219 -22 106 22 133 -22 b 335 81 288 -22 335 19 b 276 175 335 94 276 122 b 563 860 276 301 417 704 b 565 867 564 861 565 864 l 564 871 b 436 953 543 922 499 953 l 22 953 b 13 943 15 953 13 949 l 13 821 b 22 811 13 814 15 811 z m 578 919 b 603 867 597 894 603 881 b 558 794 603 836 586 835 b 315 175 439 619 315 282 b 372 76 315 135 372 118 b 219 -61 372 -6 311 -61 b 125 -39 181 -61 149 -53 b 258 -99 138 -75 165 -99 b 410 51 350 -99 410 -43 b 353 151 410 92 353 110 b 604 767 353 249 481 600 b 642 846 628 799 642 817 b 578 919 642 885 621 908 z m 275 735 b 296 772 281 749 288 758 l 7 772 b 60 735 25 747 39 735 z "},"8":{"ha":706,"x_min":0,"x_max":0,"o":"m 24 247 b 321 -22 24 113 129 -22 b 603 283 543 -22 603 186 b 454 531 603 424 526 490 b 583 742 547 593 583 650 b 321 975 583 867 503 975 b 58 722 172 975 58 867 b 149 515 58 615 99 561 b 24 247 56 433 24 344 z m 186 292 b 282 443 186 329 222 417 b 440 260 376 403 440 363 b 319 142 440 193 401 142 b 186 292 217 142 186 211 z m 313 832 b 421 729 385 832 421 797 b 332 592 421 675 381 622 b 219 726 278 613 219 647 b 313 832 219 772 246 832 z m 642 283 b 321 -61 642 172 574 -61 b 94 15 225 -61 150 -31 b 360 -99 129 -60 206 -99 b 679 264 613 -99 679 135 b 578 481 679 381 644 443 b 642 283 618 435 642 374 z m 621 742 b 522 533 621 649 600 594 b 563 499 535 525 549 513 b 660 722 622 554 660 632 b 567 908 660 817 633 876 b 621 742 606 864 621 811 z m 263 254 b 321 364 263 278 285 336 b 382 329 344 353 364 342 b 283 401 363 360 328 381 b 225 292 246 375 225 319 b 274 188 225 246 236 207 b 263 254 264 207 263 231 z m 350 756 b 379 751 361 756 371 754 b 313 794 372 781 350 794 b 258 726 274 794 258 756 b 306 643 258 686 276 660 b 296 689 300 654 296 669 b 350 756 296 718 311 756 z "},"9":{"ha":707,"x_min":0,"x_max":0,"o":"m 231 -22 b 610 593 378 -22 610 193 b 313 975 610 746 529 975 b 22 664 142 975 22 858 b 276 378 22 513 121 378 b 433 428 344 378 393 396 b 179 119 417 283 315 119 l 92 119 b 82 110 85 119 82 115 b 231 -22 86 39 121 -22 z m 447 672 b 304 518 447 575 396 518 b 183 675 208 518 183 589 b 306 832 183 754 218 832 b 447 672 408 832 447 740 z m 542 906 b 647 593 617 817 647 692 b 231 -61 647 169 394 -61 b 111 -32 181 -61 142 -51 b 268 -99 128 -74 161 -99 b 686 569 432 -99 686 131 b 542 906 686 729 639 840 z m 306 794 b 221 675 246 794 221 736 b 269 563 221 622 232 578 b 260 636 260 583 260 607 b 344 756 260 697 283 756 b 389 744 361 756 376 751 b 306 794 372 774 346 794 z m 378 354 b 276 339 349 344 314 339 b 100 399 206 339 147 363 b 315 301 139 331 207 301 b 354 306 336 301 349 303 z "},"\u0017":{"ha":432,"x_min":0,"x_max":0,"o":""}," ":{"ha":432,"x_min":0,"x_max":0,"o":""},"!":{"ha":364,"x_min":0,"x_max":0,"o":"m 136 975 b 35 944 96 975 35 964 b 36 939 35 942 35 940 b 96 250 82 838 96 660 b 104 240 96 244 97 240 b 210 329 158 240 193 267 b 258 867 240 443 258 733 b 136 975 258 904 222 975 z m 22 88 b 157 -22 22 14 67 -22 b 261 88 228 -22 261 14 b 126 186 261 154 217 186 b 22 88 57 186 22 154 z m 268 944 b 296 867 288 918 296 888 b 246 319 296 732 276 436 b 181 219 233 272 213 239 b 242 200 204 215 225 208 b 285 281 260 219 275 246 b 335 828 315 394 335 693 b 268 944 335 888 315 926 z m 300 88 b 157 -61 300 -11 253 -61 b 42 -35 110 -61 71 -51 b 196 -99 61 -82 104 -99 b 338 50 290 -99 338 -50 b 283 156 338 97 319 132 b 300 88 294 138 300 114 z "},"\"":{"ha":478,"x_min":0,"x_max":0,"o":"m 219 997 b 208 989 213 997 208 994 b 215 975 208 985 211 979 b 257 638 242 943 257 742 b 264 628 257 632 260 628 b 342 671 308 628 332 651 b 374 931 365 717 374 876 b 296 997 374 964 353 997 z m 33 997 b 22 988 26 997 22 993 b 26 978 22 985 24 982 b 69 638 54 940 69 743 b 79 628 69 632 72 628 b 156 671 113 628 144 651 b 186 931 179 717 186 876 b 110 997 186 964 167 997 z m 399 982 b 411 931 408 968 411 950 b 375 651 411 874 406 707 b 264 589 360 625 324 589 l 257 589 b 303 551 260 564 275 551 b 413 615 363 551 397 586 b 450 892 439 669 450 839 b 399 982 450 938 436 969 z m 218 638 b 214 757 218 669 217 713 b 69 589 206 681 199 589 b 117 551 74 565 93 551 b 224 611 171 551 207 582 b 218 638 219 618 218 626 z "},"#":{"ha":811,"x_min":0,"x_max":0,"o":"m 331 976 b 217 949 300 976 217 971 b 236 882 217 944 236 926 b 235 856 236 872 236 864 l 215 699 l 182 699 b 56 585 111 699 56 656 b 65 574 56 578 58 574 b 69 575 67 574 68 574 b 169 594 101 589 129 594 l 204 594 l 182 411 l 147 411 b 22 299 76 411 22 365 b 31 289 22 292 24 289 b 135 308 42 289 85 308 l 171 308 l 142 63 b 139 38 140 53 139 43 b 188 -17 139 3 151 -17 b 276 28 207 -17 247 -7 b 294 54 289 42 294 51 b 274 106 294 74 274 72 b 297 308 274 171 289 244 l 403 308 l 374 63 b 371 38 372 53 371 43 b 421 -17 371 3 383 -17 b 526 58 442 -17 526 15 b 506 106 526 69 506 75 b 528 308 506 171 518 243 l 564 308 b 683 425 635 308 683 343 b 674 436 683 432 679 436 b 667 435 669 436 668 436 b 560 411 644 419 608 411 l 540 411 l 563 594 l 599 594 b 718 713 669 594 718 631 b 707 722 718 719 714 722 l 701 722 b 594 699 679 707 644 699 l 572 699 b 594 893 582 765 594 839 b 563 976 594 938 582 976 b 451 949 528 976 451 972 b 468 882 451 944 468 926 l 468 850 l 450 699 l 340 699 l 357 815 b 363 893 361 844 363 871 b 331 976 363 940 347 976 z m 722 425 b 564 271 722 315 657 271 b 543 106 553 215 543 151 b 564 46 543 90 564 83 b 421 -54 533 -25 456 -54 b 378 -47 403 -54 389 -51 b 458 -93 389 -76 413 -93 b 599 24 496 -93 599 -51 b 582 67 599 51 582 51 b 600 232 582 113 588 171 b 760 388 692 236 760 281 b 721 435 760 413 740 431 b 722 425 722 432 722 429 z m 332 594 l 438 594 l 414 411 l 308 411 z m 756 713 b 597 557 756 601 694 557 b 583 450 592 521 588 486 b 632 492 610 454 626 447 l 635 518 b 794 675 726 522 794 568 b 754 722 794 700 775 718 b 756 713 756 721 756 718 z m 333 38 l 333 46 b 188 -54 303 -25 224 -54 b 144 -47 171 -54 156 -51 b 226 -93 156 -76 181 -93 b 349 -25 253 -93 308 -69 b 333 38 338 -11 333 8 z m 632 893 b 618 736 632 846 626 789 b 663 754 639 738 661 744 b 671 856 667 792 671 822 b 615 975 671 921 649 960 b 632 893 626 949 632 922 z m 400 893 b 397 832 399 871 400 851 l 385 736 l 415 736 l 429 856 b 431 882 431 864 431 872 b 411 944 431 924 411 933 b 413 950 411 946 411 949 b 385 972 408 960 399 967 b 400 893 394 953 400 928 z m 360 271 l 332 271 b 310 101 318 215 310 149 b 333 56 310 93 325 85 z m 161 557 b 56 536 125 556 96 536 b 103 499 60 513 79 499 b 154 513 122 499 132 507 z m 121 226 l 126 271 b 31 250 90 269 57 250 l 17 250 l 36 228 b 68 213 42 218 50 213 b 121 226 88 213 99 221 z m 351 450 l 379 450 l 394 557 l 365 557 z "},"$":{"ha":732,"x_min":0,"x_max":0,"o":"m 361 975 b 254 940 326 975 254 965 b 296 854 254 915 276 872 b 61 658 142 829 61 765 b 482 364 61 451 482 539 b 306 267 482 306 396 267 b 101 385 199 267 142 315 b 94 390 100 389 97 390 b 89 389 92 390 90 390 b 14 267 32 353 14 308 b 297 149 14 172 189 153 b 275 69 283 125 275 94 b 361 -17 275 21 304 -17 b 453 67 392 -17 432 7 b 456 82 454 71 456 79 b 451 89 456 85 454 88 b 421 150 429 103 421 114 b 639 385 421 188 639 192 b 221 674 639 654 221 582 b 368 722 221 703 267 722 b 565 825 481 722 529 751 b 572 850 569 831 572 843 b 563 858 572 856 569 858 b 514 853 543 858 528 853 b 371 968 421 853 392 881 z m 676 385 b 458 140 676 214 544 169 b 494 74 458 122 494 114 b 361 -54 468 -21 407 -54 b 292 -37 335 -54 311 -50 b 399 -93 308 -74 339 -93 b 532 36 444 -93 506 -58 b 497 106 532 76 497 79 b 715 347 583 125 715 185 b 632 526 715 457 690 496 b 676 385 663 489 676 442 z m 581 769 b 368 683 540 710 475 683 b 260 674 296 683 260 679 b 367 646 260 669 290 663 l 407 646 b 649 800 547 646 649 722 b 608 858 649 835 635 856 b 613 847 611 856 613 853 b 581 769 613 821 594 789 z m 275 458 b 88 526 204 475 138 492 b 439 381 163 407 347 428 b 275 458 422 424 350 440 z m 244 114 b 29 172 169 121 85 135 b 238 82 51 108 136 89 b 244 114 238 90 240 101 z m 408 975 b 457 900 418 933 432 911 b 443 949 451 914 447 929 z "},"%":{"ha":889,"x_min":0,"x_max":0,"o":"m 661 975 b 376 536 499 975 422 638 b 79 171 289 340 243 171 b 63 129 67 171 63 151 l 63 111 b 158 -17 63 36 97 -17 b 457 493 307 -17 401 350 b 747 872 508 629 596 842 b 754 882 751 874 754 876 b 661 975 754 931 688 975 z m 253 975 b 26 735 149 975 26 858 b 194 540 26 628 97 540 b 344 628 251 540 306 576 b 407 757 368 660 407 715 b 253 975 407 857 369 975 z m 632 418 b 408 176 531 418 408 301 b 574 -17 408 75 479 -17 b 788 201 668 -17 788 113 b 632 418 788 300 751 418 z m 768 943 b 793 882 782 924 793 903 b 754 836 793 861 781 842 b 493 479 632 811 543 614 b 446 360 481 444 460 401 b 531 440 472 389 513 410 b 793 797 579 564 671 771 b 831 851 818 803 831 825 b 768 943 831 899 811 929 z m 142 800 b 193 879 142 850 158 879 b 290 731 251 879 290 806 b 239 636 290 676 274 636 b 142 800 182 636 142 722 z m 524 246 b 572 322 524 292 539 322 b 671 172 632 322 671 249 b 618 82 671 121 654 82 b 524 246 561 82 524 165 z m 826 201 b 574 -54 826 81 686 -54 b 468 -21 535 -54 499 -43 b 613 -93 503 -65 553 -93 b 864 164 739 -93 864 56 b 776 385 864 269 840 338 b 826 201 811 335 826 264 z m 369 160 b 154 -54 317 39 247 -54 b 76 -25 122 -54 96 -44 b 197 -93 90 -81 129 -93 b 388 82 274 -93 336 -14 b 369 160 376 107 371 133 z m 313 485 l 353 579 b 194 501 308 533 254 501 b 78 543 150 501 111 517 b 232 464 110 486 146 464 b 313 485 254 464 293 467 z m 217 763 b 238 803 217 768 219 803 b 193 840 226 829 213 840 b 179 800 185 840 179 826 b 235 675 179 744 201 678 b 217 763 224 699 217 732 z m 600 207 b 618 246 600 233 606 246 b 579 285 613 265 596 285 b 561 246 568 285 561 272 b 617 119 561 186 582 124 b 600 207 604 143 600 175 z m 440 811 l 457 846 b 401 932 454 885 436 915 b 440 811 424 897 435 856 z "},"&":{"ha":1054,"x_min":0,"x_max":0,"o":"m 689 581 b 549 433 582 581 550 525 b 558 424 549 426 551 424 l 561 424 b 653 439 586 435 624 439 b 564 285 632 394 599 335 b 411 493 504 350 457 417 b 594 789 504 561 594 653 b 379 975 594 876 525 975 b 151 767 253 975 151 899 b 224 528 151 708 176 625 b 22 275 122 471 22 408 b 304 -22 22 147 126 -22 b 563 81 406 -22 496 21 b 794 -22 644 19 722 -22 b 918 132 886 -22 918 40 b 908 142 918 139 915 142 b 901 140 906 142 903 142 b 821 119 885 124 847 119 b 664 192 774 119 722 146 b 808 439 724 274 774 358 l 822 439 b 963 625 915 439 963 501 b 954 635 963 632 960 635 b 814 581 910 603 867 581 z m 186 265 b 283 419 186 338 226 379 b 465 172 333 333 394 249 b 328 119 424 138 378 119 b 186 265 231 119 186 206 z m 957 132 b 794 -61 957 17 915 -61 b 564 31 718 -61 642 -26 b 304 -61 493 -22 401 -61 b 86 33 213 -61 142 -24 b 342 -99 117 -53 188 -99 b 592 -15 439 -99 521 -65 b 832 -99 629 -50 714 -99 b 994 94 954 -99 994 -22 b 956 142 994 119 975 138 b 957 132 957 140 957 138 z m 1001 625 b 833 401 1001 479 944 406 b 718 200 803 331 767 267 b 764 171 733 188 749 178 b 871 364 808 232 844 303 b 1039 588 979 368 1039 443 b 1000 633 1039 614 1026 631 b 1001 625 1001 632 1001 631 z m 369 832 b 433 774 407 832 433 814 b 351 610 433 697 399 650 b 313 772 328 667 313 725 b 369 832 313 807 335 832 z m 632 789 b 561 581 632 704 606 640 b 643 615 582 599 608 610 b 671 751 663 653 671 699 b 589 917 671 832 647 882 b 632 789 618 878 632 836 z m 261 228 b 303 318 261 261 281 293 l 272 364 b 224 265 246 339 224 306 b 276 171 224 233 240 192 b 261 228 267 189 261 208 z m 511 453 b 538 551 511 492 521 525 b 463 483 517 528 492 506 b 558 347 493 433 519 392 l 563 351 b 511 453 549 376 511 418 z m 394 774 b 369 794 394 788 386 794 b 350 772 357 794 350 786 b 367 682 350 746 356 715 b 394 774 383 707 394 735 z "},"'":{"ha":282,"x_min":0,"x_max":0,"o":"m 28 997 b 17 989 21 997 17 996 b 26 968 17 986 22 976 b 64 638 46 929 64 744 b 72 628 64 632 67 628 b 150 671 113 628 140 651 b 181 931 174 715 181 879 b 103 997 181 964 160 997 z m 206 982 b 218 931 215 968 218 950 b 183 653 218 872 210 706 b 72 589 168 624 129 589 l 64 589 b 111 551 67 565 86 551 b 221 615 168 551 206 586 b 257 892 247 668 257 835 b 206 982 257 942 243 968 z "},"(":{"ha":356,"x_min":0,"x_max":0,"o":"m 324 -335 b 314 -293 324 -319 317 -306 b 250 299 254 -67 250 163 b 329 933 250 843 329 854 b 283 1008 329 978 313 997 b 290 964 289 996 290 981 b 213 336 290 886 213 899 b 276 -261 213 200 215 -32 b 286 -296 281 -274 286 -285 b 232 -346 286 -333 250 -346 b 210 -337 222 -346 215 -343 b 276 -382 219 -369 238 -382 b 324 -335 304 -382 324 -358 z m 240 -271 b 174 336 185 -62 174 157 b 231 890 174 688 208 842 b 253 964 247 928 253 944 b 204 1015 253 997 231 1015 b 88 832 150 1015 97 863 b 14 376 42 681 14 529 b 192 -271 14 111 76 -142 b 235 -308 221 -304 228 -308 b 244 -293 242 -308 244 -303 b 240 -271 244 -286 242 -275 z "},")":{"ha":354,"x_min":0,"x_max":0,"o":"m 301 356 b 74 -349 301 -18 158 -349 b 32 -342 54 -349 40 -346 b 96 -386 36 -372 51 -386 b 339 318 204 -386 339 -56 b 118 993 339 615 269 886 b 301 356 232 856 301 574 z m 38 976 b 103 369 93 768 103 549 b 47 -185 103 19 68 -139 b 24 -258 29 -224 24 -239 b 72 -308 24 -290 46 -308 b 189 -126 126 -308 181 -156 b 263 331 235 25 263 176 b 85 976 263 596 201 847 b 42 1015 54 1010 50 1015 b 33 1000 36 1015 33 1008 b 38 976 33 992 36 982 z "},"*":{"ha":665,"x_min":0,"x_max":0,"o":"m 494 550 b 510 543 503 544 508 543 b 518 550 514 543 517 544 l 572 710 b 554 722 572 719 571 721 l 386 733 l 515 860 b 518 867 517 861 518 864 b 514 875 518 871 517 872 l 397 965 b 379 975 392 972 385 975 b 297 803 363 975 315 840 l 218 969 b 210 975 217 974 214 975 b 200 969 208 975 204 974 l 74 875 b 69 868 71 872 69 871 b 74 860 69 865 71 863 l 203 740 l 26 721 b 17 710 21 719 17 715 l 69 550 b 79 543 71 544 74 543 b 97 551 82 543 88 544 l 239 632 l 201 456 b 210 446 201 450 203 446 l 379 446 b 388 456 385 446 388 450 l 349 631 z m 519 476 b 547 467 528 471 542 467 b 593 503 567 467 586 482 l 647 663 b 608 707 647 682 635 696 b 610 701 610 707 610 706 l 556 542 b 510 504 546 519 529 504 b 482 514 500 504 490 508 l 404 557 l 425 463 b 379 408 425 433 406 408 l 201 408 b 247 369 207 382 222 369 l 417 369 b 464 424 443 369 464 394 l 442 518 z m 557 867 b 543 832 557 853 557 846 l 468 760 l 542 756 l 581 794 b 594 828 594 808 594 814 b 553 882 594 846 579 864 b 557 867 557 875 557 871 z m 183 557 b 79 504 107 513 93 504 b 64 506 71 504 67 504 b 117 467 72 483 85 467 b 142 472 122 467 132 468 l 168 488 z m 294 897 l 306 918 l 292 943 b 258 974 286 954 272 968 z "},"+":{"ha":668,"x_min":0,"x_max":0,"o":"m 231 246 b 240 235 231 239 233 235 l 363 235 b 372 246 368 235 372 239 l 372 442 l 569 442 b 579 451 575 442 579 444 l 579 572 b 569 583 579 579 575 583 l 372 583 l 372 779 b 363 789 372 785 368 789 l 240 789 b 231 779 233 789 231 785 l 231 583 l 36 583 b 25 572 29 583 25 579 l 25 451 b 36 442 25 444 29 442 l 231 442 z m 618 572 l 618 451 b 569 404 618 424 593 404 l 410 404 l 410 246 b 363 197 410 221 386 197 l 231 197 b 278 158 236 175 257 158 l 400 158 b 449 207 424 158 449 183 l 449 365 l 607 365 b 656 413 632 365 656 386 l 656 535 b 617 582 656 556 636 576 b 618 572 618 579 618 576 z m 192 404 l 36 404 b 8 410 26 404 18 407 b 74 365 32 396 40 365 l 192 365 z m 410 779 l 410 621 l 449 621 l 449 740 b 410 788 449 761 429 782 z "},",":{"ha":407,"x_min":0,"x_max":0,"o":"m 26 -215 b 313 82 196 -190 313 -111 b 193 186 313 153 274 186 b 72 79 101 186 76 156 b 79 69 72 75 75 71 b 136 -10 108 56 136 32 b 19 -199 136 -78 97 -142 z m 69 -290 b 389 44 217 -290 389 -147 b 331 164 389 121 367 151 b 350 82 343 142 350 111 b 32 -253 350 -137 219 -226 l 22 -253 b 69 -290 28 -275 49 -290 z "},"-":{"ha":582,"x_min":0,"x_max":0,"o":"m 32 326 b 42 318 32 319 36 318 l 463 318 b 472 326 468 318 472 319 l 472 449 b 463 458 472 454 468 458 l 42 458 b 32 449 36 458 32 454 z m 511 449 l 511 326 b 463 279 511 306 486 279 l 42 279 b 32 281 38 279 33 279 b 81 242 38 261 58 242 l 500 242 b 549 289 525 242 549 268 l 549 410 b 510 457 549 431 529 453 b 511 449 511 454 511 453 z "},".":{"ha":364,"x_min":0,"x_max":0,"o":"m 24 88 b 160 -22 24 14 69 -22 b 264 88 231 -22 264 14 b 129 186 264 154 219 186 b 24 88 60 186 24 154 z m 285 158 b 303 88 296 140 303 115 b 160 -61 303 -11 256 -61 b 44 -35 111 -61 74 -51 b 199 -99 64 -78 108 -99 b 340 50 293 -99 340 -50 b 285 158 340 113 321 142 z "},"/":{"ha":860,"x_min":0,"x_max":0,"o":"m 767 1007 b 707 1015 749 1014 728 1015 b 486 828 643 1015 540 954 l 90 -92 b 13 -171 67 -146 53 -151 b 7 -181 8 -174 7 -176 b 101 -265 7 -235 51 -265 b 238 -151 165 -265 215 -204 l 656 821 b 781 985 692 907 717 960 b 783 993 782 986 783 989 b 767 1007 783 1004 774 1004 z m 817 1006 b 818 985 818 1001 818 992 b 796 950 818 974 807 956 b 572 528 715 910 640 686 l 274 -167 b 101 -304 246 -232 185 -304 b 22 -282 74 -304 47 -296 b 129 -342 39 -324 82 -342 b 311 -201 217 -342 283 -267 l 678 649 b 831 914 733 779 786 885 b 856 964 842 921 856 935 b 817 1006 856 989 835 1000 z "},":":{"ha":367,"x_min":0,"x_max":0,"o":"m 24 88 b 160 -22 24 14 69 -22 b 264 88 231 -22 264 14 b 129 186 264 154 219 186 b 24 88 60 186 24 154 z m 24 503 b 160 394 24 431 69 394 b 264 503 231 394 264 431 b 129 603 264 571 219 603 b 24 503 60 603 24 571 z m 303 503 b 160 356 303 406 256 356 b 44 382 111 356 72 364 b 199 318 67 338 108 318 b 340 465 293 318 340 367 b 285 576 340 528 321 558 b 303 503 296 556 303 531 z m 285 158 b 303 88 296 140 303 115 b 160 -61 303 -11 256 -61 b 44 -35 111 -61 74 -51 b 199 -99 68 -82 110 -99 b 340 50 293 -99 340 -50 b 285 158 340 111 321 142 z "},";":{"ha":410,"x_min":0,"x_max":0,"o":"m 72 503 b 208 394 72 431 118 394 b 313 503 278 394 313 431 b 176 603 313 571 267 603 b 72 503 107 603 72 571 z m 350 503 b 208 356 350 406 304 356 b 93 381 160 356 122 364 b 246 318 113 335 160 318 b 389 465 342 318 389 367 b 333 576 389 528 372 563 b 350 503 344 556 350 531 z m 26 -215 b 313 82 196 -190 313 -111 b 193 186 313 153 274 186 b 72 79 101 186 76 156 b 79 69 72 75 75 71 b 136 -10 108 56 136 32 b 19 -199 136 -78 97 -142 z m 69 -290 b 389 44 217 -290 389 -147 b 331 164 389 113 367 144 b 350 82 343 142 350 111 b 32 -253 350 -137 219 -226 l 22 -253 b 69 -290 28 -275 49 -290 z "},"<":{"ha":683,"x_min":0,"x_max":0,"o":"m 511 831 b 419 758 501 831 475 792 l 11 517 b 6 508 7 514 6 513 b 11 500 6 504 7 501 l 375 292 b 467 263 408 272 429 263 b 579 386 514 263 579 314 b 569 399 579 394 575 399 b 564 397 567 399 565 399 b 489 372 540 383 514 372 b 410 393 457 372 435 379 l 201 514 l 476 669 b 553 767 522 694 553 724 b 511 831 553 775 539 831 z m 590 767 b 278 514 590 657 400 585 l 331 483 b 629 728 443 543 629 619 b 568 828 629 764 615 804 b 590 767 582 810 589 789 z m 467 225 b 356 260 424 225 397 235 l 7 458 b 31 429 10 446 18 436 l 394 221 b 504 186 433 199 458 186 b 656 347 579 186 656 242 b 617 397 656 371 642 394 b 618 388 618 394 618 392 b 467 225 618 310 543 225 z "},"=":{"ha":697,"x_min":0,"x_max":0,"o":"m 44 290 l 578 290 b 588 299 585 290 588 292 l 588 421 b 578 431 588 426 585 431 l 44 431 b 35 421 38 431 35 426 l 35 299 b 44 290 35 292 39 290 z m 578 251 l 24 251 b 82 214 42 226 61 214 l 617 214 b 664 260 640 214 664 233 l 664 382 b 625 429 664 403 646 424 b 626 421 626 428 626 424 l 626 299 b 578 251 626 272 603 251 z m 44 594 l 578 594 b 588 603 585 594 588 597 l 588 725 b 578 736 588 732 585 736 l 44 736 b 35 725 38 736 35 732 l 35 603 b 44 594 35 597 39 594 z m 578 557 l 24 557 b 82 518 42 531 61 518 l 617 518 b 664 565 640 518 664 539 l 664 688 b 625 735 664 707 646 729 b 626 725 626 733 626 729 l 626 603 b 578 557 626 576 603 557 z "},">":{"ha":678,"x_min":0,"x_max":0,"o":"m 94 238 b 186 310 103 238 128 275 l 593 551 b 600 560 597 554 600 557 b 593 568 600 564 597 567 l 231 776 b 139 806 196 796 161 806 b 25 682 90 806 25 754 b 36 669 25 674 29 669 b 40 671 38 669 39 669 b 115 696 65 685 90 696 b 194 676 147 696 171 690 l 403 556 l 128 399 b 51 303 82 372 51 336 b 94 238 51 293 67 238 z m 157 167 b 246 240 188 199 217 224 l 651 481 b 676 521 668 490 676 497 b 636 569 676 540 663 556 b 638 558 638 568 638 565 b 613 517 638 543 631 528 l 206 276 b 100 197 153 244 124 197 b 75 201 92 197 83 200 b 135 156 85 189 111 156 b 157 167 142 156 149 157 z m 329 556 b 117 658 283 589 181 658 b 38 632 93 658 78 632 l 25 632 b 75 593 39 614 46 593 b 156 619 106 593 121 619 b 314 546 204 619 275 571 z "},"?":{"ha":626,"x_min":0,"x_max":0,"o":"m 283 975 b 19 732 104 975 19 858 b 143 590 19 657 67 590 l 201 590 b 210 601 207 590 210 594 b 208 606 210 603 210 604 b 179 718 189 646 179 685 b 281 857 179 769 214 857 b 363 700 357 857 363 767 b 275 554 363 639 333 590 b 144 317 154 472 144 438 b 156 306 144 310 149 306 l 278 306 b 289 317 285 306 289 310 l 289 367 b 535 701 289 439 535 515 b 283 975 535 817 499 975 z m 117 88 b 253 -22 117 14 163 -22 b 357 88 322 -22 357 14 b 221 186 357 154 311 186 b 117 88 151 186 117 154 z m 511 918 b 572 701 560 856 572 772 b 386 424 572 581 503 508 b 326 367 353 399 326 379 l 326 317 b 278 268 326 292 303 268 l 146 268 b 193 231 151 246 171 231 l 317 231 b 364 278 340 231 364 254 l 364 329 b 514 457 364 351 457 400 b 611 663 579 522 611 604 b 511 918 611 804 594 883 z m 378 158 b 394 88 389 140 394 115 b 253 -61 394 -11 349 -61 b 138 -35 203 -61 165 -51 b 290 -99 156 -79 201 -99 b 433 50 386 -99 433 -50 b 378 158 433 110 413 140 z m 247 601 b 243 576 247 592 246 585 l 275 600 b 256 679 263 629 256 663 b 317 781 256 736 275 778 b 281 819 306 807 294 819 b 217 718 239 819 217 754 b 247 601 217 661 247 629 z m 208 553 l 143 553 b 51 579 110 553 79 561 b 163 514 78 543 113 519 b 208 553 176 526 189 538 z "},"@":{"ha":1065,"x_min":0,"x_max":0,"o":"m 468 26 b 583 89 529 26 572 89 b 618 24 597 89 590 24 b 965 363 822 38 965 204 b 524 774 965 679 701 774 b 24 246 206 774 24 588 b 542 -224 24 -33 206 -224 b 878 43 781 -224 857 -129 b 868 54 878 51 874 54 b 860 51 865 54 863 53 b 471 -86 782 -37 664 -86 b 156 246 297 -86 156 7 b 515 654 156 517 279 654 b 810 363 638 654 810 582 b 696 176 810 306 760 176 b 693 194 694 176 693 183 l 693 368 b 724 465 693 397 693 439 b 728 472 726 468 728 469 b 722 481 728 476 726 479 b 510 542 658 522 581 542 b 274 246 369 542 274 442 b 468 26 274 138 350 26 z m 468 -49 b 606 -19 561 -49 590 -29 b 628 -39 611 -28 618 -35 b 783 31 686 -28 738 -6 b 618 -14 735 7 678 -10 b 572 24 600 -14 581 3 b 468 -11 547 6 514 -11 b 235 246 335 -11 235 101 b 510 579 235 468 332 579 b 707 532 574 579 642 564 b 515 617 651 583 576 617 b 193 246 304 617 193 500 b 468 -49 193 54 319 -49 z m 915 38 b 542 -261 892 -156 810 -261 b 138 -133 367 -261 233 -215 b 579 -300 196 -243 321 -300 b 954 0 847 -300 954 -161 b 915 53 954 25 939 47 z m 421 276 b 494 407 421 372 464 407 b 554 307 533 407 554 385 b 486 165 554 215 543 165 b 421 276 442 165 421 190 z m 1042 324 b 908 649 1042 514 1003 593 b 1004 363 965 578 1004 489 b 872 93 1004 265 954 165 b 914 56 894 89 907 78 b 1042 324 994 128 1042 228 z m 497 239 b 515 321 497 283 506 307 b 494 368 514 358 508 368 b 458 276 479 368 458 344 b 486 203 458 219 468 203 b 499 207 490 203 494 204 b 497 221 497 210 497 215 z m 771 363 b 758 447 771 396 767 424 b 732 368 749 418 732 424 l 732 239 b 771 363 756 265 771 310 z "},"A":{"ha":957,"x_min":0,"x_max":0,"o":"m 476 975 b 18 185 167 975 18 481 b 53 0 18 90 33 0 l 188 0 b 199 13 196 0 199 3 b 181 181 199 38 181 65 b 236 292 181 260 189 292 l 600 292 b 654 213 657 292 651 243 b 725 0 661 140 674 0 l 871 0 b 879 14 879 0 879 7 b 476 975 740 329 831 975 z m 461 833 b 619 444 563 833 619 629 b 597 426 619 433 606 426 l 256 426 b 228 444 242 426 228 429 b 461 833 228 611 354 833 z m 828 424 b 917 21 850 279 868 129 b 871 -37 917 -7 917 -37 l 710 -37 b 754 -76 724 -64 738 -76 l 908 -76 b 956 -18 956 -76 956 -44 b 867 385 904 104 888 238 b 692 906 821 711 797 839 b 828 424 776 789 801 607 z m 614 232 b 600 254 614 243 614 254 l 236 254 b 218 182 222 254 218 231 b 236 15 218 79 236 53 b 188 -37 236 -22 218 -37 l 51 -37 b 92 -76 64 -64 76 -76 l 226 -76 b 275 -19 257 -76 275 -61 b 257 146 275 22 257 50 b 275 215 257 192 261 215 l 615 215 z m 488 761 b 525 746 504 761 517 753 b 465 796 511 779 493 796 b 265 465 372 796 274 608 l 304 465 b 488 761 329 608 414 761 z "},"B":{"ha":839,"x_min":0,"x_max":0,"o":"m 329 975 b 38 885 200 975 88 926 b 33 878 35 883 33 881 l 33 10 b 43 0 33 4 38 0 l 374 0 b 740 294 558 0 740 104 b 585 540 740 394 690 499 b 664 717 639 574 664 651 b 329 975 664 876 514 975 z m 408 438 b 579 311 507 438 579 422 b 385 142 579 190 494 142 l 222 142 b 194 165 203 142 194 150 l 194 438 z m 326 832 b 501 696 436 832 501 792 b 374 578 501 600 436 578 l 194 578 l 194 801 b 326 832 222 821 268 832 z m 779 294 b 374 -37 779 78 579 -37 l 35 -37 b 82 -76 39 -57 60 -76 l 411 -76 b 817 269 617 -76 817 33 b 715 488 817 364 785 440 b 779 294 760 431 779 363 z m 446 361 b 532 350 482 361 511 358 b 408 399 521 390 479 399 l 232 399 l 232 181 l 271 181 l 271 361 z m 356 756 b 456 736 397 756 432 750 b 318 794 442 767 404 794 b 232 779 283 794 257 790 l 232 617 l 271 617 l 271 740 b 356 756 293 751 321 756 z m 703 721 b 650 549 703 660 689 593 b 692 514 665 539 679 528 b 740 693 724 558 740 617 b 646 883 740 797 708 844 b 703 721 689 828 703 781 z "},"C":{"ha":886,"x_min":0,"x_max":0,"o":"m 456 975 b 24 476 163 975 24 740 b 457 -22 24 164 217 -22 b 793 215 636 -22 763 82 b 796 233 794 221 796 228 b 788 244 796 242 793 244 l 742 244 b 725 236 735 244 731 242 b 489 119 672 181 614 119 b 186 474 331 119 186 219 b 463 832 186 692 293 832 b 722 756 535 832 653 807 b 733 751 725 753 729 751 b 743 765 740 751 743 754 l 743 882 b 456 975 743 919 599 975 z m 776 897 b 781 882 781 890 781 885 l 781 765 b 735 713 781 725 761 713 b 701 724 721 713 714 715 b 468 794 636 765 544 794 b 225 464 308 794 225 665 b 326 211 225 339 257 269 b 263 421 278 274 263 332 b 503 756 263 629 347 756 b 739 686 578 756 672 726 b 772 675 750 679 758 675 b 819 726 799 675 819 688 l 819 843 b 776 897 819 860 806 878 z m 835 232 b 826 197 835 221 831 207 b 463 -61 775 31 643 -61 b 156 51 338 -61 232 -17 b 482 -99 211 -51 332 -99 b 857 138 683 -99 797 -14 b 872 193 864 156 872 176 b 833 243 872 217 856 238 b 835 232 835 242 835 238 z "},"D":{"ha":863,"x_min":0,"x_max":0,"o":"m 800 485 b 271 -37 800 158 528 -37 l 35 -37 b 82 -76 39 -57 60 -76 l 308 -76 b 839 465 558 -76 839 103 b 674 846 839 642 772 779 b 800 485 757 749 800 614 z m 299 756 b 488 697 381 756 443 733 b 260 794 440 754 368 794 b 232 736 242 794 232 771 l 232 201 b 271 181 232 188 239 181 l 271 699 b 299 756 271 733 279 756 z m 33 10 b 43 0 33 4 38 0 l 271 0 b 763 490 510 0 763 179 b 258 975 763 728 615 975 b 33 944 221 975 33 972 z m 286 832 b 601 463 518 832 601 614 b 275 142 601 233 411 142 b 194 201 210 142 194 163 l 194 736 b 286 832 194 811 215 832 z "},"E":{"ha":796,"x_min":0,"x_max":0,"o":"m 703 261 b 733 142 722 228 733 185 b 485 -37 733 24 651 -37 l 33 -37 b 82 -76 38 -64 51 -76 l 524 -76 b 771 115 694 -76 771 -15 b 703 261 771 185 749 247 z m 632 572 l 632 451 b 583 404 632 419 615 404 l 232 404 l 232 181 l 271 181 l 271 365 l 621 365 b 669 413 653 365 669 381 l 669 535 b 631 582 669 564 657 579 b 632 572 632 581 632 576 z m 661 943 l 661 821 b 613 772 661 789 644 772 l 232 772 l 232 621 l 271 621 l 271 735 l 650 735 b 699 782 682 735 699 751 l 699 904 b 660 951 699 933 686 949 b 661 943 661 950 661 946 z m 43 953 b 33 943 38 953 33 949 l 33 10 b 43 0 33 4 38 0 l 485 0 b 694 144 626 0 694 49 b 656 264 694 194 676 264 b 647 260 653 264 650 263 b 457 142 604 201 557 142 l 194 142 l 194 389 b 231 442 194 424 207 442 l 583 442 b 593 451 589 442 593 444 l 593 572 b 583 583 593 579 589 583 l 231 583 b 194 622 207 583 194 596 l 194 774 b 231 811 194 797 207 811 l 613 811 b 622 821 618 811 622 814 l 622 943 b 613 953 622 949 618 953 z "},"F":{"ha":660,"x_min":0,"x_max":0,"o":"m 194 389 b 231 442 194 424 207 442 l 507 442 b 517 451 514 442 517 444 l 517 572 b 507 583 517 579 514 583 l 231 583 b 194 622 207 583 194 596 l 194 774 b 231 811 194 797 207 811 l 569 811 b 579 821 575 811 579 814 l 579 943 b 569 953 579 949 575 953 l 75 953 b 33 910 47 953 33 939 l 33 10 b 43 0 33 4 38 0 l 186 0 b 194 10 192 0 194 4 z m 271 365 l 544 365 b 593 413 576 365 593 381 l 593 535 b 554 582 593 564 581 579 b 556 572 556 581 556 576 l 556 451 b 507 404 556 419 539 404 l 232 404 l 232 10 b 186 -37 232 -22 217 -37 l 33 -37 b 82 -76 38 -64 51 -76 l 224 -76 b 271 -28 256 -76 271 -60 z m 618 943 l 618 821 b 569 772 618 789 601 772 l 232 772 l 232 621 l 271 621 l 271 735 l 607 735 b 656 782 639 735 656 751 l 656 904 b 617 951 656 933 643 949 b 618 943 618 950 618 946 z "},"G":{"ha":860,"x_min":0,"x_max":0,"o":"m 440 975 b 22 451 188 975 22 776 b 428 -21 22 226 163 -21 b 757 313 635 -21 757 114 l 757 483 b 747 494 757 490 753 494 l 606 494 b 596 483 600 494 596 490 l 596 307 b 439 125 596 186 535 125 b 186 444 290 125 186 283 b 439 832 186 692 293 832 b 726 751 551 832 650 804 b 732 750 728 751 731 750 b 742 761 738 750 742 753 l 742 892 b 736 900 742 897 740 900 b 440 975 679 935 589 975 z m 781 892 l 781 761 b 732 711 781 728 764 711 b 704 721 722 711 714 714 b 439 794 636 769 546 794 b 224 444 315 794 224 667 b 329 201 224 349 264 253 b 261 407 288 256 261 331 b 478 756 261 629 353 756 b 743 682 579 756 672 728 b 769 674 750 678 765 674 b 818 722 801 674 818 690 l 818 854 b 779 901 818 878 804 886 b 781 892 781 900 781 896 z m 796 483 l 796 313 b 428 -58 796 92 660 -58 b 156 43 317 -58 226 -19 b 467 -97 207 -50 299 -97 b 833 275 697 -97 833 53 l 833 446 b 794 493 833 475 821 490 b 796 483 796 492 796 488 z "},"H":{"ha":868,"x_min":0,"x_max":0,"o":"m 194 418 b 239 453 194 440 210 453 l 550 453 b 597 415 582 453 597 439 l 597 10 b 606 0 597 4 600 0 l 749 0 b 758 10 754 0 758 4 l 758 943 b 749 953 758 949 754 953 l 606 953 b 597 943 600 953 597 949 l 597 600 b 550 572 597 582 582 572 l 239 572 b 194 603 210 572 194 583 l 194 943 b 186 953 194 949 192 953 l 43 953 b 33 943 38 953 33 949 l 33 10 b 43 0 33 4 38 0 l 186 0 b 194 10 192 0 194 4 z m 796 943 l 796 10 b 749 -37 796 -22 781 -37 l 597 -37 b 644 -76 601 -64 617 -76 l 786 -76 b 835 -28 818 -76 835 -60 l 835 904 b 796 951 835 933 822 949 z m 271 376 l 558 376 l 558 414 l 232 414 l 232 10 b 186 -37 232 -22 217 -37 l 33 -37 b 82 -76 38 -64 51 -76 l 224 -76 b 271 -28 256 -76 271 -60 z m 232 943 l 232 611 l 271 611 l 271 904 b 231 953 271 933 258 950 b 232 943 232 951 232 947 z "},"I":{"ha":304,"x_min":0,"x_max":0,"o":"m 194 943 b 186 953 194 949 192 953 l 43 953 b 33 943 38 953 33 949 l 33 10 b 43 0 33 4 38 0 l 186 0 b 194 10 192 0 194 4 z m 271 904 b 231 951 271 926 256 947 b 232 943 232 950 232 946 l 232 10 b 186 -37 232 -14 213 -37 l 35 -37 b 82 -76 39 -57 60 -76 l 224 -76 b 271 -28 250 -76 271 -51 z "},"J":{"ha":364,"x_min":0,"x_max":0,"o":"m 254 943 b 244 953 254 949 250 953 l 103 953 b 93 943 97 953 93 949 l 93 321 b -151 -178 93 13 42 -22 b -156 -186 -154 -181 -156 -183 l -156 -239 b -146 -249 -156 -246 -153 -249 b 3 -210 -97 -249 -43 -229 b 254 439 239 -111 254 125 z m 331 904 b 290 951 331 933 318 949 b 292 943 292 949 292 946 l 292 439 b 17 -246 292 108 275 -133 b -146 -287 -29 -265 -89 -287 l -154 -287 b -108 -325 -151 -312 -136 -325 b 56 -283 -53 -325 10 -304 b 331 401 304 -174 331 75 z "},"K":{"ha":893,"x_min":0,"x_max":0,"o":"m 194 378 b 282 450 194 417 217 450 b 419 297 325 450 392 358 b 706 -22 489 140 567 -22 b 817 15 740 -22 817 -11 l 817 117 b 807 126 817 124 813 126 b 765 119 796 126 779 119 b 564 356 671 119 621 214 b 379 554 533 429 482 526 l 749 935 b 751 942 750 936 751 939 b 740 953 751 949 747 953 l 576 953 b 569 949 574 953 572 951 l 194 547 l 194 944 b 186 956 194 951 192 956 l 43 956 b 33 944 38 956 33 951 l 33 10 b 43 0 33 4 38 0 l 186 0 b 194 10 192 0 194 4 z m 489 536 l 814 871 b 826 903 821 876 826 889 b 788 951 826 932 814 949 b 789 942 789 950 789 946 b 775 908 789 928 781 915 l 446 568 b 489 536 461 558 475 547 z m 271 339 b 335 374 271 358 278 374 b 282 411 311 404 293 411 b 232 378 246 411 232 396 l 232 10 b 186 -37 232 -22 217 -37 l 33 -37 b 82 -76 38 -64 51 -76 l 224 -76 b 271 -28 256 -76 271 -60 z m 856 117 l 856 15 b 706 -61 856 -37 753 -61 b 564 -7 649 -61 603 -42 b 743 -99 614 -62 667 -99 b 893 -22 792 -99 893 -76 l 893 79 b 854 126 893 108 881 124 b 856 117 856 125 856 121 z m 271 685 l 271 907 b 231 956 271 936 258 953 b 232 944 232 954 232 950 l 232 644 z m 569 431 b 721 169 640 294 661 206 l 717 172 b 531 493 667 235 669 401 b 569 431 544 472 558 453 z "},"L":{"ha":758,"x_min":0,"x_max":0,"o":"m 33 10 b 43 0 33 4 38 0 l 467 0 b 676 136 606 0 676 46 b 638 257 676 186 663 257 b 631 253 635 257 632 256 b 439 142 575 179 511 142 l 231 142 b 194 172 207 142 194 153 l 194 943 b 186 953 194 949 192 953 l 43 953 b 33 943 38 953 33 949 z m 714 136 b 467 -37 714 21 632 -37 l 33 -37 b 82 -76 38 -64 51 -76 l 504 -76 b 751 97 669 -76 751 -18 b 688 254 751 186 731 232 b 714 136 704 219 714 172 z m 232 943 l 232 181 l 271 181 l 271 904 b 231 953 271 933 258 950 b 232 943 232 951 232 947 z "},"M":{"ha":1354,"x_min":0,"x_max":0,"o":"m 1089 0 l 1243 0 b 1253 8 1249 0 1253 3 b 1251 14 1253 10 1253 13 b 890 975 1108 342 1260 975 b 626 713 751 975 661 851 b 392 975 600 851 514 975 b 28 200 94 975 28 519 b 67 0 28 149 38 0 l 201 0 b 210 8 207 0 210 3 b 193 167 210 33 193 82 b 393 833 193 365 219 833 b 526 317 478 833 526 597 b 564 0 526 244 535 0 l 699 0 b 708 8 706 0 708 3 b 692 167 708 33 692 82 b 881 833 692 319 713 833 b 1079 7 1050 833 953 303 z m 393 796 b 231 167 251 796 231 354 b 247 8 231 90 247 56 b 201 -37 247 -18 228 -37 l 63 -37 b 104 -76 74 -64 88 -76 l 239 -76 b 286 -29 265 -76 286 -56 b 269 128 286 28 269 79 b 432 757 269 317 290 757 b 393 796 421 782 407 796 z m 881 796 b 729 167 746 796 729 311 b 747 8 729 93 747 53 b 699 -37 747 -18 729 -37 l 565 -37 b 603 -76 574 -64 586 -76 l 736 -76 b 785 -29 767 -76 785 -56 b 767 128 785 28 767 67 b 921 757 767 272 781 757 b 881 796 910 782 896 796 z m 1211 446 b 1286 31 1225 293 1235 142 b 1290 8 1290 21 1290 14 b 1243 -37 1290 -18 1267 -37 l 1079 -37 b 1115 -76 1086 -64 1099 -76 l 1281 -76 b 1329 -29 1304 -76 1329 -56 b 1324 -7 1329 -25 1328 -17 b 1244 450 1271 118 1258 288 b 1100 917 1225 688 1213 857 b 1211 446 1182 808 1194 633 z "},"N":{"ha":871,"x_min":0,"x_max":0,"o":"m 171 661 b 188 706 171 694 172 706 b 213 678 186 706 201 693 l 521 206 b 610 -18 571 129 603 42 b 619 -26 610 -24 614 -26 b 761 246 751 -26 761 160 l 761 944 b 751 954 761 950 757 954 l 633 954 b 624 944 628 954 624 950 l 624 349 b 614 332 624 336 619 332 b 603 339 610 332 606 335 l 236 894 b 126 953 211 933 174 953 l 43 953 b 33 943 38 953 33 949 l 33 10 b 43 0 33 4 38 0 l 160 0 b 171 10 167 0 171 4 z m 799 944 l 799 246 b 619 -65 799 149 786 -65 b 611 -64 617 -65 614 -65 b 658 -103 617 -83 638 -103 b 838 208 825 -103 838 111 l 838 906 b 797 953 838 926 818 947 b 799 944 799 951 799 947 z m 208 615 l 208 10 b 160 -37 208 -14 185 -37 l 35 -37 b 82 -76 39 -57 60 -76 l 199 -76 b 246 -28 222 -76 246 -51 l 246 557 z "},"O":{"ha":944,"x_min":0,"x_max":0,"o":"m 408 -22 b 844 499 682 -22 844 214 b 460 975 844 729 738 975 b 24 444 186 975 24 735 b 408 -22 24 189 149 -22 z m 449 832 b 683 465 628 832 683 622 b 431 119 683 258 588 119 b 186 467 261 119 186 282 b 449 832 186 701 307 832 z m 429 -99 b 921 476 743 -99 921 135 b 758 883 921 668 865 810 b 883 492 843 781 883 633 b 408 -61 883 194 704 -61 b 144 32 294 -61 211 -24 b 429 -99 192 -43 276 -99 z m 479 756 b 579 724 514 756 553 744 b 442 794 546 769 493 794 b 225 474 328 794 225 675 b 324 192 225 376 249 246 b 263 438 282 246 263 353 b 479 756 263 633 365 756 z "},"P":{"ha":672,"x_min":0,"x_max":0,"o":"m 310 975 b 33 867 192 975 33 913 l 33 10 b 43 0 33 4 38 0 l 186 0 b 194 10 192 0 194 4 l 194 338 b 224 367 194 363 210 365 b 592 706 501 397 592 571 b 310 975 592 861 469 975 z m 429 690 b 219 508 429 532 314 508 l 194 508 l 194 801 b 314 832 219 817 272 832 b 429 690 406 832 429 761 z m 631 706 b 232 329 631 499 428 333 l 232 10 b 186 -37 232 -22 217 -37 l 33 -37 b 82 -76 38 -64 51 -76 l 224 -76 b 271 -28 256 -76 271 -60 l 271 290 b 668 679 465 304 668 451 b 563 899 668 778 631 864 b 631 706 604 846 631 781 z m 311 794 b 232 779 286 794 256 789 l 232 546 b 272 550 244 546 258 547 l 272 740 b 353 756 293 750 326 756 b 379 751 365 756 372 754 b 311 794 365 782 350 794 z "},"Q":{"ha":932,"x_min":0,"x_max":0,"o":"m 767 -197 b 890 -157 818 -197 890 -182 l 890 -44 b 882 -36 890 -37 886 -36 b 865 -40 876 -36 869 -39 b 781 -54 835 -51 801 -54 b 593 35 700 -54 631 -15 b 838 493 744 108 838 296 b 447 975 838 714 722 975 b 18 449 186 975 18 739 b 444 -22 18 182 160 -17 b 767 -197 529 -144 672 -197 z m 447 832 b 676 463 615 832 676 625 b 425 119 676 258 579 119 b 179 464 256 119 179 285 b 447 832 179 704 315 832 z m 875 492 b 653 25 875 304 788 119 b 704 -3 667 14 685 4 b 914 481 829 104 914 258 b 743 879 914 644 868 803 b 875 492 828 778 875 631 z m 474 756 b 572 724 503 756 544 746 b 436 794 543 765 488 794 b 217 469 335 794 217 678 b 318 193 217 371 243 243 b 256 433 275 244 256 351 b 474 756 256 638 374 756 z m 792 -274 b 967 -196 896 -274 967 -233 l 967 -82 b 929 -37 967 -56 954 -40 l 929 -157 b 764 -235 929 -203 835 -235 b 482 -119 685 -235 564 -194 b 792 -274 538 -228 681 -274 z m 425 -60 b 157 33 314 -54 229 -22 b 457 -97 200 -43 285 -82 b 425 -60 446 -85 435 -72 z "},"R":{"ha":864,"x_min":0,"x_max":0,"o":"m 194 338 b 224 367 194 354 203 367 b 344 378 261 368 282 367 b 678 -22 469 269 490 -22 b 788 15 714 -22 788 -11 l 788 117 b 778 126 788 125 785 126 b 731 119 763 126 756 119 b 496 436 597 119 599 328 b 636 696 593 496 636 600 b 325 975 636 869 492 975 b 33 869 199 975 33 914 l 33 10 b 43 0 33 4 38 0 l 186 0 b 194 10 192 0 194 4 z m 315 832 b 474 674 410 832 474 769 b 260 508 474 539 350 508 l 194 508 l 194 801 b 315 832 221 821 275 832 z m 331 335 b 232 329 301 332 267 329 l 232 10 b 186 -37 232 -14 213 -37 l 35 -37 b 82 -76 39 -57 60 -76 l 224 -76 b 271 -28 250 -76 271 -51 l 271 290 b 356 294 294 290 331 290 b 331 335 353 303 344 317 z m 675 700 b 551 429 675 603 643 500 b 707 160 621 333 639 182 b 663 271 675 194 665 260 b 599 397 650 311 629 354 b 713 668 679 464 713 556 b 613 883 713 794 671 847 b 675 700 657 825 675 772 z m 826 117 l 826 15 b 674 -61 826 -37 728 -61 b 551 -15 631 -61 588 -46 b 704 -99 575 -71 631 -99 b 864 -22 769 -99 864 -76 l 864 79 b 825 126 864 106 851 122 b 826 117 826 125 826 122 z m 351 756 b 419 738 379 756 397 751 b 311 794 396 775 364 794 b 232 779 286 794 257 790 l 232 546 l 271 546 l 271 740 b 351 756 293 751 322 756 z "},"S":{"ha":733,"x_min":0,"x_max":0,"o":"m 315 -22 b 633 268 501 -22 633 93 b 208 733 633 582 208 539 b 378 832 208 789 243 832 b 543 799 454 832 500 818 l 553 794 b 563 792 557 793 558 792 b 572 800 569 792 572 794 l 572 919 b 358 975 572 951 443 975 b 47 717 200 975 47 893 b 472 263 47 421 472 488 b 297 119 472 183 421 119 b 110 233 172 119 136 185 b 100 240 107 239 104 240 l 22 240 b 13 231 15 240 13 236 b 315 -22 13 82 138 -22 z m 332 -99 b 710 246 583 -99 710 32 b 590 475 710 386 656 447 b 672 271 640 425 672 365 b 313 -61 672 69 526 -61 b 72 18 211 -61 132 -32 b 332 -99 101 -64 201 -99 z m 610 800 b 564 753 610 767 589 753 b 525 765 547 753 535 760 b 369 794 489 785 428 794 b 246 733 272 794 246 768 b 296 654 246 703 267 678 b 285 696 290 668 285 679 b 414 756 285 731 308 756 b 563 726 492 756 531 742 b 604 715 565 725 585 715 b 647 763 626 715 647 728 l 647 882 b 610 928 647 899 632 914 z m 271 415 b 107 506 210 442 163 463 b 417 319 168 375 317 389 b 271 415 388 361 331 389 z "},"T":{"ha":815,"x_min":0,"x_max":0,"o":"m 453 749 b 500 811 453 790 468 811 l 725 811 b 736 821 732 811 736 814 l 736 943 b 725 953 736 949 732 953 l 26 953 b 17 943 21 953 17 949 l 17 821 b 26 811 17 814 21 811 l 246 811 b 290 754 274 811 290 792 l 290 10 b 301 0 290 4 294 0 l 443 0 b 453 10 450 0 453 4 z m 528 710 b 539 735 528 726 532 735 l 764 735 b 811 782 788 735 811 758 l 811 904 b 774 951 811 925 793 946 l 774 821 b 725 772 774 796 750 772 l 500 772 b 490 749 494 772 490 765 l 490 10 b 443 -37 490 -14 469 -37 l 292 -37 b 339 -76 297 -57 318 -76 l 482 -76 b 528 -28 508 -76 528 -51 z m 253 753 b 246 772 251 767 249 772 l 18 772 b 65 735 22 751 43 735 l 253 735 z "},"U":{"ha":921,"x_min":0,"x_max":0,"o":"m 381 -22 b 632 88 514 -22 583 24 b 778 -22 651 42 704 -22 b 829 -7 797 -22 829 -22 l 829 110 b 819 119 829 118 824 119 b 758 289 776 126 758 210 l 758 943 b 749 953 758 949 754 953 l 607 953 b 597 943 601 953 597 949 l 597 436 b 400 119 597 275 561 119 b 196 436 258 119 196 239 l 196 943 b 186 953 196 949 192 953 l 43 953 b 33 943 38 953 33 949 l 33 436 b 381 -22 33 188 94 -22 z m 796 289 b 819 157 796 222 806 157 b 840 150 826 157 833 156 b 835 250 836 175 835 211 l 835 904 b 796 951 835 925 815 946 z m 233 436 b 317 183 233 314 257 225 b 272 397 285 232 272 301 l 272 904 b 233 951 272 925 253 946 z m 414 -99 b 661 -15 518 -99 588 -79 b 625 24 647 -3 635 10 b 386 -61 560 -35 488 -61 b 126 18 281 -61 185 -32 b 414 -99 161 -57 263 -99 z m 868 -7 b 782 -61 868 -57 811 -61 b 669 -22 738 -61 704 -51 b 821 -99 697 -67 735 -99 b 906 -46 853 -99 906 -94 l 906 71 b 868 118 906 92 886 113 z "},"V":{"ha":931,"x_min":0,"x_max":0,"o":"m -10 953 b -21 943 -17 953 -21 949 b -19 939 -21 942 -21 940 b 392 -22 118 619 31 -22 b 843 786 692 -22 843 471 b 807 953 843 843 828 953 l 672 953 b 663 944 665 953 663 950 b 679 786 663 931 679 917 b 390 119 679 632 572 119 b 154 946 231 119 257 669 b 143 953 151 950 147 953 z m 882 786 b 392 -61 882 456 718 -61 b 225 -7 319 -61 269 -40 b 429 -99 261 -72 310 -99 b 919 749 756 -99 919 418 b 846 953 919 815 889 949 b 882 786 867 903 882 833 z m 271 558 b 383 157 299 361 326 171 b 226 925 313 300 307 686 b 192 953 215 943 203 951 b 271 558 229 840 251 692 z "},"W":{"ha":1292,"x_min":0,"x_max":0,"o":"m -10 953 b -21 944 -17 953 -21 950 b -19 939 -21 942 -21 940 b 342 -22 125 611 -28 -22 b 606 240 483 -22 569 101 b 840 -22 632 101 718 -22 b 1204 753 1139 -22 1204 433 b 1167 953 1204 803 1196 953 l 1033 953 b 1021 944 1025 953 1021 950 b 1039 786 1021 935 1039 910 b 840 119 1039 588 1013 119 b 668 953 675 119 731 953 l 533 953 b 522 944 526 953 522 950 b 542 786 522 929 542 892 b 351 119 542 632 519 119 b 153 946 186 119 275 647 b 144 953 151 950 149 953 z m 1243 753 b 840 -61 1243 418 1169 -61 b 706 -17 790 -61 744 -46 b 879 -99 732 -68 794 -99 b 1281 715 1208 -99 1281 379 b 1208 951 1281 772 1263 942 b 1243 753 1232 893 1243 796 z m 743 667 b 840 157 743 399 785 157 b 782 600 806 229 782 408 b 708 953 782 707 774 947 b 743 667 736 885 743 746 z m 269 486 b 349 157 286 310 292 164 b 226 924 292 279 328 681 b 192 953 218 944 208 950 b 269 486 243 815 254 644 z m 603 122 b 342 -61 551 15 464 -61 b 182 -14 275 -61 222 -43 b 379 -99 213 -68 271 -99 b 632 65 492 -99 576 -28 b 603 122 621 83 613 101 z "},"X":{"ha":950,"x_min":0,"x_max":0,"o":"m 449 375 l 686 7 b 701 0 690 3 694 0 l 857 0 b 868 10 864 0 868 4 b 861 22 868 13 865 17 l 539 488 l 869 932 b 874 943 872 936 874 939 b 864 953 874 949 871 953 l 703 953 b 693 949 697 953 694 951 l 447 596 l 197 949 b 188 953 196 951 192 953 l 29 953 b 19 943 22 953 19 949 b 24 932 19 939 21 936 l 360 493 l 17 21 b 11 8 13 17 11 13 b 22 0 11 3 15 0 l 174 0 b 189 7 181 0 186 3 z m 913 943 b 900 910 913 933 910 921 l 586 488 l 893 44 b 906 10 900 35 906 24 b 857 -37 906 -22 889 -37 l 685 -37 l 692 -51 b 739 -76 701 -68 722 -76 l 896 -76 b 950 -19 928 -76 950 -51 b 938 18 950 -3 946 7 l 631 458 l 938 871 b 950 904 946 883 950 893 b 911 951 950 933 938 949 b 913 943 913 950 913 947 z m 219 -15 b 174 -37 208 -31 193 -37 l 11 -37 b 60 -76 14 -64 31 -76 l 213 -76 b 258 -53 229 -76 247 -69 l 478 260 l 447 307 z m 447 663 l 468 688 l 296 929 b 240 953 282 949 261 953 z "},"Y":{"ha":915,"x_min":0,"x_max":0,"o":"m 493 388 l 840 931 b 847 946 844 936 847 943 b 838 953 847 950 843 953 l 676 953 b 667 947 671 953 668 951 l 415 529 l 161 947 b 153 953 160 951 157 953 l -7 953 b -19 944 -15 953 -19 950 b -14 933 -19 942 -18 938 l 332 388 l 332 10 b 342 0 332 4 335 0 l 483 0 b 493 10 489 0 493 4 z m 569 339 l 911 871 b 924 908 919 885 922 894 b 885 951 924 932 911 947 l 885 946 b 872 910 885 932 882 924 l 531 378 l 531 10 b 483 -37 531 -22 514 -37 l 332 -37 b 379 -76 335 -64 350 -76 l 521 -76 b 569 -28 553 -76 569 -60 z m 415 604 l 439 640 l 260 926 b 204 950 247 946 226 949 z "},"Z":{"ha":900,"x_min":0,"x_max":0,"o":"m 669 0 b 817 119 781 0 817 47 b 761 221 817 160 792 221 b 632 142 740 221 733 142 l 275 142 l 713 767 b 801 913 747 815 801 849 b 763 972 801 928 793 972 b 676 953 753 972 744 953 l 74 953 b 64 943 67 953 64 949 l 64 821 b 74 811 64 814 67 811 l 572 811 l -10 -10 l -10 -15 b 0 -22 -10 -21 -7 -22 b 181 0 31 -22 64 0 z m 840 913 b 743 744 840 835 781 797 l 349 181 l 411 181 l 782 707 b 878 874 819 761 878 796 b 826 965 878 910 863 949 b 840 913 836 944 840 924 z m 707 -76 b 893 82 850 -76 893 -14 b 824 215 893 150 868 199 b 856 119 842 186 856 149 b 669 -37 856 24 811 -37 l 181 -37 b -1 -61 28 -37 35 -61 b -10 -60 -6 -61 -8 -61 b 38 -99 -7 -81 14 -99 b 218 -76 79 -99 100 -76 z m 500 772 l 65 772 b 111 735 69 751 90 735 l 472 735 z "},"[":{"ha":522,"x_min":0,"x_max":0,"o":"m 407 -75 l 171 -75 l 171 874 l 407 874 b 417 885 413 874 417 878 l 385 1007 b 375 1015 383 1013 379 1015 l 43 1015 b 33 1004 38 1015 33 1011 l 33 -206 b 43 -215 33 -212 38 -215 l 375 -215 b 385 -207 379 -215 383 -212 l 414 -97 b 417 -85 415 -93 417 -89 b 407 -75 417 -79 413 -75 z m 453 900 b 454 885 454 896 454 889 b 407 836 454 860 431 836 l 208 836 l 208 -37 l 246 -37 l 246 797 l 444 797 b 493 846 468 797 493 822 b 490 861 493 853 492 857 l 461 974 b 422 1013 456 989 436 1007 z m 454 -85 b 417 -218 454 -103 429 -181 b 375 -253 408 -242 390 -253 l 43 -253 b 33 -251 39 -253 38 -251 b 82 -290 38 -271 60 -290 l 413 -290 b 493 -124 463 -290 493 -158 b 454 -75 493 -101 479 -81 z "},"\\":{"ha":863,"x_min":0,"x_max":0,"o":"m 19 978 b 132 821 67 949 97 901 l 550 -151 b 686 -265 574 -206 619 -265 b 781 -181 736 -265 781 -235 b 697 -92 781 -150 731 -169 l 301 828 b 81 1015 244 960 146 1015 b 3 993 60 1015 3 1014 b 19 978 3 985 14 982 z m 336 843 b 733 -76 468 535 599 232 b 775 -122 746 -107 753 -115 l 771 -114 b 375 806 639 189 510 490 b 276 944 349 865 313 910 b 336 843 299 915 319 883 z m 819 -181 b 686 -304 819 -260 757 -304 b 590 -269 649 -304 618 -290 b 724 -342 622 -308 668 -342 b 857 -218 796 -342 857 -299 b 818 -162 857 -183 840 -171 b 819 -181 819 -167 819 -171 z "},"]":{"ha":513,"x_min":0,"x_max":0,"o":"m 51 -207 b 61 -215 51 -212 54 -215 l 394 -215 b 403 -206 400 -215 403 -212 l 403 1004 b 394 1015 403 1011 400 1015 l 61 1015 b 51 1007 54 1015 51 1013 l 21 885 b 31 874 21 878 24 874 l 267 874 l 267 -75 l 31 -75 b 22 -85 24 -75 22 -79 l 22 -96 z m 51 -253 b 99 -290 57 -275 81 -290 l 432 -290 b 479 -244 453 -290 479 -264 l 479 967 b 440 1014 479 988 460 1008 l 440 -206 b 394 -253 440 -226 414 -253 z m 229 836 l 22 836 b 68 797 26 811 42 797 l 229 797 z "},"^":{"ha":600,"x_min":0,"x_max":0,"o":"m 511 574 b 442 660 482 603 460 628 l 240 1010 b 231 1015 238 1014 235 1015 b 222 1010 226 1015 224 1014 l 49 704 b 19 613 29 669 19 639 b 143 499 19 558 63 514 b 156 510 151 499 156 503 b 154 514 156 513 156 514 b 128 589 140 539 128 564 b 238 821 128 663 197 750 b 450 526 294 710 367 526 b 513 561 472 526 493 538 z m 233 742 b 167 589 200 690 167 633 b 193 510 167 564 193 532 b 142 461 193 479 171 461 b 42 500 97 468 65 482 b 181 424 68 461 114 435 b 231 471 210 424 231 440 b 217 507 231 478 224 492 l 208 529 b 204 551 206 538 204 544 b 260 686 204 588 231 639 z m 586 554 b 514 640 549 586 531 611 l 310 992 b 281 1014 301 1004 290 1011 l 475 678 b 547 592 492 649 513 626 l 550 547 b 450 488 518 508 483 488 b 386 508 425 488 406 494 b 488 450 417 472 451 450 b 588 510 522 450 557 469 z "},"_":{"ha":657,"x_min":0,"x_max":0,"o":"m 660 -139 b 694 -21 678 -139 694 -68 b 685 -10 694 -14 692 -10 l -6 -10 b -51 -126 -36 -10 -47 -69 b -40 -139 -51 -135 -47 -139 z m 697 -215 b 771 -58 738 -215 771 -124 b 732 -11 771 -37 751 -17 b 733 -21 733 -12 733 -17 b 660 -176 733 -85 700 -176 l -40 -176 b -50 -175 -44 -176 -49 -176 b -3 -215 -46 -200 -29 -215 z "},"`":{"ha":442,"x_min":0,"x_max":0,"o":"m 97 942 b 21 840 63 942 21 888 b 29 832 21 836 22 833 b 307 751 132 818 226 793 b 317 749 311 751 313 749 b 328 757 319 749 324 751 l 350 796 b 351 803 350 800 351 801 b 342 818 351 810 346 814 l 311 844 b 97 942 249 897 174 933 z m 354 672 b 394 694 367 672 385 676 l 424 746 b 428 765 426 751 428 758 b 385 819 428 790 407 810 b 392 800 389 815 392 810 b 381 776 392 796 386 786 l 360 736 b 317 710 351 719 333 710 b 269 726 297 710 283 721 b 11 797 178 767 88 788 b 65 756 21 783 31 761 b 332 676 161 742 250 718 b 354 672 340 672 350 672 z "},"a":{"ha":664,"x_min":0,"x_max":0,"o":"m 294 640 b 92 561 208 640 132 606 l 92 456 b 101 446 92 450 96 446 b 269 514 108 446 196 514 b 363 461 332 514 363 497 b 214 363 363 410 297 393 b 22 146 97 319 22 258 b 190 -22 22 71 68 -22 b 403 61 317 -22 371 61 b 438 -12 422 61 433 39 b 447 -22 438 -19 440 -22 b 561 0 483 -22 561 -21 l 561 110 b 528 149 561 126 528 113 l 528 381 b 294 640 528 578 457 640 z m 565 381 l 565 156 b 600 110 582 147 600 140 l 600 0 b 447 -61 600 -51 494 -61 b 439 -60 442 -61 439 -61 b 485 -99 443 -79 465 -99 b 638 -37 532 -99 638 -89 l 638 71 b 603 117 638 100 621 110 l 603 343 b 515 596 603 506 581 558 b 565 381 550 549 565 483 z m 371 246 b 225 104 371 175 289 104 b 167 156 181 104 167 126 b 371 294 167 242 304 285 z m 399 -8 b 401 22 399 0 400 10 b 190 -61 372 1 308 -61 b 65 -24 136 -61 97 -49 b 229 -99 88 -72 133 -99 b 408 -39 315 -99 368 -68 b 399 -8 401 -28 399 -18 z m 81 411 b 132 369 88 394 106 372 b 304 439 178 389 246 436 b 324 461 318 446 324 454 b 269 476 324 471 306 476 b 100 408 186 476 118 408 b 81 411 89 408 86 410 z m 253 147 b 333 247 278 178 333 190 b 204 156 275 231 204 203 b 225 142 204 146 211 142 b 253 147 236 142 246 143 z "},"b":{"ha":728,"x_min":0,"x_max":0,"o":"m 325 -22 b 642 353 538 -22 642 133 b 433 640 642 532 543 640 b 196 550 261 640 231 550 b 194 563 194 550 194 554 l 194 1004 b 185 1015 194 1011 190 1015 l 42 1015 b 32 1004 36 1015 32 1011 l 32 290 b 325 -22 32 81 183 -22 z m 350 499 b 481 314 453 499 481 440 b 324 119 481 207 425 119 b 194 290 244 119 194 182 b 350 499 194 351 215 499 z m 364 -99 b 718 315 601 -99 718 71 b 607 589 718 468 678 544 b 679 353 651 533 679 454 b 325 -61 679 110 563 -61 b 111 14 249 -61 172 -36 b 364 -99 150 -62 231 -99 z m 389 424 b 426 417 401 424 414 421 b 350 461 413 446 390 461 b 232 290 249 461 232 340 b 289 165 232 224 251 182 b 271 251 276 186 271 215 b 389 424 271 303 288 424 z m 232 1004 l 232 619 b 271 643 243 628 256 635 l 271 967 b 231 1014 271 988 251 1008 b 232 1004 232 1011 232 1008 z "},"c":{"ha":643,"x_min":0,"x_max":0,"o":"m 318 640 b 22 304 144 640 22 529 b 317 -22 22 129 121 -22 b 543 224 447 -22 543 76 b 532 233 543 231 539 233 b 525 231 529 233 528 232 b 338 119 457 153 390 119 b 186 335 201 119 186 221 b 318 499 186 422 233 499 b 479 465 364 499 435 485 b 486 463 481 464 483 463 b 501 474 493 463 499 465 l 526 564 b 528 572 528 567 528 569 b 318 640 528 619 368 640 z m 568 574 l 529 442 b 503 421 526 428 517 421 b 475 431 499 421 483 428 b 321 461 400 458 357 461 b 224 335 253 461 224 400 b 281 169 224 263 231 196 b 261 297 264 203 261 247 b 328 424 261 363 290 424 b 482 382 379 424 428 404 b 515 374 494 378 506 374 b 549 397 528 374 542 379 l 603 528 b 607 543 606 533 607 540 b 561 586 607 565 585 582 b 568 574 567 582 568 578 z m 581 224 b 317 -61 581 51 468 -61 b 107 7 231 -61 161 -35 b 354 -99 149 -62 215 -99 b 618 186 507 -99 618 14 b 579 232 618 211 600 229 b 581 224 581 231 581 228 z "},"d":{"ha":742,"x_min":0,"x_max":0,"o":"m 349 640 b 10 289 118 640 10 499 b 274 -22 10 125 124 -22 b 479 61 406 -22 450 61 l 499 61 b 535 -22 525 61 514 -22 b 632 3 551 -22 632 -18 l 632 1004 b 622 1015 632 1011 629 1015 l 481 1015 b 469 1004 474 1015 469 1011 l 469 640 z m 322 499 b 469 325 443 493 469 433 l 469 304 b 311 119 469 247 439 119 b 171 310 210 119 171 201 b 322 499 171 453 242 499 z m 669 3 b 525 -61 669 -49 565 -61 b 572 -99 529 -82 542 -99 b 707 -36 597 -99 707 -86 l 707 967 b 669 1014 707 989 692 1010 z m 358 424 b 418 410 382 422 403 417 b 319 461 403 439 375 457 b 210 310 260 461 210 421 b 267 167 210 243 226 188 b 247 272 253 193 247 231 b 358 424 247 382 299 424 z m 479 22 b 274 -61 467 4 383 -61 b 32 79 171 -61 83 -4 b 311 -99 57 -25 136 -99 b 492 -37 403 -99 454 -67 b 479 22 485 -22 483 -12 z "},"e":{"ha":676,"x_min":0,"x_max":0,"o":"m 336 640 b 22 324 111 640 22 467 b 343 -22 22 131 131 -22 b 576 150 456 -22 576 44 b 533 179 576 169 568 179 b 501 169 524 179 514 175 b 350 119 451 138 394 119 b 239 181 274 119 239 151 b 275 226 239 190 250 207 l 578 461 b 586 472 583 465 586 468 b 582 483 586 475 585 479 b 336 640 510 594 424 640 z m 343 -61 b 111 13 246 -61 171 -32 b 381 -99 163 -62 236 -99 b 654 115 518 -99 654 -29 b 610 172 654 144 631 169 b 614 153 613 168 614 161 b 343 -61 614 -4 474 -61 z m 338 157 l 643 396 b 663 435 657 407 663 424 b 572 557 663 478 650 515 b 624 472 618 521 624 476 b 604 435 624 456 618 443 l 290 189 b 282 175 285 185 282 179 b 338 157 282 165 296 158 z m 186 338 b 321 499 186 399 235 499 b 388 460 350 499 388 492 b 219 303 388 418 275 346 b 201 294 211 296 206 294 b 186 338 190 294 186 314 z m 324 461 b 225 356 263 461 232 401 b 347 454 279 392 347 444 b 324 461 347 458 339 461 z "},"f":{"ha":558,"x_min":0,"x_max":0,"o":"m 253 428 b 290 481 253 463 265 481 l 426 481 b 438 490 433 481 438 483 l 438 613 b 426 622 438 618 433 622 l 290 622 b 253 654 265 622 254 632 l 253 785 b 325 872 253 860 274 872 b 383 799 346 872 379 858 b 394 790 383 793 388 790 b 489 900 419 790 483 883 b 325 1015 458 985 393 1015 b 92 785 154 1015 92 917 l 92 663 b 56 622 92 635 81 622 l 18 622 b 7 613 11 622 7 618 l 7 490 b 18 481 7 483 11 481 l 56 481 b 92 436 78 481 89 465 l 92 10 b 101 0 92 4 96 0 l 243 0 b 253 10 249 0 253 4 z m 329 404 l 465 404 b 514 453 489 404 514 428 l 514 574 b 474 621 514 594 494 617 b 475 613 475 619 475 618 l 475 490 b 426 442 475 467 451 442 l 290 442 l 290 10 b 243 -37 290 -14 267 -37 l 93 -37 b 140 -76 97 -57 118 -76 l 281 -76 b 329 -28 306 -76 329 -51 z m 529 899 b 383 751 513 876 443 751 b 432 714 389 731 410 714 b 568 860 469 714 558 839 b 488 976 567 922 529 960 b 529 899 507 956 519 935 z m 325 835 b 290 785 301 835 290 826 l 290 661 l 329 661 l 329 747 b 346 796 329 774 335 789 b 325 835 339 815 336 835 z m 53 442 l 8 442 b 53 404 14 422 33 406 z "},"g":{"ha":732,"x_min":0,"x_max":0,"o":"m 246 -169 b 104 -96 190 -169 133 -150 b 96 -92 103 -93 99 -92 b 24 -190 35 -92 24 -151 b 246 -311 24 -265 139 -311 b 615 100 456 -311 615 -171 l 615 363 b 654 542 615 518 654 514 b 651 547 654 543 654 546 b 364 640 596 588 478 640 b 28 317 136 640 28 468 b 288 0 28 106 161 0 b 460 83 394 0 436 74 b 246 -169 460 -51 383 -169 z m 321 142 b 190 317 219 142 190 218 b 353 499 190 439 279 499 b 454 325 439 499 454 478 b 321 142 454 268 428 142 z m 653 363 l 653 100 b 246 -350 653 -196 476 -350 b 43 -290 171 -350 94 -329 b 285 -387 67 -350 168 -387 b 692 63 514 -387 692 -233 l 692 324 b 732 501 692 457 732 453 b 692 554 732 518 721 539 b 693 535 692 547 693 542 b 653 363 693 492 653 503 z m 353 461 b 229 317 297 461 229 414 b 281 188 229 256 242 207 b 267 278 271 213 267 243 b 392 424 267 376 335 424 b 410 421 397 424 404 422 b 353 461 400 453 385 461 z m 408 -6 b 288 -37 379 -24 342 -37 b 111 24 226 -37 163 -17 b 325 -76 149 -46 215 -76 b 408 -6 378 -76 392 -58 z "},"h":{"ha":689,"x_min":0,"x_max":0,"o":"m 358 499 b 436 378 425 499 436 442 l 436 10 b 446 0 436 4 439 0 l 588 0 b 599 10 594 0 599 4 l 599 394 b 397 640 599 536 529 640 b 196 543 269 640 236 543 b 193 565 194 543 193 554 l 193 1004 b 185 1015 193 1011 190 1015 l 42 1015 b 32 1004 36 1015 32 1011 l 32 10 b 42 0 32 4 36 0 l 185 0 b 193 10 190 0 193 4 l 193 339 b 358 499 193 399 257 499 z m 358 461 b 231 339 281 461 231 385 l 231 10 b 185 -37 231 -14 211 -37 l 33 -37 b 81 -76 38 -57 58 -76 l 222 -76 b 269 -28 249 -76 269 -51 l 269 301 b 394 424 269 346 318 424 b 358 461 389 444 378 461 z m 636 394 l 636 10 b 588 -37 636 -14 613 -37 l 438 -37 b 483 -76 442 -57 463 -76 l 626 -76 b 675 -28 650 -76 675 -51 l 675 356 b 579 592 675 486 656 553 b 636 394 618 543 636 475 z m 231 614 b 269 643 246 629 260 639 l 269 967 b 231 1014 269 989 253 1010 z "},"i":{"ha":329,"x_min":0,"x_max":0,"o":"m 206 613 b 196 622 206 618 201 622 l 54 622 b 44 613 49 622 44 618 l 44 10 b 54 0 44 4 49 0 l 196 0 b 206 10 201 0 206 4 z m 7 915 b 142 806 7 842 51 806 b 246 915 211 806 246 842 b 111 1015 246 982 201 1015 b 7 915 40 1015 7 982 z m 282 574 b 244 621 282 594 263 617 l 244 10 b 196 -37 244 -14 219 -37 l 46 -37 b 93 -76 51 -57 71 -76 l 233 -76 b 282 -28 258 -76 282 -51 z m 265 988 b 283 915 276 968 283 944 b 142 767 283 817 236 767 b 26 793 92 767 53 776 b 179 729 53 751 104 729 b 321 878 275 729 321 779 b 265 988 321 928 303 964 z "},"j":{"ha":328,"x_min":0,"x_max":0,"o":"m 206 0 l 206 613 b 196 622 206 618 201 622 l 53 622 b 44 613 47 622 44 618 l 44 -12 b -87 -247 44 -110 6 -176 b -92 -256 -90 -250 -92 -253 l -92 -299 b -82 -308 -92 -306 -87 -308 b 206 0 142 -299 206 -215 z m 282 -37 l 282 574 b 244 621 282 594 263 617 l 244 0 b -92 -347 244 -236 176 -347 b -42 -385 -87 -372 -71 -385 b 282 -37 211 -371 282 -282 z m 4 915 b 140 806 4 842 50 806 b 244 915 210 806 244 842 b 110 1015 244 982 200 1015 b 4 915 39 1015 4 982 z m 264 988 b 282 915 275 968 282 944 b 140 767 282 817 235 767 b 24 794 92 767 53 776 b 178 729 51 751 101 729 b 319 878 274 729 319 779 b 264 988 319 928 301 964 z "},"k":{"ha":678,"x_min":0,"x_max":0,"o":"m 193 210 b 231 246 193 233 206 246 b 317 174 290 246 296 228 b 515 -22 367 38 435 -22 b 575 -7 540 -22 575 -22 l 575 103 b 565 113 575 110 572 113 b 433 239 499 113 433 188 b 589 425 433 260 529 369 b 593 435 592 428 593 431 b 590 444 593 436 592 439 b 385 640 558 561 488 640 b 206 567 307 640 251 613 l 193 556 l 193 1004 b 185 1015 193 1011 190 1015 l 42 1015 b 32 1004 36 1015 32 1011 l 32 10 b 42 0 32 4 36 0 l 185 0 b 193 10 190 0 193 4 z m 196 328 l 196 358 b 333 499 196 439 303 499 b 426 450 394 499 426 483 b 281 328 426 428 354 328 z m 617 397 b 471 239 558 347 471 250 b 521 165 471 215 492 185 b 510 201 514 176 510 188 b 654 360 510 213 597 308 b 668 393 663 368 668 379 b 558 590 668 479 618 564 b 631 433 588 554 631 481 b 617 397 631 419 625 407 z m 231 208 l 231 10 b 185 -37 231 -14 211 -37 l 33 -37 b 81 -76 38 -57 58 -76 l 222 -76 b 269 -28 249 -76 269 -51 l 269 188 b 231 208 260 200 247 207 z m 614 -7 b 515 -61 614 -60 557 -61 b 392 -15 468 -61 428 -46 b 558 -99 419 -79 475 -99 b 651 -46 600 -99 651 -97 l 651 65 b 614 111 651 85 632 107 z m 231 635 b 269 656 240 644 253 650 l 269 967 b 231 1014 269 989 253 1010 z m 375 424 b 389 450 383 435 389 443 b 333 461 389 457 369 461 b 233 365 311 461 240 422 l 289 365 b 375 424 313 400 354 424 z "},"l":{"ha":304,"x_min":0,"x_max":0,"o":"m 193 1004 b 185 1015 193 1011 190 1015 l 42 1015 b 32 1004 36 1015 32 1011 l 32 10 b 42 0 32 4 36 0 l 185 0 b 193 10 190 0 193 4 z m 269 967 b 231 1014 269 989 253 1010 l 231 10 b 185 -37 231 -14 211 -37 l 33 -37 b 81 -76 38 -57 58 -76 l 222 -76 b 269 -28 249 -76 269 -51 z "},"m":{"ha":1075,"x_min":0,"x_max":0,"o":"m 733 499 b 803 378 799 499 803 442 l 803 10 b 813 0 803 4 807 0 l 956 0 b 964 10 961 0 964 4 l 964 394 b 774 640 964 536 901 640 b 581 556 661 640 633 599 b 558 547 572 550 565 547 b 542 557 553 547 546 550 b 388 640 511 607 458 640 b 171 554 253 640 233 554 b 132 632 156 554 136 579 b 125 640 132 638 129 640 b 32 618 83 640 32 631 l 32 10 b 42 0 32 4 36 0 l 185 0 b 193 10 190 0 193 4 l 193 339 b 349 499 193 399 249 499 b 418 378 414 499 418 442 l 418 10 b 426 0 418 4 421 0 l 569 0 b 579 10 575 0 579 4 l 579 350 b 733 499 579 410 638 499 z m 733 461 b 618 350 663 461 618 394 l 618 10 b 569 -37 618 -14 593 -37 l 419 -37 b 465 -76 424 -57 446 -76 l 607 -76 b 656 -28 632 -76 656 -51 l 656 311 b 763 422 656 356 696 415 b 733 461 763 432 757 461 z m 349 461 b 231 339 274 461 231 385 l 231 10 b 185 -37 231 -14 211 -37 l 33 -37 b 81 -76 38 -57 58 -76 l 222 -76 b 269 -28 249 -76 269 -51 l 269 301 b 378 424 269 346 307 417 b 379 407 378 419 379 415 b 349 461 376 438 372 461 z m 944 597 b 1003 394 982 544 1003 475 l 1003 10 b 956 -37 1003 -14 975 -37 l 804 -37 b 851 -76 810 -57 829 -76 l 993 -76 b 1040 -28 1014 -76 1040 -51 l 1040 356 b 944 597 1040 504 1019 553 z m 169 640 b 178 592 171 635 169 592 b 204 610 183 592 190 597 b 169 640 199 626 186 636 z "},"n":{"ha":708,"x_min":0,"x_max":0,"o":"m 358 499 b 436 378 425 499 436 442 l 436 10 b 446 0 436 4 439 0 l 588 0 b 599 10 594 0 599 4 l 599 394 b 397 640 599 536 529 640 b 171 554 289 640 217 554 b 132 632 156 554 136 579 b 125 640 132 638 129 640 b 32 618 83 640 32 631 l 32 10 b 42 0 32 4 36 0 l 185 0 b 193 10 190 0 193 4 l 193 339 b 358 499 193 399 257 499 z m 358 461 b 231 339 281 461 231 385 l 231 10 b 185 -37 231 -14 211 -37 l 33 -37 b 81 -76 38 -57 58 -76 l 222 -76 b 269 -28 249 -76 269 -51 l 269 301 b 394 424 269 346 318 424 b 358 461 389 444 378 461 z m 636 394 l 636 10 b 588 -37 636 -14 613 -37 l 438 -37 b 483 -76 442 -57 463 -76 l 626 -76 b 675 -28 650 -76 675 -51 l 675 356 b 579 592 675 483 653 556 b 636 394 618 543 636 475 z m 169 640 b 178 592 171 635 169 592 b 204 610 183 592 190 597 b 169 640 199 626 186 636 z "},"o":{"ha":735,"x_min":0,"x_max":0,"o":"m 329 639 b 24 290 158 639 24 542 b 329 -22 24 119 144 -22 b 635 325 499 -22 635 75 b 329 639 635 499 513 639 z m 474 274 b 329 121 474 182 419 121 b 186 343 221 121 186 210 b 315 497 186 435 240 497 b 474 274 439 497 474 407 z m 674 325 b 329 -61 674 50 521 -61 b 108 15 242 -61 168 -32 b 367 -99 156 -65 257 -99 b 711 288 558 -99 711 11 b 596 554 711 394 676 499 b 674 325 646 493 674 413 z m 315 458 b 224 343 263 458 224 413 b 286 168 224 256 240 192 b 261 306 269 200 261 246 b 353 421 261 375 301 421 b 410 408 375 421 394 417 b 315 458 392 439 361 458 z "},"p":{"ha":742,"x_min":0,"x_max":0,"o":"m 390 640 b 186 558 256 640 214 558 l 165 558 b 129 640 139 558 146 640 b 32 617 111 640 32 632 l 32 -301 b 42 -311 32 -307 36 -311 l 185 -311 b 193 -301 190 -311 193 -307 l 193 -22 l 315 -22 b 654 329 513 -22 654 74 b 390 640 654 494 542 640 z m 492 308 b 342 119 492 207 447 119 b 193 315 221 119 193 157 b 353 499 193 371 225 499 b 492 308 454 499 492 417 z m 692 329 b 315 -61 692 46 532 -61 l 231 -61 l 231 -301 b 185 -350 231 -325 211 -350 l 33 -350 b 81 -387 38 -368 58 -387 l 222 -387 b 269 -339 249 -387 269 -364 l 269 -99 l 353 -99 b 731 290 571 -99 731 7 b 610 568 731 424 694 515 b 692 329 663 503 692 421 z m 353 461 b 231 315 256 461 231 361 b 282 165 231 222 242 182 b 269 276 272 189 269 225 b 392 424 269 322 293 424 b 433 414 407 424 419 419 b 353 461 417 443 393 461 z m 171 640 b 179 592 171 635 171 592 b 206 610 185 592 193 599 b 171 640 200 626 188 636 z "},"q":{"ha":722,"x_min":0,"x_max":0,"o":"m 608 393 b 647 536 608 511 647 510 b 643 543 647 539 646 542 b 357 640 586 588 468 640 b 11 286 104 640 11 478 b 282 -22 11 86 144 -22 b 447 32 364 -22 408 -7 l 447 -301 b 456 -311 447 -307 450 -311 l 599 -311 b 608 -301 604 -311 608 -307 z m 317 119 b 172 317 215 119 172 204 b 329 499 172 442 260 499 b 449 353 407 499 449 479 b 317 119 449 244 424 119 z m 685 354 b 722 499 685 450 722 467 b 682 550 722 518 711 536 b 685 536 683 544 685 542 b 647 393 685 486 647 499 l 647 -301 b 599 -350 647 -325 622 -350 l 447 -350 b 494 -387 453 -368 469 -387 l 636 -387 b 685 -339 661 -387 685 -364 z m 329 461 b 211 317 278 461 211 414 b 271 168 211 246 229 192 b 249 278 254 197 249 233 b 367 424 249 376 317 424 b 401 419 379 424 392 422 b 329 461 388 454 364 461 z m 410 -40 b 282 -61 379 -54 336 -61 b 93 6 211 -61 147 -39 b 319 -99 142 -67 213 -99 b 410 -90 354 -99 383 -96 z "},"r":{"ha":533,"x_min":0,"x_max":0,"o":"m 292 482 b 372 446 333 482 368 446 b 457 539 428 450 457 493 b 335 640 457 619 403 640 b 164 554 213 640 194 554 b 132 632 150 554 136 579 b 125 640 132 638 129 640 b 32 618 83 640 32 631 l 32 10 b 42 0 32 4 36 0 l 185 0 b 193 10 190 0 193 4 l 193 374 b 292 482 193 439 225 482 z m 331 406 b 407 368 364 406 389 368 b 533 500 489 368 533 439 b 478 618 533 561 513 597 b 496 539 489 596 496 569 b 368 407 496 478 451 407 b 292 443 350 407 325 443 b 231 374 250 443 231 414 l 231 10 b 185 -37 231 -14 211 -37 l 33 -37 b 81 -76 38 -57 58 -76 l 222 -76 b 269 -28 249 -76 269 -51 l 269 335 b 331 406 269 376 289 406 z m 157 640 b 167 592 157 635 158 592 b 190 610 171 592 178 599 b 157 640 186 625 175 636 z "},"s":{"ha":643,"x_min":0,"x_max":0,"o":"m 265 640 b 25 425 111 640 25 558 b 196 265 25 324 114 265 b 344 269 247 265 313 269 b 396 217 376 269 396 254 b 285 129 396 168 363 129 b 53 163 201 129 117 142 b 29 169 38 168 35 169 b 21 160 22 169 21 167 l 21 75 b 265 -22 51 24 178 -22 b 551 215 442 -22 551 82 b 372 404 551 357 474 404 b 215 399 297 404 260 399 b 178 446 186 399 178 426 b 249 499 178 464 188 499 b 447 463 319 499 379 492 b 451 461 449 461 450 461 b 461 471 457 461 461 465 l 461 585 b 456 593 461 589 460 592 b 265 640 394 632 314 640 z m 304 -99 b 628 186 504 -99 628 22 b 543 374 628 293 603 342 b 589 215 569 332 589 290 b 265 -61 589 60 467 -61 b 22 22 190 -61 83 -26 b 304 -99 54 -56 133 -99 z m 233 189 b 350 193 274 189 317 193 b 358 214 356 197 358 204 b 344 231 358 225 353 231 b 196 228 313 231 247 228 b 65 269 150 228 104 240 b 233 189 93 213 138 189 z m 499 585 l 499 471 b 469 425 499 447 489 432 b 521 396 489 417 506 410 b 538 433 532 406 538 417 l 538 546 b 496 597 538 565 514 588 b 499 585 499 592 499 588 z m 249 461 b 215 449 224 461 215 454 b 233 438 215 440 221 438 b 392 442 253 438 293 442 b 249 461 344 456 300 461 z "},"t":{"ha":526,"x_min":0,"x_max":0,"o":"m 214 858 b 92 728 126 858 92 810 l 92 663 b 56 622 92 635 81 622 l 18 622 b 7 613 11 622 7 618 l 7 490 b 18 481 7 483 11 481 l 56 481 b 92 436 78 481 89 465 l 92 232 b 297 -22 92 125 125 -22 b 438 22 351 -22 400 -10 b 440 29 439 24 440 26 l 440 129 b 432 140 440 136 439 140 b 344 119 413 129 383 119 b 254 201 274 119 254 146 l 254 438 b 290 481 254 467 265 481 l 428 481 b 438 490 435 481 438 483 l 438 613 b 428 622 438 618 435 622 l 290 622 b 254 663 265 622 254 635 l 254 746 b 263 850 254 824 263 843 b 254 858 263 856 260 858 z m 475 613 l 475 490 b 428 442 475 467 454 442 l 292 442 l 292 201 b 331 157 292 175 301 161 l 331 404 l 467 404 b 514 453 493 404 514 428 l 514 574 b 474 621 514 596 499 618 b 475 613 475 619 475 617 z m 479 129 l 479 29 b 297 -61 479 -36 358 -61 b 149 -17 232 -61 185 -43 b 335 -99 179 -72 221 -99 b 517 -8 396 -99 517 -74 l 517 92 b 478 138 517 115 504 131 b 479 129 479 136 479 133 z m 301 842 b 292 746 301 831 292 807 l 292 661 l 331 661 l 331 707 b 339 811 331 800 339 790 b 299 858 339 839 325 856 b 301 842 300 853 301 847 z m 53 442 l 8 442 b 53 404 14 422 33 406 z "},"u":{"ha":697,"x_min":0,"x_max":0,"o":"m 267 119 b 193 242 200 119 193 176 l 193 613 b 185 622 193 618 190 622 l 42 622 b 32 613 36 622 32 618 l 32 224 b 228 -22 32 85 97 -22 b 449 65 361 -22 385 65 b 486 -14 463 65 483 38 b 494 -22 486 -21 489 -22 b 588 0 535 -22 588 -12 l 588 613 b 576 622 588 618 583 622 l 435 622 b 425 613 428 622 425 618 l 425 278 b 267 119 425 218 367 119 z m 625 0 b 486 -61 625 -36 554 -61 b 532 -99 492 -82 507 -99 b 663 -37 592 -99 663 -74 l 663 574 b 625 621 663 594 644 617 z m 269 157 l 269 574 b 231 621 269 596 254 618 l 231 242 b 269 157 231 197 232 157 z m 447 -1 b 449 26 447 10 447 15 b 228 -61 407 26 363 -61 b 90 -18 171 -61 126 -44 b 265 -99 125 -72 178 -99 b 450 -28 361 -99 415 -62 b 447 -1 449 -19 447 -10 z "},"v":{"ha":668,"x_min":0,"x_max":0,"o":"m 10 622 b 0 614 4 622 0 619 b 1 610 0 613 0 611 b 275 -22 63 392 36 -22 b 576 508 475 -22 576 300 b 549 622 576 550 565 622 l 424 622 b 415 613 418 622 415 618 b 424 508 415 594 424 578 b 276 119 424 388 385 119 b 164 614 200 119 199 407 b 154 622 163 618 157 622 z m 615 508 b 275 -61 615 285 501 -61 b 178 -37 236 -61 207 -51 b 314 -99 215 -76 260 -99 b 653 469 540 -99 653 246 b 590 622 653 522 631 617 b 615 508 606 588 615 543 z m 276 157 b 294 161 282 157 289 158 b 239 592 271 263 263 440 l 215 615 b 201 622 210 619 206 622 b 276 157 222 475 246 157 z "},"w":{"ha":1028,"x_min":0,"x_max":0,"o":"m 11 622 b 0 614 4 622 0 619 l 1 610 b 24 419 18 557 21 481 b 238 -22 31 238 40 -22 b 461 158 335 -22 406 51 b 635 -22 488 57 538 -22 b 936 508 835 -22 936 300 b 908 622 936 550 925 622 l 781 622 b 769 615 774 622 769 619 b 782 508 769 604 782 574 b 636 119 782 388 744 119 b 553 386 586 119 553 243 l 553 508 b 535 622 553 604 547 622 l 410 622 b 399 614 403 622 399 619 b 410 508 399 603 410 572 b 239 119 410 388 350 119 b 164 614 165 119 194 381 b 154 622 163 619 158 622 z m 975 508 b 635 -61 975 285 860 -61 b 525 -26 589 -61 554 -49 b 674 -99 560 -71 607 -99 b 1013 469 899 -99 1013 246 b 950 622 1013 535 990 607 b 975 508 969 588 975 560 z m 265 165 b 239 592 256 249 263 429 l 214 617 b 201 622 210 619 203 622 b 239 157 229 410 215 157 b 265 165 247 157 257 160 z m 590 386 b 636 157 590 263 608 157 b 647 158 643 157 647 157 b 629 349 633 201 629 271 b 581 622 629 572 629 617 b 590 386 589 586 590 518 z m 451 71 b 238 -61 394 -10 329 -61 b 110 -22 183 -61 143 -46 b 275 -99 146 -68 199 -99 b 479 19 358 -99 424 -51 b 451 71 468 33 460 50 z "},"x":{"ha":644,"x_min":0,"x_max":0,"o":"m 101 640 b -3 588 51 640 22 624 l -3 508 b 7 499 -3 501 1 499 l 38 499 b 200 319 131 499 200 394 b 24 122 200 264 106 142 b 17 111 19 121 17 117 l 17 0 b 67 -22 17 -14 49 -22 b 283 196 188 -22 246 101 b 492 -22 318 117 392 -22 b 571 1 515 -22 571 -18 l 571 110 b 560 119 571 115 567 119 l 549 119 b 361 321 408 119 361 313 b 551 538 361 408 467 507 b 558 546 556 539 558 543 l 558 614 b 499 640 558 631 513 640 b 281 424 376 640 328 540 b 101 640 253 511 203 640 z m 596 546 b 563 501 596 526 582 508 b 399 321 488 475 399 394 b 481 179 399 315 421 222 b 439 290 454 224 439 276 b 603 464 439 361 531 433 b 633 508 618 469 633 492 l 633 575 b 596 624 633 597 617 614 z m 283 107 b 67 -61 239 18 179 -61 b 18 -49 51 -61 35 -57 b 106 -99 28 -79 75 -99 b 314 54 210 -99 269 -24 b 283 107 303 68 292 85 z m 608 1 b 492 -61 608 -50 526 -61 b 383 -22 451 -61 415 -46 b 529 -99 414 -72 458 -99 b 647 -37 564 -99 647 -87 l 647 71 b 608 118 647 92 628 113 z m 38 461 l -3 461 b 46 424 3 439 24 424 b 142 389 82 424 121 408 b 38 461 121 425 82 461 z m 285 528 l 293 543 b 240 603 288 569 265 593 b 285 528 260 579 271 554 z "},"y":{"ha":679,"x_min":0,"x_max":0,"o":"m 10 622 b 0 613 4 622 0 618 b 1 607 0 610 0 608 b 111 285 54 515 85 428 b 285 4 132 176 192 44 b 72 -169 233 -111 118 -169 b 14 -97 40 -169 22 -144 b 4 -89 13 -92 8 -89 b -72 -194 -47 -89 -72 -156 b 74 -311 -72 -260 3 -311 b 588 458 369 -311 588 214 b 544 622 588 504 574 622 l 422 622 b 411 613 415 622 411 618 b 413 607 411 610 411 608 b 444 494 432 572 444 531 b 350 115 444 381 400 160 b 250 319 311 126 260 269 b 151 619 232 411 201 565 b 143 622 150 621 146 622 z m 626 458 b 74 -350 626 201 392 -350 b -101 -240 -3 -350 -72 -306 b 111 -387 -82 -336 -12 -387 b 664 421 429 -387 664 163 b 589 621 664 471 640 611 b 626 458 614 572 626 496 z m 288 325 b 343 171 293 292 319 208 b 353 194 347 174 350 185 b 239 581 307 308 306 482 b 201 617 226 599 217 610 b 288 325 246 542 271 410 z m 50 -86 b 72 -131 51 -115 63 -131 b 89 -128 75 -131 81 -129 b 50 -86 82 -110 61 -93 z "},"z":{"ha":692,"x_min":0,"x_max":0,"o":"m 464 0 b 610 119 575 0 610 47 b 554 221 610 160 585 221 b 543 215 549 221 544 218 b 424 142 522 167 482 142 l 279 142 l 494 438 b 585 581 526 472 585 514 b 543 640 585 597 569 640 b 458 622 535 640 508 622 l 83 622 b 74 613 78 622 74 618 l 74 490 b 83 481 74 483 78 481 l 354 481 l 6 4 b -6 -17 -1 -6 -6 -11 b 4 -22 -6 -21 -3 -22 b 46 -14 10 -22 19 -19 b 185 0 97 -4 147 0 z m 501 -76 b 686 82 643 -76 686 -14 b 618 214 686 125 656 192 b 647 119 636 185 647 149 b 464 -37 647 24 604 -37 l 185 -37 b 31 -56 144 -37 88 -44 b 1 -61 22 -58 10 -61 b -6 -60 -1 -61 -3 -61 b 46 -99 -1 -83 19 -99 b 222 -76 111 -83 178 -76 z m 622 581 b 524 413 622 485 539 433 l 356 181 l 421 181 l 563 376 b 661 543 594 421 661 454 b 604 635 661 567 640 618 b 622 581 617 614 622 596 z m 251 404 b 279 442 260 418 269 428 l 75 442 b 122 404 81 421 100 404 z "},"{":{"ha":499,"x_min":0,"x_max":0,"o":"m 353 -210 b 397 -196 374 -210 397 -208 b 378 -128 397 -185 397 -133 b 265 67 294 -108 265 -61 l 265 186 b 144 408 265 301 215 378 b 265 632 221 447 265 525 l 265 771 b 388 935 265 874 297 926 b 397 993 397 935 397 976 b 340 1015 397 1010 376 1015 b 111 832 213 1015 111 938 l 111 707 b 21 458 111 560 106 472 b 11 449 14 457 11 454 l 11 360 b 21 350 11 353 14 350 b 113 157 106 350 113 260 l 113 24 b 353 -210 113 -140 217 -210 z m 429 931 b 392 897 424 913 413 900 b 304 771 326 889 304 854 l 304 632 b 215 410 304 533 275 458 b 304 186 269 364 304 288 l 304 67 b 368 -83 304 -17 321 -62 b 342 28 343 -68 342 -22 l 342 147 b 263 385 342 239 310 338 b 342 594 311 425 342 499 l 342 733 b 429 858 342 815 364 851 b 474 964 474 864 474 921 b 435 1008 474 990 456 1004 b 436 993 436 1006 436 1001 b 429 931 436 974 432 938 z m 386 -286 b 474 -233 424 -286 474 -286 b 431 -131 474 -171 461 -142 b 436 -200 436 -149 436 -178 b 349 -247 436 -247 385 -247 b 167 -192 274 -247 214 -229 b 386 -286 215 -254 290 -286 z "},"|":{"ha":521,"x_min":0,"x_max":0,"o":"m 303 1004 b 294 1015 303 1011 300 1015 l 151 1015 b 142 1004 146 1015 142 1011 l 142 -231 b 151 -242 142 -237 146 -242 l 294 -242 b 303 -231 300 -242 303 -237 z m 379 967 b 340 1014 379 989 363 1010 l 340 -231 b 294 -279 340 -256 321 -279 l 143 -279 b 190 -318 147 -299 168 -318 l 332 -318 b 379 -269 358 -318 379 -293 z "},"}":{"ha":497,"x_min":0,"x_max":0,"o":"m 22 -196 b 76 -210 22 -210 54 -210 b 306 24 208 -210 306 -132 l 306 157 b 399 350 306 260 314 339 b 408 360 406 350 408 353 l 408 449 b 399 458 408 454 406 457 b 307 707 314 472 307 560 l 307 832 b 61 1015 307 938 208 1015 b 22 1000 44 1015 22 1010 l 24 944 b 32 935 24 939 26 935 b 154 771 124 926 154 874 l 154 632 b 275 408 154 525 199 447 b 154 186 203 378 154 303 l 154 67 b 31 -131 154 -57 122 -111 b 24 -142 26 -132 24 -135 z m 446 360 b 399 311 446 335 424 313 b 344 157 353 300 344 235 l 344 24 b 76 -247 344 -156 231 -247 b 22 -244 54 -247 38 -247 b 114 -286 29 -286 75 -286 b 382 -14 268 -286 382 -193 l 382 119 b 438 274 382 196 393 260 b 483 321 461 276 483 300 l 483 410 b 446 457 483 435 471 451 z m 346 832 l 346 707 b 399 497 346 583 349 513 b 383 668 383 531 383 588 l 383 794 b 306 953 383 883 364 922 b 346 832 332 918 346 878 z "},"~":{"ha":825,"x_min":0,"x_max":0,"o":"m 201 463 b 550 424 307 463 396 424 b 721 535 639 424 721 468 b 672 615 721 565 701 615 b 664 610 668 615 665 614 b 557 558 638 564 608 558 b 181 606 453 558 328 606 b 28 497 88 606 28 546 b 82 422 28 467 38 443 b 88 421 83 421 86 421 b 111 444 97 421 106 439 b 201 463 133 461 161 463 z m 201 424 b 86 383 132 424 126 383 b 40 401 65 383 54 390 b 119 347 51 385 82 347 b 240 386 158 347 169 386 b 588 347 376 386 436 347 b 796 514 679 347 796 411 b 738 608 796 543 790 590 b 758 535 753 579 758 549 b 550 385 758 446 642 385 b 201 424 428 385 317 424 z "},"":{"ha":432,"x_min":0,"x_max":0,"o":""},"":{"ha":365,"x_min":0,"x_max":0,"o":"m 153 -172 b 253 -136 199 -172 253 -164 b 193 551 201 -36 193 142 b 183 563 193 558 189 563 b 78 472 132 563 94 536 b 29 -65 47 358 29 69 b 153 -172 29 -103 67 -172 z m 265 714 b 131 824 265 786 221 824 b 25 714 61 824 25 786 b 161 615 25 649 71 615 b 265 714 231 615 265 649 z m 342 676 b 283 799 342 733 322 774 b 304 714 297 776 304 749 b 218 583 304 643 275 600 b 231 551 228 574 231 563 b 290 -128 231 147 240 -28 b 153 -211 290 -189 215 -211 b 57 -181 113 -211 82 -200 b 190 -249 75 -224 111 -249 b 329 -167 254 -249 329 -226 b 269 514 278 -65 269 110 b 257 546 269 524 263 536 b 342 676 314 564 342 607 z m 107 581 b 43 603 82 585 60 592 b 82 563 49 583 63 569 b 107 581 92 569 97 576 z "},"":{"ha":632,"x_min":0,"x_max":0,"o":"m 314 -22 b 393 44 358 -22 393 6 b 351 110 393 58 351 68 l 351 194 b 528 410 478 221 524 281 b 518 421 528 417 525 421 b 511 418 517 421 514 419 b 303 332 436 356 378 332 b 154 488 186 332 154 390 b 272 621 154 574 214 621 b 435 576 364 621 357 590 b 543 696 483 583 543 633 b 532 706 543 703 539 706 b 351 736 476 706 396 715 l 351 792 b 269 975 351 883 319 931 b 175 953 210 975 175 972 b 182 944 175 949 178 946 b 221 850 215 925 221 858 l 221 738 b 13 458 83 711 13 594 b 169 221 13 350 60 263 b 221 153 193 213 221 203 l 221 86 b 314 -22 221 40 268 -22 z m 351 -99 b 468 7 418 -99 468 -53 b 428 82 468 58 428 47 l 428 126 b 603 371 557 160 603 246 b 564 419 603 397 588 415 b 565 410 565 417 565 413 b 390 165 558 269 514 200 l 390 110 b 431 42 390 89 431 76 b 314 -61 431 -18 379 -61 b 254 -37 293 -61 274 -51 b 351 -99 279 -72 315 -99 z m 576 674 b 438 538 542 561 501 547 b 272 583 339 558 354 583 b 192 488 232 583 192 550 b 240 379 192 436 203 399 b 231 450 233 396 231 421 b 310 544 231 513 271 544 b 475 499 393 544 388 519 b 618 660 558 513 618 576 b 578 706 618 682 599 703 b 581 692 579 701 581 696 b 576 674 581 686 579 679 z m 390 792 l 390 761 b 428 751 401 757 417 754 b 329 965 428 878 403 931 b 390 792 368 921 390 869 z "},"":{"ha":865,"x_min":0,"x_max":0,"o":"m 347 518 b 290 583 306 518 290 532 b 418 832 290 742 321 832 b 628 746 539 832 565 746 b 765 964 679 746 749 847 b 754 975 765 971 761 975 b 733 964 746 975 739 968 b 626 936 689 943 657 936 b 439 975 556 936 536 975 b 129 565 168 975 129 749 b 24 364 129 481 24 497 b 32 353 24 357 26 353 b 38 354 35 353 36 353 b 158 376 67 368 101 376 b 194 331 188 376 194 356 b 138 142 194 224 192 168 b 22 -14 83 114 22 71 b 29 -24 22 -21 24 -24 l 33 -22 b 160 0 82 -7 124 0 l 611 0 b 757 142 707 0 757 67 b 732 222 757 168 747 222 b 724 218 729 222 726 221 b 553 142 683 169 644 142 l 364 142 b 356 297 356 172 356 213 b 440 376 356 357 369 376 l 510 376 b 613 546 586 376 613 451 b 603 557 613 553 608 557 b 596 554 600 557 597 556 b 492 518 564 525 528 518 z m 796 142 b 611 -37 796 46 732 -37 l 160 -37 b 22 -62 111 -37 72 -62 b 67 -100 25 -82 40 -100 b 199 -76 107 -100 153 -76 l 649 -76 b 833 104 769 -76 833 7 b 776 221 833 156 815 204 b 796 142 796 200 794 161 z m 768 851 b 628 707 725 742 681 707 b 418 794 550 707 526 794 b 329 583 350 794 329 721 b 347 557 329 563 333 557 l 367 557 b 456 756 368 683 390 756 b 665 669 564 756 588 669 b 796 790 715 669 753 699 b 840 926 814 831 840 882 b 803 974 840 956 826 972 b 768 851 801 940 783 889 z m 650 556 b 510 338 649 419 615 338 l 440 338 b 394 297 401 338 394 328 l 394 228 b 396 181 394 208 394 194 l 432 181 l 432 260 b 479 300 432 290 439 300 l 547 300 b 689 508 651 300 689 392 b 650 556 689 533 669 551 z m 156 297 l 156 335 b 136 339 150 338 142 339 b 32 315 89 339 67 315 l 24 315 b 69 276 28 290 43 276 b 156 297 83 276 111 290 z "},"":{"ha":915,"x_min":0,"x_max":0,"o":"m 89 279 b 99 271 89 274 93 271 l 332 271 l 332 10 b 342 0 332 4 335 0 l 483 0 b 493 10 489 0 493 4 l 493 271 l 692 271 b 703 279 699 271 703 274 l 703 401 b 692 411 703 408 699 411 l 508 411 l 840 931 b 847 946 844 936 847 943 b 838 953 847 950 843 953 l 676 953 b 667 947 671 953 668 951 l 415 529 l 161 947 b 153 953 160 951 157 953 l -7 953 b -19 944 -15 953 -19 950 b -14 933 -19 942 -18 938 l 317 411 l 99 411 b 89 401 93 411 89 408 z m 483 -37 l 332 -37 b 379 -76 335 -64 350 -76 l 521 -76 b 569 -28 553 -76 569 -60 l 569 194 l 731 194 b 779 242 754 194 779 221 l 779 364 b 740 410 779 383 760 406 l 740 279 b 692 232 740 260 717 232 l 531 232 l 531 10 b 483 -37 531 -22 514 -37 z m 911 871 b 924 908 919 885 922 894 b 885 951 924 932 911 947 b 872 910 885 931 882 924 l 575 447 l 638 447 z m 415 604 l 428 622 l 238 936 b 204 950 231 946 218 949 z m 89 233 b 138 194 94 215 115 194 l 300 194 l 301 232 l 99 232 b 89 233 93 232 90 232 z "},"":{"ha":521,"x_min":0,"x_max":0,"o":"m 303 1004 b 294 1015 303 1011 300 1015 l 151 1015 b 142 1004 146 1015 142 1011 l 142 603 b 151 592 142 596 146 592 l 294 592 b 303 603 300 592 303 596 z m 379 967 b 340 1014 379 989 363 1010 l 340 603 b 294 554 340 578 321 554 l 143 554 b 190 515 147 535 168 515 l 332 515 b 379 564 358 515 379 540 z m 303 171 b 294 182 303 178 300 182 l 151 182 b 142 171 146 182 142 178 l 142 -231 b 151 -242 142 -237 146 -242 l 294 -242 b 303 -231 300 -242 303 -237 z m 379 133 b 340 181 379 156 363 176 l 340 -231 b 294 -279 340 -256 321 -279 l 143 -279 b 190 -318 147 -299 168 -318 l 332 -318 b 379 -269 358 -318 379 -293 z "},"":{"ha":679,"x_min":0,"x_max":0,"o":"m 32 64 b 258 -22 115 64 201 -22 b 576 300 507 -22 576 171 b 511 436 576 371 546 411 b 578 603 546 478 578 546 b 415 781 578 710 522 781 b 267 764 353 781 333 764 b 199 840 228 764 199 804 b 251 901 199 876 226 901 b 399 842 310 901 349 842 b 535 960 456 842 535 907 b 525 971 535 967 531 971 b 311 1015 417 971 394 1015 b 57 799 142 1015 57 901 b 146 628 57 713 86 653 b 60 458 92 583 60 525 b 207 296 60 374 111 296 b 351 308 274 296 313 308 b 433 236 388 308 433 276 b 338 119 433 183 407 119 b 139 179 267 119 236 179 b 22 74 57 179 22 111 b 32 64 22 67 25 64 z m 25 25 b 69 -12 35 0 54 -12 b 296 -99 142 -12 226 -99 b 653 261 574 -99 653 118 b 604 415 653 324 633 383 b 654 565 633 457 654 511 b 579 736 654 638 626 697 b 617 603 603 700 617 656 b 563 442 617 549 594 492 b 615 300 592 410 615 364 b 258 -61 615 156 536 -61 b 25 25 186 -61 111 25 z m 269 443 b 201 518 231 443 201 483 b 246 618 201 558 215 589 b 350 629 290 622 319 629 b 431 558 385 629 431 600 b 399 458 431 528 421 493 b 269 443 319 444 297 443 z m 572 960 b 450 815 572 908 511 840 b 518 793 475 811 499 804 b 611 921 568 825 611 876 b 572 969 611 944 592 964 z m 394 232 b 351 271 394 257 371 271 b 207 258 313 271 278 258 b 101 290 165 258 131 268 b 246 219 133 246 181 219 b 394 232 317 219 358 232 z m 350 590 b 261 581 315 589 290 582 b 239 518 246 563 239 543 b 276 481 239 501 250 482 b 300 543 276 504 285 525 b 388 553 340 546 365 553 l 393 553 l 393 558 b 350 590 393 576 368 590 z m 335 810 l 354 813 b 251 864 319 828 283 864 b 236 840 242 864 236 856 b 267 801 236 821 247 801 l 275 801 b 290 826 275 818 279 826 b 335 810 304 826 319 818 z "},"":{"ha":667,"x_min":0,"x_max":0,"o":"m 583 915 b 600 849 594 900 600 876 b 465 708 600 756 556 708 b 331 754 403 708 357 724 b 503 671 350 701 407 671 b 638 811 593 671 638 718 b 583 915 638 858 619 894 z m 301 849 b 306 888 301 863 303 876 b 274 915 296 900 286 908 b 289 849 283 899 289 875 b 154 708 289 756 244 708 b 46 732 108 708 72 717 b 192 671 71 692 119 671 b 322 763 267 671 310 701 b 301 849 308 776 301 828 z m 339 849 b 465 747 339 781 381 747 b 561 849 529 747 561 781 b 436 942 561 910 519 942 b 339 849 371 942 339 910 z m 28 849 b 154 747 28 781 71 747 b 250 849 218 747 250 781 b 126 942 250 910 208 942 b 28 849 61 942 28 910 z "},"":{"ha":1008,"x_min":0,"x_max":0,"o":"m 433 -22 b 910 483 707 -22 910 171 b 494 975 910 725 765 975 b 24 454 185 975 24 763 b 433 -22 24 185 183 -22 z m 465 857 b 785 447 713 857 785 626 b 460 93 785 276 649 93 b 149 493 247 93 149 272 b 465 857 149 707 292 857 z m 471 -99 b 986 444 767 -99 986 111 b 811 871 986 676 931 796 b 947 483 901 768 947 626 b 433 -61 947 149 729 -61 b 156 36 321 -61 229 -25 b 471 -99 228 -50 301 -99 z m 465 819 b 186 493 313 819 186 683 b 301 183 186 361 224 247 b 222 468 238 265 222 371 b 503 781 222 672 367 781 b 714 633 619 781 678 729 b 465 819 676 738 596 819 z m 483 710 b 265 460 356 710 265 628 b 483 217 265 331 338 217 b 651 400 581 217 651 290 b 644 408 651 406 649 408 b 639 406 643 408 640 407 b 499 322 588 347 539 322 b 386 483 397 322 386 397 b 483 604 386 547 422 604 b 610 578 569 604 585 578 b 621 588 615 578 619 579 l 640 653 b 483 710 640 693 535 710 z "},"":{"ha":453,"x_min":0,"x_max":0,"o":"m 203 906 b 72 856 147 906 99 883 l 72 788 b 79 782 72 785 75 782 b 186 825 83 782 139 825 b 246 792 226 825 246 814 b 151 728 246 758 204 747 b 28 589 76 700 28 661 b 136 482 28 542 57 482 b 272 535 217 482 251 535 b 300 482 290 535 290 482 b 374 496 324 482 374 482 l 374 567 b 353 592 374 576 353 568 l 353 740 b 203 906 353 867 307 906 z m 376 740 l 376 596 b 399 567 388 590 399 586 l 399 496 b 296 457 399 461 324 457 b 325 432 299 444 313 432 b 422 472 356 432 422 439 l 422 542 b 400 571 422 560 413 567 l 400 715 b 344 878 400 819 386 854 b 376 740 367 847 376 806 z m 251 653 b 158 563 251 608 199 563 b 121 596 129 563 121 576 b 251 685 121 651 208 678 z m 269 490 b 271 510 269 496 271 501 b 136 457 253 497 211 457 b 56 481 101 457 76 465 b 161 432 69 450 100 432 b 276 471 217 432 250 453 b 269 490 271 478 269 485 z m 65 760 b 99 732 69 749 82 735 b 208 778 128 744 171 775 b 221 792 218 782 221 788 b 186 801 221 797 210 801 b 78 757 133 801 90 757 b 65 760 71 757 69 758 z m 176 590 b 228 654 192 610 228 618 b 144 596 190 643 144 626 b 158 586 144 589 149 586 b 176 590 165 586 171 588 z "},"":{"ha":665,"x_min":0,"x_max":0,"o":"m 250 539 b 142 419 244 513 229 469 b 22 292 93 392 22 332 b 33 282 22 286 25 282 b 160 224 63 282 103 269 b 254 163 224 172 233 163 b 326 235 285 163 326 206 b 315 244 326 242 322 244 b 300 242 306 243 301 242 b 168 333 256 246 217 306 b 286 472 256 383 286 426 b 260 546 286 493 278 546 b 250 539 257 546 251 543 z m 585 188 b 490 125 558 147 528 125 b 357 204 468 125 426 133 b 254 125 332 150 294 125 b 138 193 228 125 206 136 b 14 244 68 250 49 236 b 71 206 32 231 35 206 b 174 150 96 206 126 188 b 292 86 238 99 267 86 b 392 160 332 86 365 110 b 528 86 426 128 474 86 b 639 197 582 86 639 147 b 600 243 639 226 624 239 b 585 188 600 221 596 206 z m 560 472 b 471 332 560 425 531 379 l 513 294 b 599 435 567 339 599 389 b 547 542 599 472 588 531 b 560 472 557 519 560 497 z m 324 472 b 311 421 324 454 319 438 l 361 453 b 311 542 361 482 346 535 b 324 472 319 519 324 497 z m 486 539 b 378 419 481 513 465 469 b 258 292 329 392 258 332 b 269 282 258 286 261 282 b 396 224 299 282 339 269 b 490 163 460 172 469 163 b 563 235 521 163 563 206 b 551 244 563 242 558 244 b 536 242 542 243 538 242 b 404 333 492 246 454 306 b 522 472 492 383 522 426 b 497 546 522 493 514 546 b 486 539 493 546 488 543 z "},"":{"ha":1008,"x_min":0,"x_max":0,"o":"m 433 -22 b 910 483 707 -22 910 171 b 494 975 910 725 765 975 b 24 454 185 975 24 763 b 433 -22 24 185 183 -22 z m 465 857 b 785 447 713 857 785 626 b 460 93 785 276 649 93 b 149 493 247 93 149 272 b 465 857 149 707 292 857 z m 471 -99 b 986 444 767 -99 986 111 b 811 871 986 676 931 796 b 947 483 901 768 947 626 b 433 -61 947 149 729 -61 b 156 36 321 -61 229 -25 b 471 -99 228 -50 301 -99 z m 465 819 b 186 493 313 819 186 683 b 301 183 186 361 224 247 b 222 468 238 265 222 371 b 503 781 222 672 367 781 b 714 633 619 781 678 729 b 465 819 676 738 596 819 z m 396 394 b 471 414 396 414 446 410 b 638 214 533 360 544 214 b 693 233 656 214 693 219 l 693 283 b 689 289 693 288 692 289 b 667 285 681 289 674 285 b 547 443 594 285 600 388 b 617 579 594 474 617 519 b 461 713 617 656 547 713 b 315 660 399 713 315 682 l 315 231 b 321 225 315 228 318 225 l 392 225 b 396 231 394 225 396 228 z m 458 642 b 536 564 504 642 536 608 b 429 479 536 493 474 479 l 396 479 l 396 626 b 458 642 410 636 436 642 z "},"":{"ha":568,"x_min":0,"x_max":0,"o":"m 32 797 b 42 789 32 790 36 789 l 450 789 b 460 797 456 789 460 790 l 460 885 b 450 894 460 890 456 894 l 42 894 b 32 885 36 894 32 890 z m 499 885 l 499 797 b 450 750 499 776 474 750 l 42 750 b 32 751 38 750 33 750 b 81 713 38 732 58 713 l 488 713 b 536 760 513 713 536 739 l 536 846 b 497 893 536 867 517 889 b 499 885 499 890 499 889 z "},"":{"ha":660,"x_min":0,"x_max":0,"o":"m 122 703 b 289 869 122 797 192 869 b 457 703 385 869 457 797 b 289 533 457 606 385 533 b 122 703 192 533 122 606 z m 22 703 b 289 435 22 550 142 435 b 561 703 438 435 561 550 b 289 975 561 849 438 975 b 22 703 142 975 22 849 z m 600 703 b 289 396 600 529 457 396 b 94 464 214 396 146 419 b 326 358 143 394 214 358 b 638 664 496 358 638 492 b 528 897 638 781 599 840 b 600 703 572 842 600 775 z m 199 664 b 326 793 199 736 250 793 b 397 772 351 793 376 786 b 289 831 374 807 335 831 b 160 703 213 831 160 775 b 217 592 160 656 182 617 b 199 664 204 611 199 635 z "},"":{"ha":668,"x_min":0,"x_max":0,"o":"m 231 246 b 240 235 231 239 233 235 l 363 235 b 372 246 368 235 372 239 l 372 442 l 569 442 b 579 451 575 442 579 444 l 579 572 b 569 583 579 579 575 583 l 372 583 l 372 779 b 363 789 372 785 368 789 l 240 789 b 231 779 233 789 231 785 l 231 583 l 36 583 b 25 572 29 583 25 579 l 25 451 b 36 442 25 444 29 442 l 231 442 z m 618 572 l 618 451 b 569 404 618 424 593 404 l 410 404 l 410 246 b 363 197 410 221 386 197 l 231 197 b 278 158 236 175 257 158 l 400 158 b 449 207 424 158 449 183 l 449 365 l 607 365 b 656 413 632 365 656 386 l 656 535 b 617 582 656 556 636 576 b 618 572 618 579 618 576 z m 192 404 l 36 404 b 8 410 26 404 18 407 b 74 365 32 396 40 365 l 192 365 z m 410 779 l 410 621 l 449 621 l 449 740 b 410 788 449 761 429 782 z m 51 -22 l 585 -22 b 594 -12 590 -22 594 -19 l 594 108 b 585 119 594 115 590 119 l 51 119 b 40 108 44 119 40 115 l 40 -12 b 51 -22 40 -19 46 -22 z m 585 -60 l 31 -60 b 89 -99 49 -85 67 -99 l 622 -99 b 671 -51 647 -99 671 -78 l 671 71 b 632 118 671 92 651 113 l 632 -12 b 585 -60 632 -40 608 -60 z "},"":{"ha":539,"x_min":0,"x_max":0,"o":"m 139 335 b 317 319 201 335 258 319 b 439 442 403 319 439 382 b 389 529 439 471 422 500 b 382 532 385 531 383 532 b 374 525 378 532 375 529 b 311 458 360 475 340 458 l 211 458 b 419 785 271 547 419 674 b 238 961 419 906 325 961 b 35 756 132 961 38 847 b 119 697 46 724 78 697 b 192 728 126 697 192 707 b 171 800 192 743 171 779 b 218 858 171 835 186 858 b 269 797 249 858 269 826 b 71 435 269 649 156 543 b 22 329 49 406 22 350 b 31 319 22 322 25 319 b 139 335 49 319 68 335 z m 443 524 b 476 442 465 494 476 468 b 317 281 476 364 429 281 b 139 296 196 281 203 296 b 40 285 97 296 72 285 b 22 288 33 285 26 286 b 79 246 31 261 51 246 b 176 258 101 246 136 258 b 354 243 244 258 233 243 b 514 407 469 243 514 326 b 443 524 514 475 492 503 z m 408 561 b 496 764 479 647 496 683 b 417 915 496 829 464 888 b 457 785 442 882 457 840 b 326 544 457 708 439 679 b 286 497 292 503 300 521 l 311 497 b 382 571 329 497 336 571 b 408 561 392 571 399 565 z m 210 693 b 119 660 179 669 143 660 b 51 679 94 660 71 665 b 157 621 64 638 97 621 b 210 693 185 621 201 676 z "},"":{"ha":514,"x_min":0,"x_max":0,"o":"m 228 961 b 22 761 140 961 51 900 b 100 707 46 722 68 707 b 197 749 126 707 160 722 b 201 756 200 751 201 753 b 196 765 201 760 200 763 b 156 800 165 781 156 796 b 196 860 156 826 167 860 b 247 790 228 860 247 835 b 117 654 247 708 172 668 b 110 643 111 653 110 649 b 171 582 113 608 136 582 b 233 606 206 582 224 606 b 272 500 261 606 272 533 b 215 421 272 464 256 421 b 154 494 174 421 154 444 b 169 539 154 503 156 514 b 171 543 171 540 171 542 b 158 554 171 550 167 554 b 24 478 88 549 35 513 b 190 319 24 440 74 319 b 414 553 328 319 414 465 b 329 683 414 624 385 654 b 382 811 350 707 382 756 b 228 961 382 918 282 961 z m 421 811 b 385 696 421 767 404 726 b 453 553 425 665 453 624 b 190 281 453 450 350 281 b 78 319 146 281 108 293 b 229 243 97 272 139 243 b 490 514 388 243 490 411 b 429 671 490 611 467 633 b 458 772 449 700 458 731 b 386 917 458 861 431 900 b 421 811 407 888 421 856 z "},"":{"ha":442,"x_min":0,"x_max":0,"o":"m 361 921 b 390 840 379 897 390 871 b 346 794 390 804 371 797 b 138 742 275 785 201 765 b 42 710 97 726 78 713 b 93 672 61 674 74 672 b 115 676 97 672 107 672 b 383 756 197 718 288 742 b 428 803 410 763 428 774 b 361 921 428 860 403 903 z m 272 942 b 26 815 176 942 88 876 b 21 804 22 811 21 808 b 24 793 21 801 22 797 l 46 753 b 54 749 47 750 50 749 b 72 756 58 749 68 753 b 343 832 154 796 246 819 b 351 840 350 833 351 838 b 272 942 351 890 306 942 z "},"":{"ha":797,"x_min":0,"x_max":0,"o":"m 311 -7 b 376 111 349 13 376 47 l 376 808 b 424 826 376 822 385 826 b 492 808 461 826 492 822 l 492 160 b 681 -22 492 35 522 -22 b 692 -12 688 -22 692 -19 b 688 -4 692 -8 690 -7 b 592 185 613 49 592 122 l 592 793 b 692 943 592 857 689 865 b 682 953 692 949 689 953 l 163 953 b 15 839 50 953 15 903 b 126 726 15 774 63 726 b 233 782 156 726 192 743 b 263 800 246 794 256 800 b 275 751 271 800 275 783 l 275 125 b 256 -8 275 69 275 36 b 254 -14 254 -10 254 -12 b 264 -22 254 -21 258 -22 b 311 -7 279 -22 306 -8 z m 731 942 b 631 793 726 850 631 826 l 631 185 b 701 33 631 133 646 75 b 668 146 675 67 668 110 l 668 754 b 768 903 668 786 768 811 b 729 951 768 932 756 947 b 731 942 731 950 731 947 z m 275 -85 b 310 -99 285 -94 296 -99 b 468 44 381 -99 458 -22 b 454 160 457 76 454 111 l 454 800 b 414 797 438 800 424 799 l 414 111 b 276 -60 414 -6 349 -39 b 268 -61 275 -61 274 -61 b 258 -60 261 -61 260 -61 b 267 -74 261 -67 263 -69 z m 725 7 b 729 -12 728 0 729 -7 b 681 -61 729 -37 711 -61 b 521 -28 604 -61 556 -50 b 697 -99 553 -79 594 -99 b 767 -51 728 -99 767 -75 b 725 7 767 -26 751 -21 z m 236 733 b 126 689 196 701 161 689 b 40 714 94 689 65 697 b 165 650 67 675 111 650 b 236 669 186 650 211 657 z "},"":{"ha":364,"x_min":0,"x_max":0,"o":"m 24 479 b 160 369 24 407 69 369 b 264 479 231 369 264 407 b 129 578 264 544 219 578 b 24 479 60 578 24 544 z m 303 479 b 160 332 303 381 256 332 b 44 358 111 332 72 340 b 199 293 68 311 121 293 b 340 440 293 293 340 343 b 286 550 340 492 325 531 b 303 479 297 529 303 506 z "},"":{"ha":301,"x_min":0,"x_max":0,"o":"m 68 -142 b 58 -151 63 -142 58 -144 b 67 -207 58 -157 67 -175 b 22 -342 67 -286 44 -319 b 33 -353 22 -349 26 -353 b 210 -196 140 -353 210 -250 b 144 -142 210 -167 194 -142 z m 247 -196 b 33 -390 247 -257 163 -390 b 22 -389 28 -390 24 -390 b 71 -429 28 -415 50 -429 b 286 -233 201 -429 286 -294 b 240 -156 286 -201 275 -171 b 247 -196 246 -168 247 -182 z "},"":{"ha":350,"x_min":0,"x_max":0,"o":"m 182 961 b 7 836 110 943 7 871 b 64 825 7 826 35 825 l 111 825 l 111 383 b 122 374 111 378 115 374 l 232 374 b 243 383 239 374 243 378 l 243 804 b 189 960 243 894 231 933 z m 246 953 b 281 804 271 918 281 875 l 281 383 b 232 335 281 360 257 335 l 113 335 b 160 297 118 314 139 297 l 271 297 b 319 358 292 297 319 329 l 319 767 b 246 953 319 885 304 922 z m 7 790 b 74 751 11 764 43 754 b 78 788 74 768 75 781 b 60 786 74 786 67 786 l 43 786 b 7 790 29 786 18 788 z "},"":{"ha":483,"x_min":0,"x_max":0,"o":"m 226 906 b 29 682 115 906 29 843 b 226 481 29 571 107 481 b 422 704 335 481 422 543 b 226 906 422 815 344 906 z m 319 671 b 226 572 319 611 285 572 b 133 715 156 572 133 629 b 217 814 133 775 168 814 b 319 671 297 814 319 757 z m 447 704 b 226 456 447 526 350 456 b 83 504 169 456 122 474 b 250 431 114 453 179 431 b 472 679 374 431 472 501 b 397 851 472 749 450 815 b 447 704 431 813 447 760 z m 217 789 b 158 715 183 789 158 760 b 199 603 158 658 168 618 b 182 692 188 624 182 653 b 242 765 182 736 208 765 b 278 757 256 765 268 763 b 217 789 267 776 246 789 z "},"":{"ha":651,"x_min":0,"x_max":0,"o":"m 315 129 b 357 92 319 115 335 92 b 511 224 419 92 364 117 b 639 378 567 264 639 319 b 601 426 639 407 624 425 b 603 414 603 424 603 419 b 479 265 603 356 521 293 b 315 129 319 161 399 138 z m 275 288 b 79 129 81 161 163 138 b 121 92 82 115 99 92 b 264 215 186 92 140 122 b 260 231 261 219 260 225 b 275 288 260 250 269 276 z m 115 376 b 49 429 93 394 75 424 b 38 426 46 428 42 426 b 25 428 32 426 28 426 b 76 389 29 399 50 389 b 86 392 82 389 83 390 b 111 374 96 388 101 382 z m 339 171 b 449 290 346 197 361 239 b 568 417 497 318 568 378 b 429 485 568 428 503 425 b 335 546 365 536 356 546 b 263 474 306 546 263 503 b 275 465 263 468 267 465 b 290 468 285 467 289 468 b 422 376 335 464 372 403 b 304 236 335 325 304 282 b 329 163 304 215 311 163 b 339 171 333 163 338 165 z m 103 171 b 213 290 110 197 125 239 b 332 417 260 318 332 378 b 193 485 332 428 267 425 b 99 546 129 536 119 546 b 26 474 68 546 26 503 b 38 465 26 468 31 465 b 53 468 49 467 51 468 b 186 376 97 464 136 403 b 67 236 97 325 67 282 b 93 163 67 215 75 163 b 103 171 97 163 101 165 z "},"":{"ha":1011,"x_min":0,"x_max":0,"o":"m 736 975 b 454 536 575 975 499 636 b 156 171 364 338 319 171 b 140 111 142 171 140 133 b 236 -17 140 36 175 -17 b 535 493 383 -17 479 346 b 825 872 592 642 674 842 b 832 882 829 874 832 876 b 736 975 832 918 765 975 z m 851 129 b 911 201 893 129 911 167 b 892 249 911 217 906 249 b 853 238 878 249 864 238 b 835 267 843 238 835 246 l 835 486 b 854 558 835 514 835 533 b 856 564 856 558 856 561 b 772 618 856 593 810 618 b 689 554 735 618 707 590 l 478 146 b 476 142 476 144 476 143 b 486 131 476 135 481 131 l 692 131 b 713 113 707 131 713 125 l 713 10 b 722 0 713 4 717 0 l 825 0 b 835 10 831 0 835 4 l 835 113 b 851 129 835 122 838 129 z m 194 961 b 21 836 119 942 51 890 b 76 825 21 826 47 825 l 125 825 l 125 383 b 135 374 125 378 128 374 l 246 374 b 256 383 251 374 256 378 l 256 804 b 201 960 256 894 243 933 z m 844 943 b 869 882 858 924 869 903 b 831 836 869 861 856 842 b 483 242 644 797 560 449 b 710 663 613 500 661 588 b 869 797 753 731 804 783 b 907 843 894 803 907 825 b 844 943 907 883 879 917 z m 260 953 b 293 804 283 918 293 875 l 293 383 b 246 335 293 360 269 335 l 126 335 b 172 297 131 314 151 297 l 283 297 b 332 358 306 297 332 329 l 332 767 b 260 953 332 889 317 926 z m 988 164 b 940 247 988 200 975 238 b 949 201 946 231 949 214 b 872 93 949 153 928 103 l 872 10 b 825 -37 872 -14 849 -37 l 714 -37 b 761 -76 719 -57 739 -76 l 863 -76 b 911 -28 886 -76 911 -51 l 911 54 b 988 164 961 67 988 117 z m 439 138 b 235 -54 385 31 319 -54 b 167 -37 208 -54 186 -49 b 274 -93 190 -71 226 -93 b 474 94 350 -93 424 -7 b 439 138 453 97 439 113 z m 885 593 b 894 564 892 585 894 574 b 872 486 894 539 872 521 l 872 285 b 892 288 882 286 888 288 b 911 282 897 288 903 286 l 911 449 b 932 526 911 481 932 501 b 885 593 932 563 917 582 z m 713 249 b 710 240 713 243 711 240 l 632 240 l 713 418 z m 675 93 l 476 93 b 525 54 482 67 499 54 l 675 54 z m 21 790 b 86 751 24 764 56 754 b 90 788 86 768 88 781 b 72 786 83 786 79 786 l 56 786 b 21 790 42 786 31 788 z "},"":{"ha":1065,"x_min":0,"x_max":0,"o":"m 564 -14 b 664 0 583 -4 631 0 b 842 -17 746 0 740 -17 b 964 107 929 -17 964 47 b 907 199 964 125 935 199 b 900 190 903 199 900 196 b 838 125 885 142 867 125 l 736 125 b 915 354 771 186 885 304 b 944 450 933 385 944 419 b 764 626 944 571 854 626 b 560 422 658 626 564 514 b 646 364 572 388 603 364 b 718 393 650 364 718 374 b 717 397 718 394 718 396 b 696 467 706 417 696 446 b 744 525 696 500 713 525 b 796 463 775 525 796 492 b 597 99 796 315 682 206 b 550 -6 572 68 550 17 b 564 -14 550 -11 554 -14 z m 738 975 b 454 536 576 975 500 636 b 156 171 364 336 324 171 b 142 111 143 171 142 133 b 238 -17 142 36 176 -17 b 536 493 383 -17 481 346 b 826 872 593 642 675 842 b 833 882 831 874 833 876 b 738 975 833 901 767 975 z m 196 961 b 22 836 122 942 51 890 b 78 825 22 826 49 825 l 126 825 l 126 383 b 136 374 126 378 129 374 l 246 374 b 257 383 253 374 257 378 l 257 804 b 203 960 257 894 244 933 z m 538 385 b 238 -54 476 206 385 -54 b 169 -37 211 -54 188 -49 b 275 -93 193 -71 229 -93 b 575 346 418 -93 514 168 b 538 385 563 354 550 367 z m 260 953 b 294 804 285 918 294 875 l 294 383 b 246 335 294 360 271 335 l 126 335 b 174 297 132 314 153 297 l 285 297 b 333 358 306 297 333 329 l 333 767 b 260 953 333 888 313 922 z m 1003 107 b 842 -54 1003 28 956 -54 b 664 -37 724 -54 731 -37 b 565 -51 618 -37 574 -51 b 550 -49 561 -51 557 -50 b 604 -89 553 -72 565 -89 b 703 -76 614 -89 656 -76 b 881 -93 769 -76 768 -93 b 1040 68 993 -93 1040 -10 b 967 193 1040 99 1010 176 b 1003 107 989 164 1003 136 z m 871 882 b 833 836 871 861 858 842 b 625 607 738 817 676 714 b 708 656 650 629 678 647 b 871 797 753 726 807 783 b 910 843 897 803 910 825 b 849 942 910 888 892 928 b 871 882 863 922 871 901 z m 943 581 b 983 450 968 546 983 504 b 853 213 983 376 947 324 l 825 182 b 811 163 821 178 818 174 l 838 163 b 908 236 856 163 863 236 b 933 228 914 236 922 236 b 1021 411 999 304 1021 350 b 943 581 1021 510 997 550 z m 736 360 b 646 325 706 335 664 325 b 576 344 618 325 596 332 b 692 288 597 307 625 288 b 736 360 707 288 729 325 z m 22 790 b 88 751 25 764 57 754 b 92 788 88 768 89 781 b 74 786 85 786 81 786 l 57 786 b 22 790 43 786 32 788 z "},"":{"ha":1036,"x_min":0,"x_max":0,"o":"m 229 961 b 22 761 142 961 53 900 b 101 707 47 722 69 707 b 199 749 128 707 161 722 b 201 756 200 750 201 751 b 197 765 201 760 200 763 b 156 800 167 781 156 796 b 197 860 156 826 168 860 b 249 790 229 860 249 835 b 118 654 249 708 174 668 b 111 643 113 653 111 649 b 172 582 114 608 138 582 b 235 606 207 582 225 606 b 274 500 263 606 274 533 b 217 421 274 464 257 421 b 156 494 175 421 156 444 b 171 539 156 503 156 514 l 171 543 b 160 554 171 550 168 554 b 24 478 89 549 36 513 b 192 319 24 440 75 319 b 415 553 329 319 415 465 b 331 683 415 624 386 654 b 383 811 351 707 383 756 b 229 961 383 918 283 961 z m 763 975 b 503 608 621 975 556 739 l 417 394 b 181 171 364 264 303 171 b 164 129 169 171 164 151 l 164 111 b 260 -17 164 36 201 -17 b 558 493 408 -17 504 344 b 850 872 614 644 699 842 b 856 882 854 874 856 878 b 763 975 856 931 789 975 z m 876 129 b 936 201 918 129 936 167 b 917 249 936 217 931 249 b 879 238 903 249 890 238 b 860 267 869 238 860 246 l 860 486 b 881 558 860 514 861 533 b 883 564 882 558 883 561 b 797 618 883 593 835 618 b 715 554 763 618 736 593 l 503 146 b 501 142 501 144 501 143 b 513 131 501 135 506 131 l 719 131 b 738 113 735 131 738 125 l 738 10 b 749 0 738 4 742 0 l 851 0 b 860 10 857 0 860 4 l 860 113 b 876 129 860 122 863 129 z m 894 882 b 857 836 894 861 879 844 b 592 468 725 810 646 608 b 518 260 564 396 544 329 l 681 572 b 896 797 732 672 806 778 b 932 843 917 807 932 824 b 858 958 932 914 908 944 b 894 882 879 936 894 911 z m 700 93 l 513 93 b 464 133 483 93 467 107 b 260 -54 410 28 344 -54 b 192 -36 233 -54 211 -47 b 299 -93 208 -72 236 -93 b 501 93 378 -93 447 -8 b 550 54 506 67 522 54 l 700 54 z m 1013 164 b 965 247 1013 201 999 236 b 975 201 972 231 975 214 b 899 93 975 153 953 103 l 899 10 b 851 -37 899 -14 871 -37 l 739 -37 b 786 -76 744 -57 765 -76 l 889 -76 b 936 -28 910 -76 936 -51 l 936 54 b 1013 164 988 67 1013 117 z m 921 564 b 907 531 921 550 914 538 l 911 533 b 899 486 900 518 899 506 l 899 285 b 917 288 907 286 914 288 b 936 282 922 288 929 286 l 936 449 b 949 496 936 468 938 481 b 946 494 947 496 947 496 b 960 526 953 503 960 514 b 914 592 960 551 939 575 b 921 564 918 583 921 572 z m 422 811 b 386 696 422 767 406 726 b 453 572 424 667 449 629 l 471 622 b 433 669 458 644 446 660 b 460 772 439 683 460 731 b 388 917 460 839 428 886 b 422 811 408 888 422 856 z m 347 342 b 192 281 306 306 253 281 b 78 318 142 281 107 296 b 231 243 97 275 129 243 b 276 247 246 243 261 244 b 347 342 301 268 322 303 z m 738 249 b 732 240 738 243 736 240 l 658 240 l 738 418 z "},"":{"ha":626,"x_min":0,"x_max":0,"o":"m 410 501 b 336 543 410 529 386 543 b 249 460 272 543 249 543 l 249 424 b 99 281 249 381 163 342 b 15 101 43 228 15 174 b 267 -172 15 -15 51 -172 b 531 71 444 -172 531 -57 b 407 211 531 146 483 211 l 350 211 b 339 201 343 211 339 207 b 340 196 339 199 339 197 b 371 85 360 157 371 108 b 268 -56 371 32 335 -56 b 188 101 193 -56 188 36 b 274 249 188 161 215 210 b 410 464 394 329 410 365 z m 433 714 b 297 824 433 786 388 824 b 193 714 228 824 193 786 b 328 615 193 649 238 615 b 433 714 397 615 433 649 z m 569 71 b 267 -211 569 -76 469 -211 b 76 -156 181 -211 121 -190 b 306 -249 108 -224 163 -249 b 607 32 508 -249 607 -115 b 536 182 607 106 589 157 b 569 71 558 150 569 113 z m 449 501 l 449 464 b 342 250 449 363 433 317 l 424 250 b 486 426 474 299 486 346 l 486 463 b 443 529 486 494 472 517 b 449 501 447 522 449 514 z m 510 676 b 451 797 510 733 490 776 b 471 714 465 772 471 749 b 364 579 471 635 436 590 b 431 549 394 576 417 565 b 510 676 481 568 510 611 z m 307 225 b 226 101 293 221 226 196 b 271 -17 226 51 229 -17 b 264 64 265 4 264 39 b 311 161 264 103 279 136 b 301 204 306 179 301 193 b 307 225 301 211 304 219 z "},"":{"ha":957,"x_min":0,"x_max":0,"o":"m 476 975 b 18 185 167 975 18 481 b 53 0 18 90 33 0 l 188 0 b 199 13 196 0 199 3 b 181 181 199 38 181 65 b 236 292 181 260 189 292 l 600 292 b 654 213 657 292 651 243 b 725 0 661 140 674 0 l 871 0 b 879 14 879 0 879 7 b 476 975 740 329 831 975 z m 461 833 b 619 444 563 833 619 629 b 597 426 619 433 606 426 l 256 426 b 228 444 242 426 228 429 b 461 833 228 611 354 833 z m 828 424 b 917 21 850 279 868 129 b 871 -37 917 -7 917 -37 l 710 -37 b 754 -76 724 -64 738 -76 l 908 -76 b 956 -18 956 -76 956 -44 b 867 385 904 104 888 238 b 692 906 821 711 797 839 b 828 424 776 789 801 607 z m 614 232 b 600 254 614 243 614 254 l 236 254 b 218 182 222 254 218 231 b 236 15 218 79 236 53 b 188 -37 236 -22 218 -37 l 51 -37 b 92 -76 64 -64 76 -76 l 226 -76 b 275 -19 257 -76 275 -61 b 257 146 275 22 257 50 b 275 215 257 192 261 215 l 615 215 z m 488 761 b 525 746 504 761 517 753 b 465 796 511 779 493 796 b 265 465 372 796 274 608 l 304 465 b 488 761 329 608 414 761 z m 329 1279 b 253 1178 294 1279 253 1225 b 261 1169 253 1174 254 1171 b 539 1089 364 1156 458 1131 b 549 1086 543 1089 544 1086 b 560 1094 551 1086 556 1089 l 582 1133 b 583 1140 582 1138 583 1139 b 574 1156 583 1147 578 1151 l 543 1182 b 329 1279 481 1235 406 1271 z m 586 1010 b 626 1032 599 1010 617 1014 l 656 1083 b 660 1103 658 1089 660 1096 b 617 1157 660 1128 639 1147 b 624 1138 621 1153 624 1147 b 613 1114 624 1133 618 1124 l 592 1074 b 549 1047 583 1057 565 1047 b 501 1064 529 1047 515 1058 b 243 1135 410 1104 319 1125 b 297 1093 253 1121 263 1099 b 564 1014 393 1079 482 1056 b 586 1010 572 1010 582 1010 z "},"":{"ha":957,"x_min":0,"x_max":0,"o":"m 476 975 b 18 185 167 975 18 481 b 53 0 18 90 33 0 l 188 0 b 199 13 196 0 199 3 b 181 181 199 38 181 65 b 236 292 181 260 189 292 l 600 292 b 654 213 657 292 651 243 b 725 0 661 140 674 0 l 871 0 b 879 14 879 0 879 7 b 476 975 740 329 831 975 z m 461 833 b 619 444 563 833 619 629 b 597 426 619 433 606 426 l 256 426 b 228 444 242 426 228 429 b 461 833 228 611 354 833 z m 828 424 b 917 21 850 279 868 129 b 871 -37 917 -7 917 -37 l 710 -37 b 754 -76 724 -64 738 -76 l 908 -76 b 956 -18 956 -76 956 -44 b 867 385 904 104 888 238 b 692 906 821 711 797 839 b 828 424 776 789 801 607 z m 614 232 b 600 254 614 243 614 254 l 236 254 b 218 182 222 254 218 231 b 236 15 218 79 236 53 b 188 -37 236 -22 218 -37 l 51 -37 b 92 -76 64 -64 76 -76 l 226 -76 b 275 -19 257 -76 275 -61 b 257 146 275 22 257 50 b 275 215 257 192 261 215 l 615 215 z m 488 761 b 525 746 504 761 517 753 b 465 796 511 779 493 796 b 265 465 372 796 274 608 l 304 465 b 488 761 329 608 414 761 z m 640 1258 b 669 1178 658 1235 669 1208 b 625 1132 669 1142 650 1135 b 417 1079 554 1122 481 1103 b 321 1047 376 1064 357 1050 b 372 1010 340 1011 353 1010 b 394 1014 376 1010 386 1010 b 663 1093 476 1056 567 1079 b 707 1140 689 1100 707 1111 b 640 1258 707 1197 682 1240 z m 551 1279 b 306 1153 456 1279 367 1214 b 300 1142 301 1149 300 1146 b 303 1131 300 1139 301 1135 l 325 1090 b 333 1086 326 1088 329 1086 b 351 1093 338 1086 347 1090 b 622 1169 433 1133 525 1157 b 631 1178 629 1171 631 1175 b 551 1279 631 1228 585 1279 z "},"":{"ha":957,"x_min":0,"x_max":0,"o":"m 476 975 b 18 185 167 975 18 481 b 53 0 18 90 33 0 l 188 0 b 199 13 196 0 199 3 b 181 181 199 38 181 65 b 236 292 181 260 189 292 l 600 292 b 654 213 657 292 651 243 b 725 0 661 140 674 0 l 871 0 b 879 14 879 0 879 7 b 476 975 740 329 831 975 z m 461 833 b 619 444 563 833 619 629 b 597 426 619 433 606 426 l 256 426 b 228 444 242 426 228 429 b 461 833 228 611 354 833 z m 828 424 b 917 21 850 279 868 129 b 871 -37 917 -7 917 -37 l 710 -37 b 754 -76 724 -64 738 -76 l 908 -76 b 956 -18 956 -76 956 -44 b 867 385 904 104 888 238 b 692 906 821 711 797 839 b 828 424 776 789 801 607 z m 614 232 b 600 254 614 243 614 254 l 236 254 b 218 182 222 254 218 231 b 236 15 218 79 236 53 b 188 -37 236 -22 218 -37 l 51 -37 b 92 -76 64 -64 76 -76 l 226 -76 b 275 -19 257 -76 275 -61 b 257 146 275 22 257 50 b 275 215 257 192 261 215 l 615 215 z m 488 761 b 525 746 504 761 517 753 b 465 796 511 779 493 796 b 265 465 372 796 274 608 l 304 465 b 488 761 329 608 414 761 z m 390 1279 b 381 1271 386 1279 382 1276 b 260 1125 360 1208 306 1156 b 256 1117 257 1122 256 1119 b 306 1086 256 1096 272 1086 b 415 1182 340 1086 389 1143 b 547 1088 442 1138 490 1088 b 625 1133 579 1088 625 1104 b 618 1142 625 1136 622 1140 b 476 1272 553 1171 496 1222 b 467 1279 475 1276 471 1279 z m 663 1133 b 540 1049 663 1078 586 1049 b 414 1118 489 1049 449 1079 b 306 1047 382 1082 343 1047 b 257 1054 286 1047 272 1049 b 344 1010 267 1025 294 1010 b 447 1074 379 1010 417 1040 b 579 1011 481 1035 528 1011 b 701 1094 606 1011 701 1040 b 661 1140 701 1114 678 1140 b 663 1133 663 1139 663 1136 z "},"":{"ha":957,"x_min":0,"x_max":0,"o":"m 476 975 b 18 185 167 975 18 481 b 53 0 18 90 33 0 l 188 0 b 199 13 196 0 199 3 b 181 181 199 38 181 65 b 236 292 181 260 189 292 l 600 292 b 654 213 657 292 651 243 b 725 0 661 140 674 0 l 871 0 b 879 14 879 0 879 7 b 476 975 740 329 831 975 z m 461 833 b 619 444 563 833 619 629 b 597 426 619 433 606 426 l 256 426 b 228 444 242 426 228 429 b 461 833 228 611 354 833 z m 828 424 b 917 21 850 279 868 129 b 871 -37 917 -7 917 -37 l 710 -37 b 754 -76 724 -64 738 -76 l 908 -76 b 956 -18 956 -76 956 -44 b 867 385 904 104 888 238 b 692 906 821 711 797 839 b 828 424 776 789 801 607 z m 614 232 b 600 254 614 243 614 254 l 236 254 b 218 182 222 254 218 231 b 236 15 218 79 236 53 b 188 -37 236 -22 218 -37 l 51 -37 b 92 -76 64 -64 76 -76 l 226 -76 b 275 -19 257 -76 275 -61 b 257 146 275 22 257 50 b 275 215 257 192 261 215 l 615 215 z m 488 761 b 525 746 504 761 517 753 b 465 796 511 779 493 796 b 265 465 372 796 274 608 l 304 465 b 488 761 329 608 414 761 z m 331 1247 b 242 1167 276 1247 242 1207 b 279 1113 242 1150 251 1113 b 343 1142 292 1113 300 1142 b 538 1115 400 1142 456 1115 b 638 1196 585 1115 638 1147 b 607 1253 638 1207 633 1253 b 597 1247 603 1253 599 1251 b 543 1214 586 1218 569 1214 b 331 1247 488 1214 415 1247 z m 382 1065 b 576 1039 438 1065 493 1039 b 714 1158 640 1039 714 1086 b 664 1250 714 1199 703 1232 b 676 1196 674 1225 676 1218 b 538 1076 676 1124 603 1076 b 343 1104 456 1076 400 1104 b 278 1074 304 1104 304 1074 b 253 1082 265 1074 260 1075 b 315 1035 261 1054 292 1035 b 382 1065 343 1035 356 1065 z "},"":{"ha":957,"x_min":0,"x_max":0,"o":"m 476 975 b 18 185 167 975 18 481 b 53 0 18 90 33 0 l 188 0 b 199 13 196 0 199 3 b 181 181 199 38 181 65 b 236 292 181 260 189 292 l 600 292 b 654 213 657 292 651 243 b 725 0 661 140 674 0 l 871 0 b 879 14 879 0 879 7 b 476 975 740 329 831 975 z m 461 833 b 619 444 563 833 619 629 b 597 426 619 433 606 426 l 256 426 b 228 444 242 426 228 429 b 461 833 228 611 354 833 z m 828 424 b 917 21 850 279 868 129 b 871 -37 917 -7 917 -37 l 710 -37 b 754 -76 724 -64 738 -76 l 908 -76 b 956 -18 956 -76 956 -44 b 867 385 904 104 888 238 b 692 906 821 711 797 839 b 828 424 776 789 801 607 z m 614 232 b 600 254 614 243 614 254 l 236 254 b 218 182 222 254 218 231 b 236 15 218 79 236 53 b 188 -37 236 -22 218 -37 l 51 -37 b 92 -76 64 -64 76 -76 l 226 -76 b 275 -19 257 -76 275 -61 b 257 146 275 22 257 50 b 275 215 257 192 261 215 l 615 215 z m 488 761 b 525 746 504 761 517 753 b 465 796 511 779 493 796 b 265 465 372 796 274 608 l 304 465 b 488 761 329 608 414 761 z m 728 1253 b 744 1186 739 1238 744 1214 b 610 1046 744 1093 700 1046 b 475 1092 547 1046 501 1061 b 647 1008 494 1039 551 1008 b 782 1149 738 1008 782 1056 b 728 1253 782 1196 764 1232 z m 446 1186 b 450 1225 446 1200 447 1214 b 418 1253 440 1238 431 1246 b 433 1186 428 1236 433 1213 b 299 1046 433 1093 389 1046 b 190 1069 253 1046 217 1054 b 336 1008 215 1029 264 1008 b 467 1100 411 1008 454 1039 b 446 1186 453 1114 446 1165 z m 483 1186 b 610 1085 483 1118 525 1085 b 706 1186 674 1085 706 1118 b 581 1279 706 1247 664 1279 b 483 1186 515 1279 483 1247 z m 172 1186 b 299 1085 172 1118 215 1085 b 394 1186 363 1085 394 1118 b 271 1279 394 1247 353 1279 b 172 1186 206 1279 172 1247 z "},"":{"ha":957,"x_min":0,"x_max":0,"o":"m 626 1129 b 529 969 626 1061 588 1001 b 468 975 511 974 490 975 b 18 167 168 975 18 482 b 53 0 18 108 32 0 l 188 0 b 199 8 194 0 199 3 b 181 167 199 33 181 82 b 236 292 181 260 186 292 l 600 292 b 654 213 657 292 651 243 b 725 0 661 140 674 0 l 871 0 b 879 14 879 0 879 7 b 589 944 753 299 815 817 b 664 1092 633 979 664 1033 b 589 1239 664 1154 643 1211 b 626 1129 614 1207 626 1168 z m 469 833 b 619 444 557 833 619 631 b 597 426 619 433 606 426 l 256 426 b 228 444 242 426 228 429 b 469 833 228 611 349 833 z m 292 1129 b 439 983 292 1049 357 983 b 588 1129 519 983 588 1049 b 439 1279 588 1210 519 1279 b 292 1129 357 1279 292 1210 z m 828 424 b 917 21 850 279 868 129 b 871 -37 917 -7 917 -37 l 710 -37 b 754 -76 724 -64 738 -76 l 908 -76 b 956 -18 956 -76 956 -44 b 867 385 900 115 886 253 b 692 906 828 639 814 832 b 828 424 776 789 801 607 z m 614 232 b 600 254 614 243 614 254 l 236 254 b 218 167 221 254 218 231 b 236 8 218 93 236 53 b 188 -37 236 -18 218 -37 l 51 -37 b 92 -76 64 -64 76 -76 l 226 -76 b 275 -29 257 -76 275 -56 b 257 128 275 25 257 65 b 275 215 257 193 260 215 l 615 215 z m 490 761 b 525 746 503 761 517 753 b 469 796 511 781 489 796 b 265 465 371 796 275 613 l 304 465 b 490 761 328 601 410 761 z m 374 1129 b 439 1194 374 1168 401 1194 b 504 1129 475 1194 504 1168 b 439 1064 504 1093 475 1064 b 374 1129 401 1064 374 1093 z "},"":{"ha":1331,"x_min":0,"x_max":0,"o":"m 576 953 b 468 975 544 967 510 975 b 18 167 168 975 18 482 b 53 0 18 108 32 0 l 188 0 b 199 8 194 0 199 3 b 181 167 199 33 181 82 b 236 292 181 260 186 292 l 533 292 b 567 283 549 292 558 289 l 567 10 b 576 0 567 4 571 0 l 1019 0 b 1228 143 1158 0 1228 49 b 1190 264 1228 194 1211 264 b 1182 260 1186 264 1183 263 b 990 142 1131 182 1067 142 l 728 142 l 728 389 b 765 442 728 424 740 442 l 1117 442 b 1126 451 1124 442 1126 444 l 1126 572 b 1117 583 1126 579 1124 583 l 765 583 b 728 622 740 583 728 596 l 728 774 b 765 811 728 797 740 811 l 1146 811 b 1156 821 1153 811 1156 814 l 1156 943 b 1146 953 1156 949 1153 953 z m 469 833 b 567 736 507 833 542 794 l 567 444 b 543 426 567 433 553 426 l 256 426 b 228 444 242 426 228 429 b 469 833 228 611 349 833 z m 535 232 b 521 254 535 243 535 254 l 236 254 b 218 167 221 254 218 231 b 236 8 218 93 236 53 b 188 -37 236 -18 218 -37 l 51 -37 b 92 -76 64 -64 76 -76 l 226 -76 b 275 -29 257 -76 275 -56 b 257 128 275 25 257 65 b 275 215 257 193 260 215 l 536 215 z m 508 757 b 525 746 513 757 517 753 b 469 796 515 776 489 796 b 265 465 371 796 275 613 l 308 465 b 508 757 333 601 419 757 z m 1236 261 b 1267 143 1256 228 1267 183 b 1019 -37 1267 22 1183 -37 l 567 -37 b 615 -76 571 -64 586 -76 l 1057 -76 b 1304 106 1222 -76 1304 -15 b 1236 261 1304 165 1272 251 z m 1165 572 l 1165 451 b 1117 404 1165 419 1149 404 l 767 404 l 767 181 l 804 181 l 804 365 l 1154 365 b 1203 413 1186 365 1203 381 l 1203 535 b 1164 582 1203 564 1190 579 b 1165 572 1165 581 1165 576 z m 1194 943 l 1194 821 b 1146 772 1194 789 1178 772 l 767 772 l 767 621 l 804 621 l 804 735 l 1183 735 b 1232 782 1215 735 1232 751 l 1232 904 b 1193 951 1232 933 1219 949 b 1194 943 1194 950 1194 946 z "},"":{"ha":886,"x_min":0,"x_max":0,"o":"m 456 975 b 24 476 163 975 24 740 b 457 -22 24 164 217 -22 b 793 215 636 -22 763 82 b 796 233 794 221 796 228 b 788 244 796 242 793 244 l 742 244 b 725 236 735 244 731 242 b 489 119 672 181 614 119 b 186 474 331 119 186 219 b 463 832 186 692 293 832 b 722 756 535 832 653 807 b 733 751 725 753 729 751 b 743 765 740 751 743 754 l 743 882 b 456 975 743 919 599 975 z m 776 897 b 781 882 781 890 781 885 l 781 765 b 735 713 781 725 761 713 b 701 724 721 713 714 715 b 468 794 636 765 544 794 b 225 464 308 794 225 665 b 326 211 225 339 257 269 b 263 421 278 274 263 332 b 503 756 263 629 347 756 b 739 686 578 756 672 726 b 772 675 750 679 758 675 b 819 726 799 675 819 688 l 819 843 b 776 897 819 860 806 878 z m 835 232 b 826 197 835 221 831 207 b 463 -61 775 31 643 -61 b 156 51 338 -61 232 -17 b 482 -99 211 -51 332 -99 b 857 138 683 -99 797 -14 b 872 193 864 156 872 176 b 833 243 872 217 856 238 b 835 232 835 242 835 238 z m 357 -142 b 347 -151 351 -142 347 -144 b 356 -207 347 -157 356 -175 b 311 -342 356 -286 333 -319 b 322 -353 311 -349 315 -353 b 499 -196 429 -353 499 -250 b 433 -142 499 -167 483 -142 z m 536 -196 b 322 -390 536 -257 451 -390 b 311 -389 317 -390 313 -390 b 360 -429 317 -415 339 -429 b 575 -233 490 -429 575 -294 b 529 -156 575 -201 564 -171 b 536 -196 535 -168 536 -182 z "},"":{"ha":796,"x_min":0,"x_max":0,"o":"m 703 261 b 733 142 722 228 733 185 b 485 -37 733 24 651 -37 l 33 -37 b 82 -76 38 -64 51 -76 l 524 -76 b 771 115 694 -76 771 -15 b 703 261 771 185 749 247 z m 632 572 l 632 451 b 583 404 632 419 615 404 l 232 404 l 232 181 l 271 181 l 271 365 l 621 365 b 669 413 653 365 669 381 l 669 535 b 631 582 669 564 657 579 b 632 572 632 581 632 576 z m 661 943 l 661 821 b 613 772 661 789 644 772 l 232 772 l 232 621 l 271 621 l 271 735 l 650 735 b 699 782 682 735 699 751 l 699 904 b 660 951 699 933 686 949 b 661 943 661 950 661 946 z m 43 953 b 33 943 38 953 33 949 l 33 10 b 43 0 33 4 38 0 l 485 0 b 694 144 626 0 694 49 b 656 264 694 194 676 264 b 647 260 653 264 650 263 b 457 142 604 201 557 142 l 194 142 l 194 389 b 231 442 194 424 207 442 l 583 442 b 593 451 589 442 593 444 l 593 572 b 583 583 593 579 589 583 l 231 583 b 194 622 207 583 194 596 l 194 774 b 231 811 194 797 207 811 l 613 811 b 622 821 618 811 622 814 l 622 943 b 613 953 622 949 618 953 z m 250 1279 b 174 1178 215 1279 174 1225 b 182 1169 174 1174 175 1171 b 460 1089 285 1156 379 1131 b 469 1086 464 1089 465 1086 b 481 1094 472 1086 476 1089 l 503 1133 b 504 1140 503 1138 504 1139 b 494 1156 504 1147 499 1151 l 464 1182 b 250 1279 401 1235 326 1271 z m 507 1010 b 547 1032 519 1010 538 1014 l 576 1083 b 581 1103 579 1089 581 1096 b 538 1157 581 1128 560 1147 b 544 1138 542 1153 544 1147 b 533 1114 544 1133 539 1124 l 513 1074 b 469 1047 504 1057 486 1047 b 422 1064 450 1047 436 1058 b 164 1135 331 1104 240 1125 b 218 1093 174 1121 183 1099 b 485 1014 314 1079 403 1056 b 507 1010 493 1010 503 1010 z "},"":{"ha":796,"x_min":0,"x_max":0,"o":"m 703 261 b 733 142 722 228 733 185 b 485 -37 733 24 651 -37 l 33 -37 b 82 -76 38 -64 51 -76 l 524 -76 b 771 115 694 -76 771 -15 b 703 261 771 185 749 247 z m 632 572 l 632 451 b 583 404 632 419 615 404 l 232 404 l 232 181 l 271 181 l 271 365 l 621 365 b 669 413 653 365 669 381 l 669 535 b 631 582 669 564 657 579 b 632 572 632 581 632 576 z m 661 943 l 661 821 b 613 772 661 789 644 772 l 232 772 l 232 621 l 271 621 l 271 735 l 650 735 b 699 782 682 735 699 751 l 699 904 b 660 951 699 933 686 949 b 661 943 661 950 661 946 z m 43 953 b 33 943 38 953 33 949 l 33 10 b 43 0 33 4 38 0 l 485 0 b 694 144 626 0 694 49 b 656 264 694 194 676 264 b 647 260 653 264 650 263 b 457 142 604 201 557 142 l 194 142 l 194 389 b 231 442 194 424 207 442 l 583 442 b 593 451 589 442 593 444 l 593 572 b 583 583 593 579 589 583 l 231 583 b 194 622 207 583 194 596 l 194 774 b 231 811 194 797 207 811 l 613 811 b 622 821 618 811 622 814 l 622 943 b 613 953 622 949 618 953 z m 561 1258 b 590 1178 579 1235 590 1208 b 546 1132 590 1142 571 1135 b 338 1079 475 1122 401 1103 b 242 1047 297 1064 278 1050 b 293 1010 261 1011 274 1010 b 315 1014 297 1010 307 1010 b 583 1093 397 1056 488 1079 b 628 1140 610 1100 628 1111 b 561 1258 628 1197 603 1240 z m 472 1279 b 226 1153 376 1279 288 1214 b 221 1142 222 1149 221 1146 b 224 1131 221 1139 222 1135 l 246 1090 b 254 1086 247 1088 250 1086 b 272 1093 258 1086 268 1090 b 543 1169 354 1133 446 1157 b 551 1178 550 1171 551 1175 b 472 1279 551 1228 506 1279 z "},"":{"ha":796,"x_min":0,"x_max":0,"o":"m 703 261 b 733 142 722 228 733 185 b 485 -37 733 24 651 -37 l 33 -37 b 82 -76 38 -64 51 -76 l 524 -76 b 771 115 694 -76 771 -15 b 703 261 771 185 749 247 z m 632 572 l 632 451 b 583 404 632 419 615 404 l 232 404 l 232 181 l 271 181 l 271 365 l 621 365 b 669 413 653 365 669 381 l 669 535 b 631 582 669 564 657 579 b 632 572 632 581 632 576 z m 661 943 l 661 821 b 613 772 661 789 644 772 l 232 772 l 232 621 l 271 621 l 271 735 l 650 735 b 699 782 682 735 699 751 l 699 904 b 660 951 699 933 686 949 b 661 943 661 950 661 946 z m 43 953 b 33 943 38 953 33 949 l 33 10 b 43 0 33 4 38 0 l 485 0 b 694 144 626 0 694 49 b 656 264 694 194 676 264 b 647 260 653 264 650 263 b 457 142 604 201 557 142 l 194 142 l 194 389 b 231 442 194 424 207 442 l 583 442 b 593 451 589 442 593 444 l 593 572 b 583 583 593 579 589 583 l 231 583 b 194 622 207 583 194 596 l 194 774 b 231 811 194 797 207 811 l 613 811 b 622 821 618 811 622 814 l 622 943 b 613 953 622 949 618 953 z m 311 1279 b 301 1271 307 1279 303 1276 b 181 1125 281 1208 226 1156 b 176 1117 178 1122 176 1119 b 226 1086 176 1096 193 1086 b 336 1182 261 1086 310 1143 b 468 1088 363 1138 411 1088 b 546 1133 500 1088 546 1104 b 539 1142 546 1136 543 1140 b 397 1272 474 1171 417 1222 b 388 1279 396 1276 392 1279 z m 583 1133 b 461 1049 583 1078 507 1049 b 335 1118 410 1049 369 1079 b 226 1047 303 1082 264 1047 b 178 1054 207 1047 193 1049 b 265 1010 188 1025 215 1010 b 368 1074 300 1010 338 1040 b 500 1011 401 1035 449 1011 b 622 1094 526 1011 622 1040 b 582 1140 622 1114 599 1140 b 583 1133 583 1139 583 1136 z "},"":{"ha":796,"x_min":0,"x_max":0,"o":"m 703 261 b 733 142 722 228 733 185 b 485 -37 733 24 651 -37 l 33 -37 b 82 -76 38 -64 51 -76 l 524 -76 b 771 115 694 -76 771 -15 b 703 261 771 185 749 247 z m 632 572 l 632 451 b 583 404 632 419 615 404 l 232 404 l 232 181 l 271 181 l 271 365 l 621 365 b 669 413 653 365 669 381 l 669 535 b 631 582 669 564 657 579 b 632 572 632 581 632 576 z m 661 943 l 661 821 b 613 772 661 789 644 772 l 232 772 l 232 621 l 271 621 l 271 735 l 650 735 b 699 782 682 735 699 751 l 699 904 b 660 951 699 933 686 949 b 661 943 661 950 661 946 z m 43 953 b 33 943 38 953 33 949 l 33 10 b 43 0 33 4 38 0 l 485 0 b 694 144 626 0 694 49 b 656 264 694 194 676 264 b 647 260 653 264 650 263 b 457 142 604 201 557 142 l 194 142 l 194 389 b 231 442 194 424 207 442 l 583 442 b 593 451 589 442 593 444 l 593 572 b 583 583 593 579 589 583 l 231 583 b 194 622 207 583 194 596 l 194 774 b 231 811 194 797 207 811 l 613 811 b 622 821 618 811 622 814 l 622 943 b 613 953 622 949 618 953 z m 649 1253 b 665 1186 660 1238 665 1214 b 531 1046 665 1093 621 1046 b 396 1092 468 1046 422 1061 b 568 1008 415 1039 472 1008 b 703 1149 658 1008 703 1056 b 649 1253 703 1196 685 1232 z m 367 1186 b 371 1225 367 1200 368 1214 b 339 1253 361 1238 351 1246 b 354 1186 349 1236 354 1213 b 219 1046 354 1093 310 1046 b 111 1069 174 1046 138 1054 b 257 1008 136 1029 185 1008 b 388 1100 332 1008 375 1039 b 367 1186 374 1114 367 1165 z m 404 1186 b 531 1085 404 1118 446 1085 b 626 1186 594 1085 626 1118 b 501 1279 626 1247 585 1279 b 404 1186 436 1279 404 1247 z m 93 1186 b 219 1085 93 1118 136 1085 b 315 1186 283 1085 315 1118 b 192 1279 315 1247 274 1279 b 93 1186 126 1279 93 1247 z "},"":{"ha":304,"x_min":0,"x_max":0,"o":"m 194 943 b 186 953 194 949 192 953 l 43 953 b 33 943 38 953 33 949 l 33 10 b 43 0 33 4 38 0 l 186 0 b 194 10 192 0 194 4 z m 271 904 b 231 951 271 926 256 947 b 232 943 232 950 232 946 l 232 10 b 186 -37 232 -14 213 -37 l 35 -37 b 82 -76 39 -57 60 -76 l 224 -76 b 271 -28 250 -76 271 -51 z m 4 1279 b -72 1178 -31 1279 -72 1225 b -64 1169 -72 1174 -71 1171 b 214 1089 39 1156 133 1131 b 224 1086 218 1089 219 1086 b 235 1094 226 1086 231 1089 l 257 1133 b 258 1140 257 1138 258 1139 b 249 1156 258 1147 253 1151 l 218 1182 b 4 1279 156 1235 81 1271 z m 261 1010 b 301 1032 274 1010 292 1014 l 331 1083 b 335 1103 333 1089 335 1096 b 292 1157 335 1128 314 1147 b 299 1138 296 1153 299 1147 b 288 1114 299 1133 293 1124 l 267 1074 b 224 1047 258 1057 240 1047 b 176 1064 204 1047 190 1058 b -82 1135 85 1104 -6 1125 b -28 1093 -72 1121 -62 1099 b 239 1014 68 1079 157 1056 b 261 1010 247 1010 257 1010 z "},"":{"ha":304,"x_min":0,"x_max":0,"o":"m 194 943 b 186 953 194 949 192 953 l 43 953 b 33 943 38 953 33 949 l 33 10 b 43 0 33 4 38 0 l 186 0 b 194 10 192 0 194 4 z m 271 904 b 231 951 271 926 256 947 b 232 943 232 950 232 946 l 232 10 b 186 -37 232 -14 213 -37 l 35 -37 b 82 -76 39 -57 60 -76 l 224 -76 b 271 -28 250 -76 271 -51 z m 314 1258 b 343 1178 332 1235 343 1208 b 299 1132 343 1142 324 1135 b 90 1079 228 1122 154 1103 b -6 1047 50 1064 31 1050 b 46 1010 14 1011 26 1010 b 68 1014 50 1010 60 1010 b 336 1093 150 1056 240 1079 b 381 1140 363 1100 381 1111 b 314 1258 381 1197 356 1240 z m 225 1279 b -21 1153 129 1279 40 1214 b -26 1142 -25 1149 -26 1146 b -24 1131 -26 1139 -25 1135 l -1 1090 b 7 1086 0 1088 3 1086 b 25 1093 11 1086 21 1090 b 296 1169 107 1133 199 1157 b 304 1178 303 1171 304 1175 b 225 1279 304 1228 258 1279 z "},"":{"ha":304,"x_min":0,"x_max":0,"o":"m 194 943 b 186 953 194 949 192 953 l 43 953 b 33 943 38 953 33 949 l 33 10 b 43 0 33 4 38 0 l 186 0 b 194 10 192 0 194 4 z m 271 904 b 231 951 271 926 256 947 b 232 943 232 950 232 946 l 232 10 b 186 -37 232 -14 213 -37 l 35 -37 b 82 -76 39 -57 60 -76 l 224 -76 b 271 -28 250 -76 271 -51 z m 64 1279 b 54 1271 60 1279 56 1276 b -67 1125 33 1208 -21 1156 b -71 1117 -69 1122 -71 1119 b -21 1086 -71 1096 -54 1086 b 89 1182 14 1086 63 1143 b 221 1088 115 1138 164 1088 b 299 1133 253 1088 299 1104 b 292 1142 299 1136 296 1140 b 150 1272 226 1171 169 1222 b 140 1279 149 1276 144 1279 z m 336 1133 b 214 1049 336 1078 260 1049 b 88 1118 163 1049 122 1079 b -21 1047 56 1082 17 1047 b -69 1054 -40 1047 -54 1049 b 18 1010 -60 1025 -32 1010 b 121 1074 53 1010 90 1040 b 253 1011 154 1035 201 1011 b 375 1094 279 1011 375 1040 b 335 1140 375 1114 351 1140 b 336 1133 336 1139 336 1136 z "},"":{"ha":304,"x_min":0,"x_max":0,"o":"m 194 943 b 186 953 194 949 192 953 l 43 953 b 33 943 38 953 33 949 l 33 10 b 43 0 33 4 38 0 l 186 0 b 194 10 192 0 194 4 z m 271 904 b 231 951 271 926 256 947 b 232 943 232 950 232 946 l 232 10 b 186 -37 232 -14 213 -37 l 35 -37 b 82 -76 39 -57 60 -76 l 224 -76 b 271 -28 250 -76 271 -51 z m 403 1253 b 419 1186 414 1238 419 1214 b 285 1046 419 1093 375 1046 b 150 1092 222 1046 176 1061 b 322 1008 169 1039 226 1008 b 457 1149 413 1008 457 1056 b 403 1253 457 1196 439 1232 z m 121 1186 b 125 1225 121 1200 122 1214 b 93 1253 115 1238 106 1246 b 108 1186 103 1236 108 1213 b -26 1046 108 1093 64 1046 b -135 1069 -72 1046 -108 1054 b 11 1008 -110 1029 -61 1008 b 142 1100 86 1008 129 1039 b 121 1186 128 1114 121 1165 z m 158 1186 b 285 1085 158 1118 200 1085 b 381 1186 349 1085 381 1118 b 256 1279 381 1247 339 1279 b 158 1186 190 1279 158 1247 z m -153 1186 b -26 1085 -153 1118 -110 1085 b 69 1186 38 1085 69 1118 b -54 1279 69 1247 28 1279 b -153 1186 -119 1279 -153 1247 z "},"":{"ha":863,"x_min":0,"x_max":0,"o":"m -1 439 b 8 429 -1 432 3 429 l 33 429 l 33 10 b 43 0 33 4 38 0 l 271 0 b 763 479 510 0 763 185 b 272 975 763 728 613 975 b 33 944 215 975 33 972 l 33 571 l 8 571 b -1 560 3 571 -1 567 z m 260 832 b 601 447 539 832 601 614 b 276 142 601 244 413 142 b 194 201 210 142 194 163 l 194 429 l 365 429 b 376 439 372 429 376 432 l 376 560 b 365 571 376 567 372 571 l 194 571 l 194 736 b 260 832 194 794 215 832 z m 800 479 b 271 -37 800 161 528 -37 l 35 -37 b 82 -76 39 -57 60 -76 l 308 -76 b 839 440 567 -76 839 124 b 674 846 839 665 769 776 b 800 479 760 744 800 613 z m 414 560 l 414 439 b 365 392 414 418 390 392 l 232 392 l 232 201 b 271 181 232 188 239 181 l 271 353 l 404 353 b 453 400 428 353 453 379 l 453 522 b 413 569 453 543 433 564 b 414 560 414 567 414 564 z m 299 756 b 488 697 381 756 443 733 b 260 794 440 754 368 794 b 232 736 242 794 232 771 l 232 604 l 271 604 l 271 699 b 299 756 271 733 279 756 z "},"":{"ha":871,"x_min":0,"x_max":0,"o":"m 171 661 b 188 706 171 694 172 706 b 213 678 186 706 201 693 l 521 206 b 610 -18 571 129 603 42 b 619 -26 610 -24 614 -26 b 761 246 751 -26 761 160 l 761 944 b 751 954 761 950 757 954 l 633 954 b 624 944 628 954 624 950 l 624 349 b 614 332 624 336 619 332 b 603 339 610 332 606 335 l 236 894 b 126 953 211 933 174 953 l 43 953 b 33 943 38 953 33 949 l 33 10 b 43 0 33 4 38 0 l 160 0 b 171 10 167 0 171 4 z m 799 944 l 799 246 b 619 -65 799 149 786 -65 b 611 -64 617 -65 614 -65 b 658 -103 617 -83 638 -103 b 838 208 825 -103 838 111 l 838 906 b 797 953 838 926 818 947 b 799 944 799 951 799 947 z m 208 615 l 208 10 b 160 -37 208 -14 185 -37 l 35 -37 b 82 -76 39 -57 60 -76 l 199 -76 b 246 -28 222 -76 246 -51 l 246 557 z m 288 1247 b 199 1167 233 1247 199 1207 b 236 1113 199 1150 208 1113 b 300 1142 249 1113 257 1142 b 494 1115 357 1142 413 1115 b 594 1196 542 1115 594 1147 b 564 1253 594 1207 590 1253 b 554 1247 560 1253 556 1251 b 500 1214 543 1218 526 1214 b 288 1247 444 1214 372 1247 z m 339 1065 b 533 1039 394 1065 450 1039 b 671 1158 597 1039 671 1086 b 621 1250 671 1199 660 1232 b 633 1196 631 1225 633 1218 b 494 1076 633 1124 560 1076 b 300 1104 413 1076 357 1104 b 235 1074 261 1104 261 1074 b 210 1082 222 1074 217 1075 b 272 1035 218 1054 249 1035 b 339 1065 300 1035 313 1065 z "},"":{"ha":944,"x_min":0,"x_max":0,"o":"m 408 -22 b 844 499 682 -22 844 214 b 460 975 844 729 738 975 b 24 444 186 975 24 735 b 408 -22 24 189 149 -22 z m 449 832 b 683 465 628 832 683 622 b 431 119 683 258 588 119 b 186 467 261 119 186 282 b 449 832 186 701 307 832 z m 429 -99 b 921 476 743 -99 921 135 b 758 883 921 668 865 810 b 883 492 843 781 883 633 b 408 -61 883 194 704 -61 b 144 32 294 -61 211 -24 b 429 -99 192 -43 276 -99 z m 479 756 b 579 724 514 756 553 744 b 442 794 546 769 493 794 b 225 474 328 794 225 675 b 324 192 225 376 249 246 b 263 438 282 246 263 353 b 479 756 263 633 365 756 z m 325 1279 b 249 1178 290 1279 249 1225 b 257 1169 249 1174 250 1171 b 535 1089 360 1156 454 1131 b 544 1086 539 1089 540 1086 b 556 1094 547 1086 551 1089 l 578 1133 b 579 1140 578 1138 579 1139 b 569 1156 579 1147 574 1151 l 539 1182 b 325 1279 476 1235 401 1271 z m 582 1010 b 622 1032 594 1010 613 1014 l 651 1083 b 656 1103 654 1089 656 1096 b 613 1157 656 1128 635 1147 b 619 1138 617 1153 619 1147 b 608 1114 619 1133 614 1124 l 588 1074 b 544 1047 579 1057 561 1047 b 497 1064 525 1047 511 1058 b 239 1135 406 1104 315 1125 b 293 1093 249 1121 258 1099 b 560 1014 389 1079 478 1056 b 582 1010 568 1010 578 1010 z "},"":{"ha":944,"x_min":0,"x_max":0,"o":"m 408 -22 b 844 499 682 -22 844 214 b 460 975 844 729 738 975 b 24 444 186 975 24 735 b 408 -22 24 189 149 -22 z m 449 832 b 683 465 628 832 683 622 b 431 119 683 258 588 119 b 186 467 261 119 186 282 b 449 832 186 701 307 832 z m 429 -99 b 921 476 743 -99 921 135 b 758 883 921 668 865 810 b 883 492 843 781 883 633 b 408 -61 883 194 704 -61 b 144 32 294 -61 211 -24 b 429 -99 192 -43 276 -99 z m 479 756 b 579 724 514 756 553 744 b 442 794 546 769 493 794 b 225 474 328 794 225 675 b 324 192 225 376 249 246 b 263 438 282 246 263 353 b 479 756 263 633 365 756 z m 635 1258 b 664 1178 653 1235 664 1208 b 619 1132 664 1142 644 1135 b 411 1079 549 1122 475 1103 b 315 1047 371 1064 351 1050 b 367 1010 335 1011 347 1010 b 389 1014 371 1010 381 1010 b 657 1093 471 1056 561 1079 b 701 1140 683 1100 701 1111 b 635 1258 701 1197 676 1240 z m 546 1279 b 300 1153 450 1279 361 1214 b 294 1142 296 1149 294 1146 b 297 1131 294 1139 296 1135 l 319 1090 b 328 1086 321 1088 324 1086 b 346 1093 332 1086 342 1090 b 617 1169 428 1133 519 1157 b 625 1178 624 1171 625 1175 b 546 1279 625 1228 579 1279 z "},"":{"ha":944,"x_min":0,"x_max":0,"o":"m 408 -22 b 844 499 682 -22 844 214 b 460 975 844 729 738 975 b 24 444 186 975 24 735 b 408 -22 24 189 149 -22 z m 449 832 b 683 465 628 832 683 622 b 431 119 683 258 588 119 b 186 467 261 119 186 282 b 449 832 186 701 307 832 z m 429 -99 b 921 476 743 -99 921 135 b 758 883 921 668 865 810 b 883 492 843 781 883 633 b 408 -61 883 194 704 -61 b 144 32 294 -61 211 -24 b 429 -99 192 -43 276 -99 z m 479 756 b 579 724 514 756 553 744 b 442 794 546 769 493 794 b 225 474 328 794 225 675 b 324 192 225 376 249 246 b 263 438 282 246 263 353 b 479 756 263 633 365 756 z m 385 1279 b 375 1271 381 1279 376 1276 b 254 1125 354 1208 300 1156 b 250 1117 251 1122 250 1119 b 300 1086 250 1096 267 1086 b 410 1182 335 1086 383 1143 b 542 1088 436 1138 485 1088 b 619 1133 574 1088 619 1104 b 613 1142 619 1136 617 1140 b 471 1272 547 1171 490 1222 b 461 1279 469 1276 465 1279 z m 657 1133 b 535 1049 657 1078 581 1049 b 408 1118 483 1049 443 1079 b 300 1047 376 1082 338 1047 b 251 1054 281 1047 267 1049 b 339 1010 261 1025 289 1010 b 442 1074 374 1010 411 1040 b 574 1011 475 1035 522 1011 b 696 1094 600 1011 696 1040 b 656 1140 696 1114 672 1140 b 657 1133 657 1139 657 1136 z "},"":{"ha":944,"x_min":0,"x_max":0,"o":"m 408 -22 b 844 499 682 -22 844 214 b 460 975 844 729 738 975 b 24 444 186 975 24 735 b 408 -22 24 189 149 -22 z m 449 832 b 683 465 628 832 683 622 b 431 119 683 258 588 119 b 186 467 261 119 186 282 b 449 832 186 701 307 832 z m 429 -99 b 921 476 743 -99 921 135 b 758 883 921 668 865 810 b 883 492 843 781 883 633 b 408 -61 883 194 704 -61 b 144 32 294 -61 211 -24 b 429 -99 192 -43 276 -99 z m 479 756 b 579 724 514 756 553 744 b 442 794 546 769 493 794 b 225 474 328 794 225 675 b 324 192 225 376 249 246 b 263 438 282 246 263 353 b 479 756 263 633 365 756 z m 325 1247 b 236 1167 271 1247 236 1207 b 274 1113 236 1150 246 1113 b 338 1142 286 1113 294 1142 b 532 1115 394 1142 450 1115 b 632 1196 579 1115 632 1147 b 601 1253 632 1207 628 1253 b 592 1247 597 1253 593 1251 b 538 1214 581 1218 564 1214 b 325 1247 482 1214 410 1247 z m 376 1065 b 571 1039 432 1065 488 1039 b 708 1158 635 1039 708 1086 b 658 1250 708 1199 697 1232 b 671 1196 668 1225 671 1218 b 532 1076 671 1124 597 1076 b 338 1104 450 1076 394 1104 b 272 1074 299 1104 299 1074 b 247 1082 260 1074 254 1075 b 310 1035 256 1054 286 1035 b 376 1065 338 1035 350 1065 z "},"":{"ha":944,"x_min":0,"x_max":0,"o":"m 408 -22 b 844 499 682 -22 844 214 b 460 975 844 729 738 975 b 24 444 186 975 24 735 b 408 -22 24 189 149 -22 z m 449 832 b 683 465 628 832 683 622 b 431 119 683 258 588 119 b 186 467 261 119 186 282 b 449 832 186 701 307 832 z m 429 -99 b 921 476 743 -99 921 135 b 758 883 921 668 865 810 b 883 492 843 781 883 633 b 408 -61 883 194 704 -61 b 144 32 294 -61 211 -24 b 429 -99 192 -43 276 -99 z m 479 756 b 579 724 514 756 553 744 b 442 794 546 769 493 794 b 225 474 328 794 225 675 b 324 192 225 376 249 246 b 263 438 282 246 263 353 b 479 756 263 633 365 756 z m 724 1253 b 740 1186 735 1238 740 1214 b 606 1046 740 1093 696 1046 b 471 1092 543 1046 497 1061 b 643 1008 490 1039 547 1008 b 778 1149 733 1008 778 1056 b 724 1253 778 1196 760 1232 z m 442 1186 b 446 1225 442 1200 443 1214 b 414 1253 436 1238 426 1246 b 429 1186 424 1236 429 1213 b 294 1046 429 1093 385 1046 b 186 1069 249 1046 213 1054 b 332 1008 211 1029 260 1008 b 463 1100 407 1008 450 1039 b 442 1186 449 1114 442 1165 z m 479 1186 b 606 1085 479 1118 521 1085 b 701 1186 669 1085 701 1118 b 576 1279 701 1247 660 1279 b 479 1186 511 1279 479 1247 z m 168 1186 b 294 1085 168 1118 211 1085 b 390 1186 358 1085 390 1118 b 267 1279 390 1247 349 1279 b 168 1186 201 1279 168 1247 z "},"":{"ha":606,"x_min":0,"x_max":0,"o":"m 25 374 b 22 365 24 372 22 369 b 25 358 22 363 24 360 l 111 272 b 119 269 113 271 115 269 b 126 272 124 269 126 271 b 265 410 174 321 218 364 l 404 272 b 411 269 406 271 408 269 b 419 272 415 269 418 271 l 504 358 b 507 365 506 360 507 363 b 504 374 507 368 506 371 l 367 513 l 504 649 b 507 657 506 650 507 653 b 504 664 507 661 506 663 l 418 751 b 410 753 417 751 414 753 b 403 751 407 753 404 751 l 265 614 l 128 751 b 121 753 126 751 124 753 b 113 751 117 753 114 751 l 26 664 b 24 657 25 663 24 661 b 26 649 24 653 25 650 l 164 513 z m 544 365 b 531 332 544 356 538 338 l 446 246 b 408 231 431 231 418 231 b 389 232 399 231 396 231 l 410 214 b 446 193 419 194 432 193 b 483 207 460 193 469 193 l 569 293 b 583 328 575 300 583 318 b 536 394 583 343 568 365 b 544 365 540 385 544 376 z m 265 357 b 111 231 172 269 156 231 b 94 232 103 231 97 231 b 154 193 125 201 133 193 b 192 207 168 193 178 193 l 304 319 z m 544 657 b 531 622 544 647 538 629 l 421 513 l 457 474 l 569 585 b 583 618 575 590 583 608 b 574 647 583 628 579 643 l 536 686 b 544 657 540 676 544 668 z "},"":{"ha":942,"x_min":0,"x_max":0,"o":"m 403 -22 b 843 490 681 -22 843 215 b 683 900 843 651 793 808 b 790 1025 714 965 744 1004 b 794 1035 793 1026 794 1029 b 718 1056 794 1051 743 1056 b 557 964 672 1056 608 1025 b 472 975 528 971 499 975 b 22 428 174 975 22 739 b 153 76 22 292 65 163 b 63 -35 111 -19 63 -7 b 157 -112 63 -83 107 -112 b 290 -7 217 -112 265 -57 b 403 -22 322 -18 361 -22 z m 682 439 b 439 119 682 278 586 119 b 350 133 404 119 376 124 l 614 740 b 682 439 668 663 682 549 z m 435 832 b 479 828 450 832 465 831 l 228 250 b 186 492 199 313 186 394 b 435 832 186 681 306 832 z m 868 1001 b 826 1047 868 1026 851 1040 b 828 1025 828 1042 828 1035 b 807 990 828 1014 817 996 b 732 906 781 976 756 946 b 882 490 863 750 882 629 b 403 -61 882 194 704 -61 b 311 -49 367 -61 336 -57 b 157 -151 279 -103 228 -151 b 79 -129 129 -151 103 -143 b 196 -189 103 -169 146 -189 b 343 -87 258 -189 311 -142 b 440 -99 374 -94 406 -99 b 919 453 742 -99 919 156 b 776 878 919 633 883 769 b 868 1001 831 961 868 958 z m 404 161 l 457 157 l 638 572 l 613 646 z m 224 492 b 233 361 224 442 225 400 l 261 424 b 397 735 261 611 326 694 l 424 793 b 224 492 318 786 224 653 z "},"":{"ha":921,"x_min":0,"x_max":0,"o":"m 381 -22 b 632 88 514 -22 583 24 b 778 -22 651 42 704 -22 b 829 -7 797 -22 829 -22 l 829 110 b 819 119 829 118 824 119 b 758 289 776 126 758 210 l 758 943 b 749 953 758 949 754 953 l 607 953 b 597 943 601 953 597 949 l 597 436 b 400 119 597 275 561 119 b 196 436 258 119 196 239 l 196 943 b 186 953 196 949 192 953 l 43 953 b 33 943 38 953 33 949 l 33 436 b 381 -22 33 188 94 -22 z m 796 289 b 819 157 796 222 806 157 b 840 150 826 157 833 156 b 835 250 836 175 835 211 l 835 904 b 796 951 835 925 815 946 z m 233 436 b 317 183 233 314 257 225 b 272 397 285 232 272 301 l 272 904 b 233 951 272 925 253 946 z m 414 -99 b 661 -15 518 -99 588 -79 b 625 24 647 -3 635 10 b 386 -61 560 -35 488 -61 b 126 18 281 -61 185 -32 b 414 -99 161 -57 263 -99 z m 868 -7 b 782 -61 868 -57 811 -61 b 669 -22 738 -61 704 -51 b 821 -99 697 -67 735 -99 b 906 -46 853 -99 906 -94 l 906 71 b 868 118 906 92 886 113 z m 265 1279 b 189 1178 231 1279 189 1225 b 197 1169 189 1174 190 1171 b 475 1089 300 1156 394 1131 b 485 1086 479 1089 481 1086 b 496 1094 488 1086 492 1089 l 518 1133 b 519 1140 518 1138 519 1139 b 510 1156 519 1147 514 1151 l 479 1182 b 265 1279 417 1235 342 1271 z m 522 1010 b 563 1032 535 1010 553 1014 l 592 1083 b 596 1103 594 1089 596 1096 b 553 1157 596 1128 575 1147 b 560 1138 557 1153 560 1147 b 549 1114 560 1133 554 1124 l 528 1074 b 485 1047 519 1057 501 1047 b 438 1064 465 1047 451 1058 b 179 1135 346 1104 256 1125 b 233 1093 189 1121 199 1099 b 500 1014 329 1079 418 1056 b 522 1010 508 1010 518 1010 z "},"":{"ha":921,"x_min":0,"x_max":0,"o":"m 381 -22 b 632 88 514 -22 583 24 b 778 -22 651 42 704 -22 b 829 -7 797 -22 829 -22 l 829 110 b 819 119 829 118 824 119 b 758 289 776 126 758 210 l 758 943 b 749 953 758 949 754 953 l 607 953 b 597 943 601 953 597 949 l 597 436 b 400 119 597 275 561 119 b 196 436 258 119 196 239 l 196 943 b 186 953 196 949 192 953 l 43 953 b 33 943 38 953 33 949 l 33 436 b 381 -22 33 188 94 -22 z m 796 289 b 819 157 796 222 806 157 b 840 150 826 157 833 156 b 835 250 836 175 835 211 l 835 904 b 796 951 835 925 815 946 z m 233 436 b 317 183 233 314 257 225 b 272 397 285 232 272 301 l 272 904 b 233 951 272 925 253 946 z m 414 -99 b 661 -15 518 -99 588 -79 b 625 24 647 -3 635 10 b 386 -61 560 -35 488 -61 b 126 18 281 -61 185 -32 b 414 -99 161 -57 263 -99 z m 868 -7 b 782 -61 868 -57 811 -61 b 669 -22 738 -61 704 -51 b 821 -99 697 -67 735 -99 b 906 -46 853 -99 906 -94 l 906 71 b 868 118 906 92 886 113 z m 590 1258 b 619 1178 608 1235 619 1208 b 575 1132 619 1142 600 1135 b 367 1079 504 1122 431 1103 b 271 1047 326 1064 307 1050 b 322 1010 290 1011 303 1010 b 344 1014 326 1010 336 1010 b 613 1093 426 1056 517 1079 b 657 1140 639 1100 657 1111 b 590 1258 657 1197 632 1240 z m 501 1279 b 256 1153 406 1279 317 1214 b 250 1142 251 1149 250 1146 b 253 1131 250 1139 251 1135 l 275 1090 b 283 1086 276 1088 279 1086 b 301 1093 288 1086 297 1090 b 572 1169 383 1133 475 1157 b 581 1178 579 1171 581 1175 b 501 1279 581 1228 535 1279 z "},"":{"ha":921,"x_min":0,"x_max":0,"o":"m 381 -22 b 632 88 514 -22 583 24 b 778 -22 651 42 704 -22 b 829 -7 797 -22 829 -22 l 829 110 b 819 119 829 118 824 119 b 758 289 776 126 758 210 l 758 943 b 749 953 758 949 754 953 l 607 953 b 597 943 601 953 597 949 l 597 436 b 400 119 597 275 561 119 b 196 436 258 119 196 239 l 196 943 b 186 953 196 949 192 953 l 43 953 b 33 943 38 953 33 949 l 33 436 b 381 -22 33 188 94 -22 z m 796 289 b 819 157 796 222 806 157 b 840 150 826 157 833 156 b 835 250 836 175 835 211 l 835 904 b 796 951 835 925 815 946 z m 233 436 b 317 183 233 314 257 225 b 272 397 285 232 272 301 l 272 904 b 233 951 272 925 253 946 z m 414 -99 b 661 -15 518 -99 588 -79 b 625 24 647 -3 635 10 b 386 -61 560 -35 488 -61 b 126 18 281 -61 185 -32 b 414 -99 161 -57 263 -99 z m 868 -7 b 782 -61 868 -57 811 -61 b 669 -22 738 -61 704 -51 b 821 -99 697 -67 735 -99 b 906 -46 853 -99 906 -94 l 906 71 b 868 118 906 92 886 113 z m 354 1279 b 344 1271 350 1279 346 1276 b 224 1125 324 1208 269 1156 b 219 1117 221 1122 219 1119 b 269 1086 219 1096 236 1086 b 379 1182 304 1086 353 1143 b 511 1088 406 1138 454 1088 b 589 1133 543 1088 589 1104 b 582 1142 589 1136 586 1140 b 440 1272 517 1171 460 1222 b 431 1279 439 1276 435 1279 z m 626 1133 b 504 1049 626 1078 550 1049 b 378 1118 453 1049 413 1079 b 269 1047 346 1082 307 1047 b 221 1054 250 1047 236 1049 b 308 1010 231 1025 258 1010 b 411 1074 343 1010 381 1040 b 543 1011 444 1035 492 1011 b 665 1094 569 1011 665 1040 b 625 1140 665 1114 642 1140 b 626 1133 626 1139 626 1136 z "},"":{"ha":921,"x_min":0,"x_max":0,"o":"m 381 -22 b 632 88 514 -22 583 24 b 778 -22 651 42 704 -22 b 829 -7 797 -22 829 -22 l 829 110 b 819 119 829 118 824 119 b 758 289 776 126 758 210 l 758 943 b 749 953 758 949 754 953 l 607 953 b 597 943 601 953 597 949 l 597 436 b 400 119 597 275 561 119 b 196 436 258 119 196 239 l 196 943 b 186 953 196 949 192 953 l 43 953 b 33 943 38 953 33 949 l 33 436 b 381 -22 33 188 94 -22 z m 796 289 b 819 157 796 222 806 157 b 840 150 826 157 833 156 b 835 250 836 175 835 211 l 835 904 b 796 951 835 925 815 946 z m 233 436 b 317 183 233 314 257 225 b 272 397 285 232 272 301 l 272 904 b 233 951 272 925 253 946 z m 414 -99 b 661 -15 518 -99 588 -79 b 625 24 647 -3 635 10 b 386 -61 560 -35 488 -61 b 126 18 281 -61 185 -32 b 414 -99 161 -57 263 -99 z m 868 -7 b 782 -61 868 -57 811 -61 b 669 -22 738 -61 704 -51 b 821 -99 697 -67 735 -99 b 906 -46 853 -99 906 -94 l 906 71 b 868 118 906 92 886 113 z m 710 1253 b 726 1186 721 1238 726 1214 b 592 1046 726 1093 682 1046 b 457 1092 529 1046 483 1061 b 629 1008 476 1039 533 1008 b 764 1149 719 1008 764 1056 b 710 1253 764 1196 746 1232 z m 428 1186 b 432 1225 428 1200 429 1214 b 400 1253 422 1238 413 1246 b 415 1186 410 1236 415 1213 b 281 1046 415 1093 371 1046 b 172 1069 235 1046 199 1054 b 318 1008 197 1029 246 1008 b 449 1100 393 1008 436 1039 b 428 1186 435 1114 428 1165 z m 465 1186 b 592 1085 465 1118 507 1085 b 688 1186 656 1085 688 1118 b 563 1279 688 1247 646 1279 b 465 1186 497 1279 465 1247 z m 154 1186 b 281 1085 154 1118 197 1085 b 376 1186 344 1085 376 1118 b 253 1279 376 1247 335 1279 b 154 1186 188 1279 154 1247 z "},"":{"ha":915,"x_min":0,"x_max":0,"o":"m 493 388 l 840 931 b 847 946 844 936 847 943 b 838 953 847 950 843 953 l 676 953 b 667 947 671 953 668 951 l 415 529 l 161 947 b 153 953 160 951 157 953 l -7 953 b -19 944 -15 953 -19 950 b -14 933 -19 942 -18 938 l 332 388 l 332 10 b 342 0 332 4 335 0 l 483 0 b 493 10 489 0 493 4 z m 569 339 l 911 871 b 924 908 919 885 922 894 b 885 951 924 932 911 947 l 885 946 b 872 910 885 932 882 924 l 531 378 l 531 10 b 483 -37 531 -22 514 -37 l 332 -37 b 379 -76 335 -64 350 -76 l 521 -76 b 569 -28 553 -76 569 -60 z m 415 604 l 439 640 l 260 926 b 204 950 247 946 226 949 z m 619 1258 b 649 1178 638 1235 649 1208 b 604 1132 649 1142 629 1135 b 396 1079 533 1122 460 1103 b 300 1047 356 1064 336 1050 b 351 1010 319 1011 332 1010 b 374 1014 356 1010 365 1010 b 642 1093 456 1056 546 1079 b 686 1140 668 1100 686 1111 b 619 1258 686 1197 661 1240 z m 531 1279 b 285 1153 435 1279 346 1214 b 279 1142 281 1149 279 1146 b 282 1131 279 1139 281 1135 l 304 1090 b 313 1086 306 1088 308 1086 b 331 1093 317 1086 326 1090 b 601 1169 413 1133 504 1157 b 610 1178 608 1171 610 1175 b 531 1279 610 1228 564 1279 z "},"":{"ha":674,"x_min":0,"x_max":0,"o":"m 242 206 b 592 465 410 206 592 299 b 215 729 592 688 399 729 l 194 729 l 194 944 b 186 954 194 950 192 954 l 43 954 b 33 944 38 954 33 950 l 33 10 b 43 0 33 4 38 0 l 186 0 b 194 10 192 0 194 4 l 194 176 b 242 206 194 193 204 206 z m 271 129 b 668 426 465 129 668 238 b 578 643 668 556 643 601 b 631 465 610 599 631 542 b 232 168 631 275 426 168 l 232 10 b 186 -37 232 -14 213 -37 l 35 -37 b 82 -76 39 -57 60 -76 l 224 -76 b 271 -28 250 -76 271 -51 z m 275 575 b 428 465 399 575 428 543 b 219 347 428 375 300 347 l 194 347 l 194 485 b 275 575 194 558 231 575 z m 314 499 b 386 492 346 499 369 497 b 275 538 376 519 364 538 b 232 485 251 538 232 528 l 232 385 b 271 389 246 385 260 386 l 271 447 b 314 499 271 489 290 499 z m 232 767 l 271 767 l 271 906 b 232 953 271 928 254 949 z "},"":{"ha":719,"x_min":0,"x_max":0,"o":"m 313 171 b 246 78 274 171 246 128 b 369 -22 246 18 297 -22 b 618 329 588 -22 618 171 b 472 590 618 467 564 556 b 568 794 529 642 568 693 b 317 1015 568 938 475 1015 b 32 724 121 1015 32 901 l 32 8 b 42 -1 32 3 36 -1 l 185 -1 b 193 8 190 -1 193 3 l 193 724 b 301 857 193 815 231 857 b 407 796 378 857 407 832 b 260 615 407 701 333 658 b 221 547 233 600 221 571 b 290 447 221 517 246 447 b 299 453 294 447 297 449 b 365 499 315 486 332 499 b 456 275 438 499 456 432 b 371 119 456 183 433 119 b 321 165 347 119 331 131 b 313 171 319 169 317 171 z m 408 -99 b 693 290 658 -99 693 114 b 594 543 693 439 650 514 b 656 329 635 490 656 419 b 369 -61 656 153 619 -61 b 231 1 308 -61 260 -37 b 185 -39 226 -19 208 -39 l 33 -39 b 81 -78 38 -58 58 -78 l 222 -78 b 268 -37 246 -78 264 -57 b 408 -99 297 -72 349 -99 z m 365 461 b 290 410 336 461 324 410 b 231 439 278 410 246 424 l 231 165 b 269 196 240 176 253 186 l 269 401 b 328 371 289 386 314 371 b 406 424 368 371 369 424 b 365 461 396 449 382 461 z m 606 794 b 538 600 606 703 583 649 b 578 564 550 590 564 579 b 644 756 619 614 644 668 b 514 997 644 889 606 957 b 606 794 572 953 606 885 z m 269 686 b 339 781 269 750 292 781 l 367 781 b 301 819 365 818 333 819 b 231 724 254 819 231 788 l 231 642 b 269 665 238 647 256 657 z "},"":{"ha":664,"x_min":0,"x_max":0,"o":"m 294 640 b 92 561 208 640 132 606 l 92 456 b 101 446 92 450 96 446 b 269 514 108 446 196 514 b 363 461 332 514 363 497 b 214 363 363 410 297 393 b 22 146 97 319 22 258 b 190 -22 22 71 68 -22 b 403 61 317 -22 371 61 b 438 -12 422 61 433 39 b 447 -22 438 -19 440 -22 b 561 0 483 -22 561 -21 l 561 110 b 528 149 561 126 528 113 l 528 381 b 294 640 528 578 457 640 z m 565 381 l 565 156 b 600 110 582 147 600 140 l 600 0 b 447 -61 600 -51 494 -61 b 439 -60 442 -61 439 -61 b 485 -99 443 -79 465 -99 b 638 -37 532 -99 638 -89 l 638 71 b 603 117 638 100 621 110 l 603 343 b 515 596 603 506 581 558 b 565 381 550 549 565 483 z m 371 246 b 225 104 371 175 289 104 b 167 156 181 104 167 126 b 371 294 167 242 304 285 z m 399 -8 b 401 22 399 0 400 10 b 190 -61 372 1 308 -61 b 65 -24 136 -61 97 -49 b 229 -99 88 -72 133 -99 b 408 -39 315 -99 368 -68 b 399 -8 401 -28 399 -18 z m 81 411 b 132 369 88 394 106 372 b 304 439 178 389 246 436 b 324 461 318 446 324 454 b 269 476 324 471 306 476 b 100 408 186 476 118 408 b 81 411 89 408 86 410 z m 253 147 b 333 247 278 178 333 190 b 204 156 275 231 204 203 b 225 142 204 146 211 142 b 253 147 236 142 246 143 z m 182 942 b 106 840 147 942 106 888 b 114 832 106 836 107 833 b 392 751 217 818 311 793 b 401 749 396 751 397 749 b 413 757 404 749 408 751 l 435 796 b 436 803 435 800 436 801 b 426 818 436 810 431 814 l 396 844 b 182 942 333 897 258 933 z m 439 672 b 479 694 451 672 469 676 l 508 746 b 513 765 511 751 513 758 b 469 819 513 790 492 810 b 476 800 474 815 476 810 b 465 776 476 796 471 786 l 444 736 b 401 710 436 719 418 710 b 354 726 382 710 368 721 b 96 797 263 767 172 788 b 150 756 106 783 115 761 b 417 676 246 742 335 718 b 439 672 425 672 435 672 z "},"":{"ha":664,"x_min":0,"x_max":0,"o":"m 294 640 b 92 561 208 640 132 606 l 92 456 b 101 446 92 450 96 446 b 269 514 108 446 196 514 b 363 461 332 514 363 497 b 214 363 363 410 297 393 b 22 146 97 319 22 258 b 190 -22 22 71 68 -22 b 403 61 317 -22 371 61 b 438 -12 422 61 433 39 b 447 -22 438 -19 440 -22 b 561 0 483 -22 561 -21 l 561 110 b 528 149 561 126 528 113 l 528 381 b 294 640 528 578 457 640 z m 565 381 l 565 156 b 600 110 582 147 600 140 l 600 0 b 447 -61 600 -51 494 -61 b 439 -60 442 -61 439 -61 b 485 -99 443 -79 465 -99 b 638 -37 532 -99 638 -89 l 638 71 b 603 117 638 100 621 110 l 603 343 b 515 596 603 506 581 558 b 565 381 550 549 565 483 z m 371 246 b 225 104 371 175 289 104 b 167 156 181 104 167 126 b 371 294 167 242 304 285 z m 399 -8 b 401 22 399 0 400 10 b 190 -61 372 1 308 -61 b 65 -24 136 -61 97 -49 b 229 -99 88 -72 133 -99 b 408 -39 315 -99 368 -68 b 399 -8 401 -28 399 -18 z m 81 411 b 132 369 88 394 106 372 b 304 439 178 389 246 436 b 324 461 318 446 324 454 b 269 476 324 471 306 476 b 100 408 186 476 118 408 b 81 411 89 408 86 410 z m 253 147 b 333 247 278 178 333 190 b 204 156 275 231 204 203 b 225 142 204 146 211 142 b 253 147 236 142 246 143 z m 496 921 b 525 840 514 897 525 871 b 481 794 525 804 506 797 b 272 742 410 785 336 765 b 176 710 232 726 213 713 b 228 672 196 674 208 672 b 250 676 232 672 242 672 b 518 756 332 718 422 742 b 563 803 544 763 563 774 b 496 921 563 860 538 903 z m 407 942 b 161 815 311 942 222 876 b 156 804 157 811 156 808 b 158 793 156 801 157 797 l 181 753 b 189 749 182 750 185 749 b 207 756 193 749 203 753 b 478 832 289 796 381 819 b 486 840 485 833 486 838 b 407 942 486 890 440 942 z "},"":{"ha":664,"x_min":0,"x_max":0,"o":"m 294 640 b 92 561 208 640 132 606 l 92 456 b 101 446 92 450 96 446 b 269 514 108 446 196 514 b 363 461 332 514 363 497 b 214 363 363 410 297 393 b 22 146 97 319 22 258 b 190 -22 22 71 68 -22 b 403 61 317 -22 371 61 b 438 -12 422 61 433 39 b 447 -22 438 -19 440 -22 b 561 0 483 -22 561 -21 l 561 110 b 528 149 561 126 528 113 l 528 381 b 294 640 528 578 457 640 z m 565 381 l 565 156 b 600 110 582 147 600 140 l 600 0 b 447 -61 600 -51 494 -61 b 439 -60 442 -61 439 -61 b 485 -99 443 -79 465 -99 b 638 -37 532 -99 638 -89 l 638 71 b 603 117 638 100 621 110 l 603 343 b 515 596 603 506 581 558 b 565 381 550 549 565 483 z m 371 246 b 225 104 371 175 289 104 b 167 156 181 104 167 126 b 371 294 167 242 304 285 z m 399 -8 b 401 22 399 0 400 10 b 190 -61 372 1 308 -61 b 65 -24 136 -61 97 -49 b 229 -99 88 -72 133 -99 b 408 -39 315 -99 368 -68 b 399 -8 401 -28 399 -18 z m 81 411 b 132 369 88 394 106 372 b 304 439 178 389 246 436 b 324 461 318 446 324 454 b 269 476 324 471 306 476 b 100 408 186 476 118 408 b 81 411 89 408 86 410 z m 253 147 b 333 247 278 178 333 190 b 204 156 275 231 204 203 b 225 142 204 146 211 142 b 253 147 236 142 246 143 z m 243 942 b 233 933 239 942 235 939 b 113 788 213 871 158 818 b 108 779 110 785 108 782 b 158 749 108 758 125 749 b 268 844 193 749 242 806 b 400 750 294 800 343 750 b 478 796 432 750 478 767 b 471 804 478 799 475 803 b 329 935 406 833 349 885 b 319 942 328 939 324 942 z m 515 796 b 393 711 515 740 439 711 b 267 781 342 711 301 742 b 158 710 235 744 196 710 b 110 717 139 710 125 711 b 197 672 119 688 147 672 b 300 736 232 672 269 703 b 432 674 333 697 381 674 b 554 757 458 674 554 703 b 514 803 554 776 531 803 b 515 796 515 801 515 799 z "},"":{"ha":664,"x_min":0,"x_max":0,"o":"m 294 640 b 92 561 208 640 132 606 l 92 456 b 101 446 92 450 96 446 b 269 514 108 446 196 514 b 363 461 332 514 363 497 b 214 363 363 410 297 393 b 22 146 97 319 22 258 b 190 -22 22 71 68 -22 b 403 61 317 -22 371 61 b 438 -12 422 61 433 39 b 447 -22 438 -19 440 -22 b 561 0 483 -22 561 -21 l 561 110 b 528 149 561 126 528 113 l 528 381 b 294 640 528 578 457 640 z m 565 381 l 565 156 b 600 110 582 147 600 140 l 600 0 b 447 -61 600 -51 494 -61 b 439 -60 442 -61 439 -61 b 485 -99 443 -79 465 -99 b 638 -37 532 -99 638 -89 l 638 71 b 603 117 638 100 621 110 l 603 343 b 515 596 603 506 581 558 b 565 381 550 549 565 483 z m 371 246 b 225 104 371 175 289 104 b 167 156 181 104 167 126 b 371 294 167 242 304 285 z m 399 -8 b 401 22 399 0 400 10 b 190 -61 372 1 308 -61 b 65 -24 136 -61 97 -49 b 229 -99 88 -72 133 -99 b 408 -39 315 -99 368 -68 b 399 -8 401 -28 399 -18 z m 81 411 b 132 369 88 394 106 372 b 304 439 178 389 246 436 b 324 461 318 446 324 454 b 269 476 324 471 306 476 b 100 408 186 476 118 408 b 81 411 89 408 86 410 z m 253 147 b 333 247 278 178 333 190 b 204 156 275 231 204 203 b 225 142 204 146 211 142 b 253 147 236 142 246 143 z m 185 910 b 96 829 131 910 96 869 b 133 775 96 813 106 775 b 197 804 146 775 154 804 b 392 778 254 804 310 778 b 492 858 439 778 492 810 b 461 915 492 869 488 915 b 451 910 457 915 453 914 b 397 876 440 881 424 876 b 185 910 342 876 269 910 z m 236 728 b 431 701 292 728 347 701 b 568 821 494 701 568 749 b 518 913 568 861 557 894 b 531 858 528 888 531 881 b 392 739 531 786 457 739 b 197 767 310 739 254 767 b 132 736 158 767 158 736 b 107 744 119 736 114 738 b 169 697 115 717 146 697 b 236 728 197 697 210 728 z "},"":{"ha":664,"x_min":0,"x_max":0,"o":"m 294 640 b 92 561 208 640 132 606 l 92 456 b 101 446 92 450 96 446 b 269 514 108 446 196 514 b 363 461 332 514 363 497 b 214 363 363 410 297 393 b 22 146 97 319 22 258 b 190 -22 22 71 68 -22 b 403 61 317 -22 371 61 b 438 -12 422 61 433 39 b 447 -22 438 -19 440 -22 b 561 0 483 -22 561 -21 l 561 110 b 528 149 561 126 528 113 l 528 381 b 294 640 528 578 457 640 z m 565 381 l 565 156 b 600 110 582 147 600 140 l 600 0 b 447 -61 600 -51 494 -61 b 439 -60 442 -61 439 -61 b 485 -99 443 -79 465 -99 b 638 -37 532 -99 638 -89 l 638 71 b 603 117 638 100 621 110 l 603 343 b 515 596 603 506 581 558 b 565 381 550 549 565 483 z m 371 246 b 225 104 371 175 289 104 b 167 156 181 104 167 126 b 371 294 167 242 304 285 z m 399 -8 b 401 22 399 0 400 10 b 190 -61 372 1 308 -61 b 65 -24 136 -61 97 -49 b 229 -99 88 -72 133 -99 b 408 -39 315 -99 368 -68 b 399 -8 401 -28 399 -18 z m 81 411 b 132 369 88 394 106 372 b 304 439 178 389 246 436 b 324 461 318 446 324 454 b 269 476 324 471 306 476 b 100 408 186 476 118 408 b 81 411 89 408 86 410 z m 253 147 b 333 247 278 178 333 190 b 204 156 275 231 204 203 b 225 142 204 146 211 142 b 253 147 236 142 246 143 z m 583 915 b 600 849 594 900 600 876 b 465 708 600 756 556 708 b 331 754 403 708 357 724 b 503 671 350 701 407 671 b 638 811 593 671 638 718 b 583 915 638 858 619 894 z m 301 849 b 306 888 301 863 303 876 b 274 915 296 900 286 908 b 289 849 283 899 289 875 b 154 708 289 756 244 708 b 46 732 108 708 72 717 b 192 671 71 692 119 671 b 322 763 267 671 310 701 b 301 849 308 776 301 828 z m 339 849 b 465 747 339 781 381 747 b 561 849 529 747 561 781 b 436 942 561 910 519 942 b 339 849 371 942 339 910 z m 28 849 b 154 747 28 781 71 747 b 250 849 218 747 250 781 b 126 942 250 910 208 942 b 28 849 61 942 28 910 z "},"":{"ha":664,"x_min":0,"x_max":0,"o":"m 294 640 b 92 561 208 640 132 606 l 92 456 b 101 446 92 450 96 446 b 269 514 108 446 196 514 b 363 461 332 514 363 497 b 214 363 363 410 297 393 b 22 146 97 319 22 258 b 190 -22 22 71 68 -22 b 403 61 317 -22 371 61 b 438 -12 422 61 433 39 b 447 -22 438 -19 440 -22 b 561 0 483 -22 561 -21 l 561 110 b 528 149 561 126 528 113 l 528 381 b 294 640 528 578 457 640 z m 565 381 l 565 156 b 600 110 582 147 600 140 l 600 0 b 447 -61 600 -51 494 -61 b 439 -60 442 -61 439 -61 b 485 -99 443 -79 465 -99 b 638 -37 532 -99 638 -89 l 638 71 b 603 117 638 100 621 110 l 603 343 b 515 596 603 506 581 558 b 565 381 550 549 565 483 z m 371 246 b 225 104 371 175 289 104 b 167 156 181 104 167 126 b 371 294 167 242 304 285 z m 399 -8 b 401 22 399 0 400 10 b 190 -61 372 1 308 -61 b 65 -24 136 -61 97 -49 b 229 -99 88 -72 133 -99 b 408 -39 315 -99 368 -68 b 399 -8 401 -28 399 -18 z m 81 411 b 132 369 88 394 106 372 b 304 439 178 389 246 436 b 324 461 318 446 324 454 b 269 476 324 471 306 476 b 100 408 186 476 118 408 b 81 411 89 408 86 410 z m 253 147 b 333 247 278 178 333 190 b 204 156 275 231 204 203 b 225 142 204 146 211 142 b 253 147 236 142 246 143 z m 228 893 b 293 957 228 932 256 957 b 358 893 329 957 358 932 b 293 826 358 856 329 826 b 228 893 256 826 228 856 z m 146 893 b 293 747 146 813 211 747 b 443 893 374 747 443 813 b 293 1043 443 972 374 1043 b 146 893 211 1043 146 972 z m 481 893 b 293 708 481 793 394 708 b 182 743 250 708 214 719 b 331 671 208 692 260 671 b 518 854 432 671 518 754 b 443 1001 518 918 497 974 b 481 893 468 971 481 932 z "},"":{"ha":1044,"x_min":0,"x_max":0,"o":"m 693 640 b 488 572 604 640 538 613 b 300 640 451 621 389 640 b 97 561 214 640 138 606 l 97 456 b 107 446 97 450 100 446 b 275 514 113 446 201 514 b 367 461 336 514 367 497 b 218 363 367 410 303 393 b 26 146 101 319 26 258 b 196 -22 26 71 74 -22 b 456 82 385 -22 426 82 b 700 -22 493 82 522 -22 b 933 150 813 -22 933 44 b 890 179 933 169 925 179 b 858 169 881 179 871 175 b 707 119 808 138 751 119 b 596 181 631 119 596 151 b 632 226 596 190 607 207 l 935 461 b 943 472 940 465 943 468 b 939 483 943 475 942 479 b 693 640 867 594 781 640 z m 376 246 b 231 104 376 175 293 104 b 171 156 186 104 171 126 b 376 294 171 242 308 285 z m 543 338 b 678 499 543 399 592 499 b 744 460 707 499 744 492 b 576 303 744 418 632 346 b 558 294 568 296 563 294 b 543 338 547 294 543 314 z m 700 -61 b 454 40 556 -57 494 0 b 196 -61 386 -24 285 -61 b 69 -24 142 -61 101 -49 b 233 -99 104 -68 153 -99 b 461 -3 350 -99 414 -46 b 738 -99 526 -67 618 -99 b 1011 115 875 -99 1011 -29 b 967 172 1011 144 988 169 b 971 153 969 168 971 161 b 700 -61 971 -4 831 -61 z m 694 157 l 1000 396 b 1019 435 1014 407 1019 424 b 931 557 1019 461 1010 517 b 981 472 975 518 981 478 b 961 435 981 456 975 443 l 647 189 b 639 175 642 185 639 179 b 694 157 639 165 653 158 z m 85 411 b 138 369 94 393 111 374 b 308 439 181 390 251 435 b 329 461 322 446 329 454 b 275 476 329 471 311 476 b 106 408 193 476 124 408 b 85 411 94 408 92 410 z m 258 147 b 338 247 282 179 338 189 b 210 156 281 231 210 203 b 231 142 210 146 215 142 b 258 147 242 142 251 143 z m 681 461 b 582 356 621 461 589 401 b 704 454 636 390 704 446 b 681 461 704 458 696 461 z "},"":{"ha":643,"x_min":0,"x_max":0,"o":"m 318 640 b 22 304 144 640 22 529 b 317 -22 22 129 121 -22 b 543 224 447 -22 543 76 b 532 233 543 231 539 233 b 525 231 529 233 528 232 b 338 119 457 153 390 119 b 186 335 201 119 186 221 b 318 499 186 422 233 499 b 479 465 364 499 435 485 b 486 463 481 464 483 463 b 501 474 493 463 499 465 l 526 564 b 528 572 528 567 528 569 b 318 640 528 619 368 640 z m 568 574 l 529 442 b 503 421 526 428 517 421 b 475 431 499 421 483 428 b 321 461 400 458 357 461 b 224 335 253 461 224 400 b 281 169 224 263 231 196 b 261 297 264 203 261 247 b 328 424 261 363 290 424 b 482 382 379 424 428 404 b 515 374 494 378 506 374 b 549 397 528 374 542 379 l 603 528 b 607 543 606 533 607 540 b 561 586 607 565 585 582 b 568 574 567 582 568 578 z m 581 224 b 317 -61 581 51 468 -61 b 107 7 231 -61 161 -35 b 354 -99 149 -62 215 -99 b 618 186 507 -99 618 14 b 579 232 618 211 600 229 b 581 224 581 231 581 228 z m 235 -142 b 225 -151 229 -142 225 -144 b 233 -207 225 -157 233 -175 b 189 -342 233 -286 211 -319 b 200 -353 189 -349 193 -353 b 376 -196 307 -353 376 -250 b 311 -142 376 -167 361 -142 z m 414 -196 b 200 -390 414 -257 329 -390 b 189 -389 194 -390 190 -390 b 238 -429 194 -415 217 -429 b 453 -233 368 -429 453 -294 b 407 -156 453 -201 442 -171 b 414 -196 413 -168 414 -182 z "},"":{"ha":676,"x_min":0,"x_max":0,"o":"m 336 640 b 22 324 111 640 22 467 b 343 -22 22 131 131 -22 b 576 150 456 -22 576 44 b 533 179 576 169 568 179 b 501 169 524 179 514 175 b 350 119 451 138 394 119 b 239 181 274 119 239 151 b 275 226 239 190 250 207 l 578 461 b 586 472 583 465 586 468 b 582 483 586 475 585 479 b 336 640 510 594 424 640 z m 343 -61 b 111 13 246 -61 171 -32 b 381 -99 163 -62 236 -99 b 654 115 518 -99 654 -29 b 610 172 654 144 631 169 b 614 153 613 168 614 161 b 343 -61 614 -4 474 -61 z m 338 157 l 643 396 b 663 435 657 407 663 424 b 572 557 663 478 650 515 b 624 472 618 521 624 476 b 604 435 624 456 618 443 l 290 189 b 282 175 285 185 282 179 b 338 157 282 165 296 158 z m 186 338 b 321 499 186 399 235 499 b 388 460 350 499 388 492 b 219 303 388 418 275 346 b 201 294 211 296 206 294 b 186 338 190 294 186 314 z m 324 461 b 225 356 263 461 232 401 b 347 454 279 392 347 444 b 324 461 347 458 339 461 z m 190 942 b 114 840 156 942 114 888 b 122 832 114 836 115 833 b 400 751 225 818 319 793 b 410 749 404 751 406 749 b 421 757 413 749 417 751 l 443 796 b 444 803 443 800 444 801 b 435 818 444 810 439 814 l 404 844 b 190 942 342 897 267 933 z m 447 672 b 488 694 460 672 478 676 l 517 746 b 521 765 519 751 521 758 b 478 819 521 790 500 810 b 485 800 482 815 485 810 b 474 776 485 796 479 786 l 453 736 b 410 710 444 719 426 710 b 363 726 390 710 376 721 b 104 797 271 767 181 788 b 158 756 114 783 124 761 b 425 676 254 742 343 718 b 447 672 433 672 443 672 z "},"":{"ha":676,"x_min":0,"x_max":0,"o":"m 336 640 b 22 324 111 640 22 467 b 343 -22 22 131 131 -22 b 576 150 456 -22 576 44 b 533 179 576 169 568 179 b 501 169 524 179 514 175 b 350 119 451 138 394 119 b 239 181 274 119 239 151 b 275 226 239 190 250 207 l 578 461 b 586 472 583 465 586 468 b 582 483 586 475 585 479 b 336 640 510 594 424 640 z m 343 -61 b 111 13 246 -61 171 -32 b 381 -99 163 -62 236 -99 b 654 115 518 -99 654 -29 b 610 172 654 144 631 169 b 614 153 613 168 614 161 b 343 -61 614 -4 474 -61 z m 338 157 l 643 396 b 663 435 657 407 663 424 b 572 557 663 478 650 515 b 624 472 618 521 624 476 b 604 435 624 456 618 443 l 290 189 b 282 175 285 185 282 179 b 338 157 282 165 296 158 z m 186 338 b 321 499 186 399 235 499 b 388 460 350 499 388 492 b 219 303 388 418 275 346 b 201 294 211 296 206 294 b 186 338 190 294 186 314 z m 324 461 b 225 356 263 461 232 401 b 347 454 279 392 347 444 b 324 461 347 458 339 461 z m 501 921 b 531 840 519 897 531 871 b 486 794 531 804 511 797 b 278 742 415 785 342 765 b 182 710 238 726 218 713 b 233 672 201 674 214 672 b 256 676 238 672 247 672 b 524 756 338 718 428 742 b 568 803 550 763 568 774 b 501 921 568 860 543 903 z m 413 942 b 167 815 317 942 228 876 b 161 804 163 811 161 808 b 164 793 161 801 163 797 l 186 753 b 194 749 188 750 190 749 b 213 756 199 749 208 753 b 483 832 294 796 386 819 b 492 840 490 833 492 838 b 413 942 492 890 446 942 z "},"":{"ha":676,"x_min":0,"x_max":0,"o":"m 336 640 b 22 324 111 640 22 467 b 343 -22 22 131 131 -22 b 576 150 456 -22 576 44 b 533 179 576 169 568 179 b 501 169 524 179 514 175 b 350 119 451 138 394 119 b 239 181 274 119 239 151 b 275 226 239 190 250 207 l 578 461 b 586 472 583 465 586 468 b 582 483 586 475 585 479 b 336 640 510 594 424 640 z m 343 -61 b 111 13 246 -61 171 -32 b 381 -99 163 -62 236 -99 b 654 115 518 -99 654 -29 b 610 172 654 144 631 169 b 614 153 613 168 614 161 b 343 -61 614 -4 474 -61 z m 338 157 l 643 396 b 663 435 657 407 663 424 b 572 557 663 478 650 515 b 624 472 618 521 624 476 b 604 435 624 456 618 443 l 290 189 b 282 175 285 185 282 179 b 338 157 282 165 296 158 z m 186 338 b 321 499 186 399 235 499 b 388 460 350 499 388 492 b 219 303 388 418 275 346 b 201 294 211 296 206 294 b 186 338 190 294 186 314 z m 324 461 b 225 356 263 461 232 401 b 347 454 279 392 347 444 b 324 461 347 458 339 461 z m 251 942 b 242 933 247 942 243 939 b 121 788 221 871 167 818 b 117 779 118 785 117 782 b 167 749 117 758 133 749 b 276 844 201 749 250 806 b 408 750 303 800 351 750 b 486 796 440 750 486 767 b 479 804 486 799 483 803 b 338 935 414 833 357 885 b 328 942 336 939 332 942 z m 524 796 b 401 711 524 740 447 711 b 275 781 350 711 310 742 b 167 710 243 744 204 710 b 118 717 147 710 133 711 b 206 672 128 688 156 672 b 308 736 240 672 278 703 b 440 674 342 697 389 674 b 563 757 467 674 563 703 b 522 803 563 776 539 803 b 524 796 524 801 524 799 z "},"":{"ha":676,"x_min":0,"x_max":0,"o":"m 336 640 b 22 324 111 640 22 467 b 343 -22 22 131 131 -22 b 576 150 456 -22 576 44 b 533 179 576 169 568 179 b 501 169 524 179 514 175 b 350 119 451 138 394 119 b 239 181 274 119 239 151 b 275 226 239 190 250 207 l 578 461 b 586 472 583 465 586 468 b 582 483 586 475 585 479 b 336 640 510 594 424 640 z m 343 -61 b 111 13 246 -61 171 -32 b 381 -99 163 -62 236 -99 b 654 115 518 -99 654 -29 b 610 172 654 144 631 169 b 614 153 613 168 614 161 b 343 -61 614 -4 474 -61 z m 338 157 l 643 396 b 663 435 657 407 663 424 b 572 557 663 478 650 515 b 624 472 618 521 624 476 b 604 435 624 456 618 443 l 290 189 b 282 175 285 185 282 179 b 338 157 282 165 296 158 z m 186 338 b 321 499 186 399 235 499 b 388 460 350 499 388 492 b 219 303 388 418 275 346 b 201 294 211 296 206 294 b 186 338 190 294 186 314 z m 324 461 b 225 356 263 461 232 401 b 347 454 279 392 347 444 b 324 461 347 458 339 461 z m 589 915 b 606 849 600 900 606 876 b 471 708 606 756 561 708 b 336 754 408 708 363 724 b 508 671 356 701 413 671 b 643 811 599 671 643 718 b 589 915 643 858 625 894 z m 307 849 b 311 888 307 863 308 876 b 279 915 301 900 292 908 b 294 849 289 899 294 875 b 160 708 294 756 250 708 b 51 732 114 708 78 717 b 197 671 76 692 125 671 b 328 763 272 671 315 701 b 307 849 314 776 307 828 z m 344 849 b 471 747 344 781 386 747 b 567 849 535 747 567 781 b 442 942 567 910 525 942 b 344 849 376 942 344 910 z m 33 849 b 160 747 33 781 76 747 b 256 849 224 747 256 781 b 132 942 256 910 214 942 b 33 849 67 942 33 910 z "},"":{"ha":304,"x_min":0,"x_max":0,"o":"m 193 613 b 185 622 193 618 190 622 l 42 622 b 32 613 36 622 32 618 l 32 10 b 42 0 32 4 36 0 l 185 0 b 193 10 190 0 193 4 z m 269 574 b 231 621 269 596 254 618 l 231 10 b 185 -37 231 -14 211 -37 l 33 -37 b 81 -76 38 -57 58 -76 l 222 -76 b 269 -28 249 -76 269 -51 z m 4 942 b -72 840 -31 942 -72 888 b -64 832 -72 836 -71 833 b 214 751 39 818 133 793 b 224 749 218 751 219 749 b 235 757 226 749 231 751 l 257 796 b 258 803 257 800 258 801 b 249 818 258 810 253 814 l 218 844 b 4 942 156 897 81 933 z m 261 672 b 301 694 274 672 292 676 l 331 746 b 335 765 333 751 335 758 b 292 819 335 790 314 810 b 299 800 296 815 299 810 b 288 776 299 796 293 786 l 267 736 b 224 710 258 719 240 710 b 176 726 204 710 190 721 b -82 797 85 767 -6 788 b -28 756 -72 783 -62 761 b 239 676 68 742 157 718 b 261 672 247 672 257 672 z "},"":{"ha":304,"x_min":0,"x_max":0,"o":"m 193 613 b 185 622 193 618 190 622 l 42 622 b 32 613 36 622 32 618 l 32 10 b 42 0 32 4 36 0 l 185 0 b 193 10 190 0 193 4 z m 269 574 b 231 621 269 596 254 618 l 231 10 b 185 -37 231 -14 211 -37 l 33 -37 b 81 -76 38 -57 58 -76 l 222 -76 b 269 -28 249 -76 269 -51 z m 324 921 b 353 840 342 897 353 871 b 308 794 353 804 333 797 b 100 742 238 785 164 765 b 4 710 60 726 40 713 b 56 672 24 674 36 672 b 78 676 60 672 69 672 b 346 756 160 718 250 742 b 390 803 372 763 390 774 b 324 921 390 860 365 903 z m 235 942 b -11 815 139 942 50 876 b -17 804 -15 811 -17 808 b -14 793 -17 801 -15 797 l 8 753 b 17 749 10 750 13 749 b 35 756 21 749 31 753 b 306 832 117 796 208 819 b 314 840 313 833 314 838 b 235 942 314 890 268 942 z "},"":{"ha":304,"x_min":0,"x_max":0,"o":"m 193 613 b 185 622 193 618 190 622 l 42 622 b 32 613 36 622 32 618 l 32 10 b 42 0 32 4 36 0 l 185 0 b 193 10 190 0 193 4 z m 269 574 b 231 621 269 596 254 618 l 231 10 b 185 -37 231 -14 211 -37 l 33 -37 b 81 -76 38 -57 58 -76 l 222 -76 b 269 -28 249 -76 269 -51 z m 74 942 b 64 933 69 942 65 939 b -57 788 43 871 -11 818 b -61 779 -60 785 -61 782 b -11 749 -61 758 -44 749 b 99 844 24 749 72 806 b 231 750 125 800 174 750 b 308 796 263 750 308 767 b 301 804 308 799 306 803 b 160 935 236 833 179 885 b 150 942 158 939 154 942 z m 346 796 b 224 711 346 740 269 711 b 97 781 172 711 132 742 b -11 710 65 744 26 710 b -60 717 -31 710 -44 711 b 28 672 -50 688 -22 672 b 131 736 63 672 100 703 b 263 674 164 697 211 674 b 385 757 289 674 385 703 b 344 803 385 776 361 803 b 346 796 346 801 346 799 z "},"":{"ha":304,"x_min":0,"x_max":0,"o":"m 193 613 b 185 622 193 618 190 622 l 42 622 b 32 613 36 622 32 618 l 32 10 b 42 0 32 4 36 0 l 185 0 b 193 10 190 0 193 4 z m 269 574 b 231 621 269 596 254 618 l 231 10 b 185 -37 231 -14 211 -37 l 33 -37 b 81 -76 38 -57 58 -76 l 222 -76 b 269 -28 249 -76 269 -51 z m 403 915 b 419 849 414 900 419 876 b 285 708 419 756 375 708 b 150 754 222 708 176 724 b 322 671 169 701 226 671 b 457 811 413 671 457 718 b 403 915 457 858 439 894 z m 121 849 b 125 888 121 863 122 876 b 93 915 115 900 106 908 b 108 849 103 899 108 875 b -26 708 108 756 64 708 b -135 732 -72 708 -108 717 b 11 671 -110 692 -61 671 b 142 763 86 671 129 701 b 121 849 128 776 121 828 z m 158 849 b 285 747 158 781 200 747 b 381 849 349 747 381 781 b 256 942 381 910 339 942 b 158 849 190 942 158 910 z m -153 849 b -26 747 -153 781 -110 747 b 69 849 38 747 69 781 b -54 942 69 910 28 942 b -153 849 -119 942 -153 910 z "},"":{"ha":751,"x_min":0,"x_max":0,"o":"m 317 1015 b 118 882 214 1015 118 953 b 129 872 118 875 122 872 l 289 872 b 390 840 331 872 364 863 b 253 776 325 790 293 776 b 243 767 246 776 243 774 b 246 760 243 764 244 761 b 363 690 285 713 324 690 b 454 739 386 690 408 700 b 485 604 468 699 476 654 b 339 640 449 625 394 640 b 21 324 149 640 21 514 b 319 -22 21 92 131 -22 b 642 361 597 -22 642 204 b 567 836 642 506 628 694 b 676 901 597 858 676 894 l 676 908 b 574 964 642 944 610 964 b 501 935 550 964 526 954 b 317 1015 457 981 394 1015 z m 182 324 b 332 499 182 426 226 499 b 481 314 468 499 481 435 b 335 119 481 246 446 119 b 182 324 215 119 182 206 z m 715 901 b 614 824 715 850 649 847 b 679 361 668 681 679 499 b 319 -61 679 189 631 -61 b 103 4 229 -61 157 -39 b 357 -99 147 -67 214 -99 b 718 322 668 -99 718 151 b 651 785 718 457 703 643 b 753 864 688 810 753 811 b 708 925 753 893 731 914 b 715 901 715 914 715 911 z m 258 286 b 369 424 258 367 289 424 b 429 413 392 424 411 419 b 332 461 415 444 389 461 b 219 324 250 461 219 406 b 278 169 219 247 232 193 b 258 286 263 199 258 239 z m 253 814 b 315 833 272 814 290 818 b 303 835 313 835 308 835 l 118 835 b 168 796 122 813 142 796 l 213 796 b 253 814 222 808 236 814 z "},"":{"ha":708,"x_min":0,"x_max":0,"o":"m 358 499 b 436 378 425 499 436 442 l 436 10 b 446 0 436 4 439 0 l 588 0 b 599 10 594 0 599 4 l 599 394 b 397 640 599 536 529 640 b 171 554 289 640 217 554 b 132 632 156 554 136 579 b 125 640 132 638 129 640 b 32 618 83 640 32 631 l 32 10 b 42 0 32 4 36 0 l 185 0 b 193 10 190 0 193 4 l 193 339 b 358 499 193 399 257 499 z m 358 461 b 231 339 281 461 231 385 l 231 10 b 185 -37 231 -14 211 -37 l 33 -37 b 81 -76 38 -57 58 -76 l 222 -76 b 269 -28 249 -76 269 -51 l 269 301 b 394 424 269 346 318 424 b 358 461 389 444 378 461 z m 636 394 l 636 10 b 588 -37 636 -14 613 -37 l 438 -37 b 483 -76 442 -57 463 -76 l 626 -76 b 675 -28 650 -76 675 -51 l 675 356 b 579 592 675 483 653 556 b 636 394 618 543 636 475 z m 169 640 b 178 592 171 635 169 592 b 204 610 183 592 190 597 b 169 640 199 626 186 636 z m 207 910 b 118 829 153 910 118 869 b 156 775 118 813 128 775 b 219 804 168 775 176 804 b 414 778 276 804 332 778 b 514 858 461 778 514 810 b 483 915 514 869 510 915 b 474 910 479 915 475 914 b 419 876 463 881 446 876 b 207 910 364 876 292 910 z m 258 728 b 453 701 314 728 369 701 b 590 821 517 701 590 749 b 540 913 590 861 579 894 b 553 858 550 888 553 881 b 414 739 553 786 479 739 b 219 767 332 739 276 767 b 154 736 181 767 181 736 b 129 744 142 736 136 738 b 192 697 138 717 168 697 b 258 728 219 697 232 728 z "},"":{"ha":735,"x_min":0,"x_max":0,"o":"m 329 639 b 24 290 158 639 24 542 b 329 -22 24 119 144 -22 b 635 325 499 -22 635 75 b 329 639 635 499 513 639 z m 474 274 b 329 121 474 182 419 121 b 186 343 221 121 186 210 b 315 497 186 435 240 497 b 474 274 439 497 474 407 z m 674 325 b 329 -61 674 50 521 -61 b 108 15 242 -61 168 -32 b 367 -99 156 -65 257 -99 b 711 288 558 -99 711 11 b 596 554 711 394 676 499 b 674 325 646 493 674 413 z m 315 458 b 224 343 263 458 224 413 b 286 168 224 256 240 192 b 261 306 269 200 261 246 b 353 421 261 375 301 421 b 410 408 375 421 394 417 b 315 458 392 439 361 458 z m 219 942 b 143 840 185 942 143 888 b 151 832 143 836 144 833 b 429 751 254 818 349 793 b 439 749 433 751 435 749 b 450 757 442 749 446 751 l 472 796 b 474 803 472 800 474 801 b 464 818 474 810 468 814 l 433 844 b 219 942 371 897 296 933 z m 476 672 b 517 694 489 672 507 676 l 546 746 b 550 765 549 751 550 758 b 507 819 550 790 529 810 b 514 800 511 815 514 810 b 503 776 514 796 508 786 l 482 736 b 439 710 474 719 456 710 b 392 726 419 710 406 721 b 133 797 300 767 210 788 b 188 756 143 783 153 761 b 454 676 283 742 372 718 b 476 672 463 672 472 672 z "},"":{"ha":735,"x_min":0,"x_max":0,"o":"m 329 639 b 24 290 158 639 24 542 b 329 -22 24 119 144 -22 b 635 325 499 -22 635 75 b 329 639 635 499 513 639 z m 474 274 b 329 121 474 182 419 121 b 186 343 221 121 186 210 b 315 497 186 435 240 497 b 474 274 439 497 474 407 z m 674 325 b 329 -61 674 50 521 -61 b 108 15 242 -61 168 -32 b 367 -99 156 -65 257 -99 b 711 288 558 -99 711 11 b 596 554 711 394 676 499 b 674 325 646 493 674 413 z m 315 458 b 224 343 263 458 224 413 b 286 168 224 256 240 192 b 261 306 269 200 261 246 b 353 421 261 375 301 421 b 410 408 375 421 394 417 b 315 458 392 439 361 458 z m 529 921 b 558 840 547 897 558 871 b 514 794 558 804 539 797 b 306 742 443 785 369 765 b 210 710 265 726 246 713 b 261 672 229 674 242 672 b 283 676 265 672 275 672 b 551 756 365 718 456 742 b 596 803 578 763 596 774 b 529 921 596 860 571 903 z m 440 942 b 194 815 344 942 256 876 b 189 804 190 811 189 808 b 192 793 189 801 190 797 l 214 753 b 222 749 215 750 218 749 b 240 756 226 749 236 753 b 511 832 322 796 414 819 b 519 840 518 833 519 838 b 440 942 519 890 474 942 z "},"":{"ha":735,"x_min":0,"x_max":0,"o":"m 329 639 b 24 290 158 639 24 542 b 329 -22 24 119 144 -22 b 635 325 499 -22 635 75 b 329 639 635 499 513 639 z m 474 274 b 329 121 474 182 419 121 b 186 343 221 121 186 210 b 315 497 186 435 240 497 b 474 274 439 497 474 407 z m 674 325 b 329 -61 674 50 521 -61 b 108 15 242 -61 168 -32 b 367 -99 156 -65 257 -99 b 711 288 558 -99 711 11 b 596 554 711 394 676 499 b 674 325 646 493 674 413 z m 315 458 b 224 343 263 458 224 413 b 286 168 224 256 240 192 b 261 306 269 200 261 246 b 353 421 261 375 301 421 b 410 408 375 421 394 417 b 315 458 392 439 361 458 z m 279 942 b 269 933 275 942 271 939 b 149 788 249 871 194 818 b 144 779 146 785 144 782 b 194 749 144 758 161 749 b 304 844 229 749 278 806 b 436 750 331 800 379 750 b 514 796 468 750 514 767 b 507 804 514 799 511 803 b 365 935 442 833 385 885 b 356 942 364 939 360 942 z m 551 796 b 429 711 551 740 475 711 b 303 781 378 711 338 742 b 194 710 271 744 232 710 b 146 717 175 710 161 711 b 233 672 156 688 183 672 b 336 736 268 672 306 703 b 468 674 369 697 417 674 b 590 757 494 674 590 703 b 550 803 590 776 567 803 b 551 796 551 801 551 799 z "},"":{"ha":735,"x_min":0,"x_max":0,"o":"m 329 639 b 24 290 158 639 24 542 b 329 -22 24 119 144 -22 b 635 325 499 -22 635 75 b 329 639 635 499 513 639 z m 474 274 b 329 121 474 182 419 121 b 186 343 221 121 186 210 b 315 497 186 435 240 497 b 474 274 439 497 474 407 z m 674 325 b 329 -61 674 50 521 -61 b 108 15 242 -61 168 -32 b 367 -99 156 -65 257 -99 b 711 288 558 -99 711 11 b 596 554 711 394 676 499 b 674 325 646 493 674 413 z m 315 458 b 224 343 263 458 224 413 b 286 168 224 256 240 192 b 261 306 269 200 261 246 b 353 421 261 375 301 421 b 410 408 375 421 394 417 b 315 458 392 439 361 458 z m 219 910 b 131 829 165 910 131 869 b 168 775 131 813 140 775 b 232 804 181 775 189 804 b 426 778 289 804 344 778 b 526 858 474 778 526 810 b 496 915 526 869 522 915 b 486 910 492 915 488 914 b 432 876 475 881 458 876 b 219 910 376 876 304 910 z m 271 728 b 465 701 326 728 382 701 b 603 821 529 701 603 749 b 553 913 603 861 592 894 b 565 858 563 888 565 881 b 426 739 565 786 492 739 b 232 767 344 739 289 767 b 167 736 193 767 193 736 b 142 744 154 736 149 738 b 204 697 150 717 181 697 b 271 728 232 697 244 728 z "},"":{"ha":735,"x_min":0,"x_max":0,"o":"m 329 639 b 24 290 158 639 24 542 b 329 -22 24 119 144 -22 b 635 325 499 -22 635 75 b 329 639 635 499 513 639 z m 474 274 b 329 121 474 182 419 121 b 186 343 221 121 186 210 b 315 497 186 435 240 497 b 474 274 439 497 474 407 z m 674 325 b 329 -61 674 50 521 -61 b 108 15 242 -61 168 -32 b 367 -99 156 -65 257 -99 b 711 288 558 -99 711 11 b 596 554 711 394 676 499 b 674 325 646 493 674 413 z m 315 458 b 224 343 263 458 224 413 b 286 168 224 256 240 192 b 261 306 269 200 261 246 b 353 421 261 375 301 421 b 410 408 375 421 394 417 b 315 458 392 439 361 458 z m 618 915 b 635 849 629 900 635 876 b 500 708 635 756 590 708 b 365 754 438 708 392 724 b 538 671 385 701 442 671 b 672 811 628 671 672 718 b 618 915 672 858 654 894 z m 336 849 b 340 888 336 863 338 876 b 308 915 331 900 321 908 b 324 849 318 899 324 875 b 189 708 324 756 279 708 b 81 732 143 708 107 717 b 226 671 106 692 154 671 b 357 763 301 671 344 701 b 336 849 343 776 336 828 z m 374 849 b 500 747 374 781 415 747 b 596 849 564 747 596 781 b 471 942 596 910 554 942 b 374 849 406 942 374 910 z m 63 849 b 189 747 63 781 106 747 b 285 849 253 747 285 781 b 161 942 285 910 243 942 b 63 849 96 942 63 910 z "},"":{"ha":671,"x_min":0,"x_max":0,"o":"m 38 442 l 571 442 b 581 451 576 442 581 444 l 581 572 b 571 583 581 579 576 583 l 38 583 b 26 572 31 583 26 579 l 26 451 b 38 442 26 444 32 446 z m 185 261 b 319 151 185 188 231 151 b 424 261 390 151 424 188 b 289 361 424 328 379 361 b 185 261 218 361 185 328 z m 185 778 b 319 668 185 706 231 668 b 424 778 390 668 424 706 b 289 876 424 843 379 876 b 185 778 218 876 185 843 z m 444 333 b 463 261 456 314 463 290 b 319 113 463 163 415 113 b 204 139 271 113 233 119 b 358 75 231 97 282 75 b 500 224 454 75 500 125 b 444 333 500 274 482 310 z m 571 404 l 331 404 b 424 365 382 396 404 382 l 608 365 b 657 413 632 365 657 386 l 657 535 b 618 582 657 556 638 576 l 618 451 b 571 404 618 424 594 404 z m 424 618 b 461 624 438 618 450 619 b 500 739 486 647 500 688 b 446 849 500 790 483 826 b 463 778 457 828 463 804 b 319 631 463 679 415 631 b 204 654 271 631 231 638 b 242 618 214 640 225 628 z m 10 410 b 75 365 33 396 42 365 l 179 365 b 278 404 201 385 231 397 l 38 404 b 10 410 28 404 19 407 z "},"":{"ha":731,"x_min":0,"x_max":0,"o":"m 611 731 b 551 738 592 736 572 738 b 379 635 503 738 435 704 b 326 639 363 638 344 639 b 22 290 156 639 22 542 b 118 56 22 199 57 113 b 42 -22 96 3 82 -7 b 36 -32 38 -24 36 -28 b 131 -117 36 -86 81 -117 b 260 -17 188 -117 235 -67 b 326 -22 281 -21 304 -22 b 632 325 496 -22 632 75 b 514 576 632 428 588 519 b 624 707 544 644 576 685 b 628 717 626 708 628 713 b 611 731 628 726 618 728 z m 657 731 b 663 711 661 725 663 719 b 561 572 663 679 613 682 b 671 325 640 518 671 425 b 378 -57 671 65 488 -57 b 288 -50 339 -57 308 -54 b 131 -156 247 -121 192 -156 b 51 -133 103 -156 76 -147 b 169 -193 76 -172 119 -193 b 317 -97 229 -193 283 -147 b 364 -99 332 -97 349 -99 b 708 288 557 -99 708 11 b 608 550 708 414 665 499 b 700 688 671 663 700 649 b 657 731 700 711 675 724 z m 183 343 b 313 497 183 435 238 497 b 371 488 335 497 354 493 l 218 174 b 183 343 193 214 183 272 z m 471 274 b 326 121 471 182 417 121 b 301 122 318 121 308 121 l 440 428 b 471 274 463 390 471 336 z "},"":{"ha":697,"x_min":0,"x_max":0,"o":"m 267 119 b 193 242 200 119 193 176 l 193 613 b 185 622 193 618 190 622 l 42 622 b 32 613 36 622 32 618 l 32 224 b 228 -22 32 85 97 -22 b 449 65 361 -22 385 65 b 486 -14 463 65 483 38 b 494 -22 486 -21 489 -22 b 588 0 535 -22 588 -12 l 588 613 b 576 622 588 618 583 622 l 435 622 b 425 613 428 622 425 618 l 425 278 b 267 119 425 218 367 119 z m 625 0 b 486 -61 625 -36 554 -61 b 532 -99 492 -82 507 -99 b 663 -37 592 -99 663 -74 l 663 574 b 625 621 663 594 644 617 z m 269 157 l 269 574 b 231 621 269 596 254 618 l 231 242 b 269 157 231 197 232 157 z m 447 -1 b 449 26 447 10 447 15 b 228 -61 407 26 363 -61 b 90 -18 171 -61 126 -44 b 265 -99 125 -72 178 -99 b 450 -28 361 -99 415 -62 b 447 -1 449 -19 447 -10 z m 200 942 b 124 840 165 942 124 888 b 132 832 124 836 125 833 b 410 751 235 818 329 793 b 419 749 414 751 415 749 b 431 757 422 749 426 751 l 453 796 b 454 803 453 800 454 801 b 444 818 454 810 449 814 l 414 844 b 200 942 351 897 276 933 z m 457 672 b 497 694 469 672 488 676 l 526 746 b 531 765 529 751 531 758 b 488 819 531 790 510 810 b 494 800 492 815 494 810 b 483 776 494 796 489 786 l 463 736 b 419 710 454 719 436 710 b 372 726 400 710 386 721 b 114 797 281 767 190 788 b 168 756 124 783 133 761 b 435 676 264 742 353 718 b 457 672 443 672 453 672 z "},"":{"ha":697,"x_min":0,"x_max":0,"o":"m 267 119 b 193 242 200 119 193 176 l 193 613 b 185 622 193 618 190 622 l 42 622 b 32 613 36 622 32 618 l 32 224 b 228 -22 32 85 97 -22 b 449 65 361 -22 385 65 b 486 -14 463 65 483 38 b 494 -22 486 -21 489 -22 b 588 0 535 -22 588 -12 l 588 613 b 576 622 588 618 583 622 l 435 622 b 425 613 428 622 425 618 l 425 278 b 267 119 425 218 367 119 z m 625 0 b 486 -61 625 -36 554 -61 b 532 -99 492 -82 507 -99 b 663 -37 592 -99 663 -74 l 663 574 b 625 621 663 594 644 617 z m 269 157 l 269 574 b 231 621 269 596 254 618 l 231 242 b 269 157 231 197 232 157 z m 447 -1 b 449 26 447 10 447 15 b 228 -61 407 26 363 -61 b 90 -18 171 -61 126 -44 b 265 -99 125 -72 178 -99 b 450 -28 361 -99 415 -62 b 447 -1 449 -19 447 -10 z m 511 921 b 540 840 529 897 540 871 b 496 794 540 804 521 797 b 288 742 425 785 351 765 b 192 710 247 726 228 713 b 243 672 211 674 224 672 b 265 676 247 672 257 672 b 533 756 347 718 438 742 b 578 803 560 763 578 774 b 511 921 578 860 553 903 z m 422 942 b 176 815 326 942 238 876 b 171 804 172 811 171 808 b 174 793 171 801 172 797 l 196 753 b 204 749 197 750 200 749 b 222 756 208 749 218 753 b 493 832 304 796 396 819 b 501 840 500 833 501 838 b 422 942 501 890 456 942 z "},"":{"ha":697,"x_min":0,"x_max":0,"o":"m 267 119 b 193 242 200 119 193 176 l 193 613 b 185 622 193 618 190 622 l 42 622 b 32 613 36 622 32 618 l 32 224 b 228 -22 32 85 97 -22 b 449 65 361 -22 385 65 b 486 -14 463 65 483 38 b 494 -22 486 -21 489 -22 b 588 0 535 -22 588 -12 l 588 613 b 576 622 588 618 583 622 l 435 622 b 425 613 428 622 425 618 l 425 278 b 267 119 425 218 367 119 z m 625 0 b 486 -61 625 -36 554 -61 b 532 -99 492 -82 507 -99 b 663 -37 592 -99 663 -74 l 663 574 b 625 621 663 594 644 617 z m 269 157 l 269 574 b 231 621 269 596 254 618 l 231 242 b 269 157 231 197 232 157 z m 447 -1 b 449 26 447 10 447 15 b 228 -61 407 26 363 -61 b 90 -18 171 -61 126 -44 b 265 -99 125 -72 178 -99 b 450 -28 361 -99 415 -62 b 447 -1 449 -19 447 -10 z m 261 942 b 251 933 257 942 253 939 b 131 788 231 871 176 818 b 126 779 128 785 126 782 b 176 749 126 758 143 749 b 286 844 211 749 260 806 b 418 750 313 800 361 750 b 496 796 450 750 496 767 b 489 804 496 799 493 803 b 347 935 424 833 367 885 b 338 942 346 939 342 942 z m 533 796 b 411 711 533 740 457 711 b 285 781 360 711 319 742 b 176 710 253 744 214 710 b 128 717 157 710 143 711 b 215 672 138 688 165 672 b 318 736 250 672 288 703 b 450 674 351 697 399 674 b 572 757 476 674 572 703 b 532 803 572 776 549 803 b 533 796 533 801 533 799 z "},"":{"ha":697,"x_min":0,"x_max":0,"o":"m 267 119 b 193 242 200 119 193 176 l 193 613 b 185 622 193 618 190 622 l 42 622 b 32 613 36 622 32 618 l 32 224 b 228 -22 32 85 97 -22 b 449 65 361 -22 385 65 b 486 -14 463 65 483 38 b 494 -22 486 -21 489 -22 b 588 0 535 -22 588 -12 l 588 613 b 576 622 588 618 583 622 l 435 622 b 425 613 428 622 425 618 l 425 278 b 267 119 425 218 367 119 z m 625 0 b 486 -61 625 -36 554 -61 b 532 -99 492 -82 507 -99 b 663 -37 592 -99 663 -74 l 663 574 b 625 621 663 594 644 617 z m 269 157 l 269 574 b 231 621 269 596 254 618 l 231 242 b 269 157 231 197 232 157 z m 447 -1 b 449 26 447 10 447 15 b 228 -61 407 26 363 -61 b 90 -18 171 -61 126 -44 b 265 -99 125 -72 178 -99 b 450 -28 361 -99 415 -62 b 447 -1 449 -19 447 -10 z m 599 915 b 615 849 610 900 615 876 b 481 708 615 756 571 708 b 346 754 418 708 372 724 b 518 671 365 701 422 671 b 653 811 608 671 653 718 b 599 915 653 858 635 894 z m 317 849 b 321 888 317 863 318 876 b 289 915 311 900 301 908 b 304 849 299 899 304 875 b 169 708 304 756 260 708 b 61 732 124 708 88 717 b 207 671 86 692 135 671 b 338 763 282 671 325 701 b 317 849 324 776 317 828 z m 354 849 b 481 747 354 781 396 747 b 576 849 544 747 576 781 b 451 942 576 910 535 942 b 354 849 386 942 354 910 z m 43 849 b 169 747 43 781 86 747 b 265 849 233 747 265 781 b 142 942 265 910 224 942 b 43 849 76 942 43 910 z "},"":{"ha":679,"x_min":0,"x_max":0,"o":"m 10 622 b 0 613 4 622 0 618 b 1 607 0 610 0 608 b 111 285 54 515 85 428 b 285 4 132 176 192 44 b 72 -169 233 -111 118 -169 b 14 -97 40 -169 22 -144 b 4 -89 13 -92 8 -89 b -72 -194 -47 -89 -72 -156 b 74 -311 -72 -260 3 -311 b 588 458 369 -311 588 214 b 544 622 588 504 574 622 l 422 622 b 411 613 415 622 411 618 b 413 607 411 610 411 608 b 444 494 432 572 444 531 b 350 115 444 381 400 160 b 250 319 311 126 260 269 b 151 619 232 411 201 565 b 143 622 150 621 146 622 z m 626 458 b 74 -350 626 201 392 -350 b -101 -240 -3 -350 -72 -306 b 111 -387 -82 -336 -12 -387 b 664 421 429 -387 664 163 b 589 621 664 471 640 611 b 626 458 614 572 626 496 z m 288 325 b 343 171 293 292 319 208 b 353 194 347 174 350 185 b 239 581 307 308 306 482 b 201 617 226 599 217 610 b 288 325 246 542 271 410 z m 50 -86 b 72 -131 51 -115 63 -131 b 89 -128 75 -131 81 -129 b 50 -86 82 -110 61 -93 z m 503 921 b 532 840 521 897 532 871 b 488 794 532 804 513 797 b 279 742 417 785 343 765 b 183 710 239 726 219 713 b 235 672 203 674 215 672 b 257 676 239 672 249 672 b 525 756 339 718 429 742 b 569 803 551 763 569 774 b 503 921 569 860 544 903 z m 414 942 b 168 815 318 942 229 876 b 163 804 164 811 163 808 b 165 793 163 801 164 797 l 188 753 b 196 749 189 750 192 749 b 214 756 200 749 210 753 b 485 832 296 796 388 819 b 493 840 492 833 493 838 b 414 942 493 890 447 942 z "},"":{"ha":735,"x_min":0,"x_max":0,"o":"m 193 -22 l 315 -22 b 654 329 513 -22 654 74 b 433 640 654 457 588 640 b 196 550 260 640 231 550 b 193 563 194 550 193 554 l 193 1004 b 185 1015 193 1011 190 1015 l 42 1015 b 32 1004 36 1015 32 1011 l 32 -301 b 42 -311 32 -307 36 -311 l 185 -311 b 193 -301 190 -311 193 -307 z m 492 308 b 342 119 492 207 447 119 b 193 315 221 119 193 157 b 350 499 193 414 250 499 b 492 308 467 499 492 394 z m 269 -99 l 353 -99 b 731 290 571 -99 731 7 b 606 592 731 439 699 539 b 692 329 665 519 692 415 b 315 -61 692 46 532 -61 l 231 -61 l 231 -301 b 185 -350 231 -325 211 -350 l 42 -350 b 33 -349 38 -350 35 -350 b 81 -387 38 -368 58 -387 l 222 -387 b 269 -339 249 -387 269 -364 z m 350 461 b 231 315 274 461 231 393 b 282 165 231 222 242 182 b 269 276 272 189 269 225 b 389 424 269 354 311 424 b 432 413 406 424 421 419 b 350 461 417 442 392 461 z m 231 1014 l 231 619 b 269 643 242 628 254 635 l 269 967 b 231 1014 269 989 254 1010 z "},"":{"ha":679,"x_min":0,"x_max":0,"o":"m 10 622 b 0 613 4 622 0 618 b 1 607 0 610 0 608 b 111 285 54 515 85 428 b 285 4 132 176 192 44 b 72 -169 233 -111 118 -169 b 14 -97 40 -169 22 -144 b 4 -89 13 -92 8 -89 b -72 -194 -47 -89 -72 -156 b 74 -311 -72 -260 3 -311 b 588 458 369 -311 588 214 b 544 622 588 504 574 622 l 422 622 b 411 613 415 622 411 618 b 413 607 411 610 411 608 b 444 494 432 572 444 531 b 350 115 444 381 400 160 b 250 319 311 126 260 269 b 151 619 232 411 201 565 b 143 622 150 621 146 622 z m 626 458 b 74 -350 626 201 392 -350 b -101 -240 -3 -350 -72 -306 b 111 -387 -82 -336 -12 -387 b 664 421 429 -387 664 163 b 589 621 664 471 640 611 b 626 458 614 572 626 496 z m 288 325 b 343 171 293 292 319 208 b 353 194 347 174 350 185 b 239 581 307 308 306 482 b 201 617 226 599 217 610 b 288 325 246 542 271 410 z m 50 -86 b 72 -131 51 -115 63 -131 b 89 -128 75 -131 81 -129 b 50 -86 82 -110 61 -93 z m 590 915 b 607 849 601 900 607 876 b 472 708 607 756 563 708 b 338 754 410 708 364 724 b 510 671 357 701 414 671 b 644 811 600 671 644 718 b 590 915 644 858 626 894 z m 308 849 b 313 888 308 863 310 876 b 281 915 303 900 293 908 b 296 849 290 899 296 875 b 161 708 296 756 251 708 b 53 732 115 708 79 717 b 199 671 78 692 126 671 b 329 763 274 671 317 701 b 308 849 315 776 308 828 z m 346 849 b 472 747 346 781 388 747 b 568 849 536 747 568 781 b 443 942 568 910 526 942 b 346 849 378 942 346 910 z m 35 849 b 161 747 35 781 78 747 b 257 849 225 747 257 781 b 133 942 257 910 215 942 b 35 849 68 942 35 910 z "},"":{"ha":957,"x_min":0,"x_max":0,"o":"m 476 975 b 18 185 167 975 18 481 b 53 0 18 90 33 0 l 188 0 b 199 13 196 0 199 3 b 181 181 199 38 181 65 b 236 292 181 260 189 292 l 600 292 b 654 213 657 292 651 243 b 725 0 661 140 674 0 l 871 0 b 879 14 879 0 879 7 b 476 975 740 329 831 975 z m 461 833 b 619 444 563 833 619 629 b 597 426 619 433 606 426 l 256 426 b 228 444 242 426 228 429 b 461 833 228 611 354 833 z m 828 424 b 917 21 850 279 868 129 b 871 -37 917 -7 917 -37 l 710 -37 b 754 -76 724 -64 738 -76 l 908 -76 b 956 -18 956 -76 956 -44 b 867 385 904 104 888 238 b 692 906 821 711 797 839 b 828 424 776 789 801 607 z m 614 232 b 600 254 614 243 614 254 l 236 254 b 218 182 222 254 218 231 b 236 15 218 79 236 53 b 188 -37 236 -22 218 -37 l 51 -37 b 92 -76 64 -64 76 -76 l 226 -76 b 275 -19 257 -76 275 -61 b 257 146 275 22 257 50 b 275 215 257 192 261 215 l 615 215 z m 488 761 b 525 746 504 761 517 753 b 465 796 511 779 493 796 b 265 465 372 796 274 608 l 304 465 b 488 761 329 608 414 761 z m 226 1132 b 236 1124 226 1125 231 1124 l 644 1124 b 654 1132 650 1124 654 1125 l 654 1219 b 644 1229 654 1225 650 1229 l 236 1229 b 226 1219 231 1229 226 1225 z m 693 1219 l 693 1132 b 644 1085 693 1111 668 1085 l 236 1085 b 226 1086 232 1085 228 1085 b 275 1047 232 1067 253 1047 l 682 1047 b 731 1094 707 1047 731 1074 l 731 1181 b 692 1228 731 1201 711 1224 b 693 1219 693 1225 693 1224 z "},"":{"ha":664,"x_min":0,"x_max":0,"o":"m 294 640 b 92 561 208 640 132 606 l 92 456 b 101 446 92 450 96 446 b 269 514 108 446 196 514 b 363 461 332 514 363 497 b 214 363 363 410 297 393 b 22 146 97 319 22 258 b 190 -22 22 71 68 -22 b 403 61 317 -22 371 61 b 438 -12 422 61 433 39 b 447 -22 438 -19 440 -22 b 561 0 483 -22 561 -21 l 561 110 b 528 149 561 126 528 113 l 528 381 b 294 640 528 578 457 640 z m 565 381 l 565 156 b 600 110 582 147 600 140 l 600 0 b 447 -61 600 -51 494 -61 b 439 -60 442 -61 439 -61 b 485 -99 443 -79 465 -99 b 638 -37 532 -99 638 -89 l 638 71 b 603 117 638 100 621 110 l 603 343 b 515 596 603 506 581 558 b 565 381 550 549 565 483 z m 371 246 b 225 104 371 175 289 104 b 167 156 181 104 167 126 b 371 294 167 242 304 285 z m 399 -8 b 401 22 399 0 400 10 b 190 -61 372 1 308 -61 b 65 -24 136 -61 97 -49 b 229 -99 88 -72 133 -99 b 408 -39 315 -99 368 -68 b 399 -8 401 -28 399 -18 z m 81 411 b 132 369 88 394 106 372 b 304 439 178 389 246 436 b 324 461 318 446 324 454 b 269 476 324 471 306 476 b 100 408 186 476 118 408 b 81 411 89 408 86 410 z m 253 147 b 333 247 278 178 333 190 b 204 156 275 231 204 203 b 225 142 204 146 211 142 b 253 147 236 142 246 143 z m 79 797 b 89 789 79 790 83 789 l 497 789 b 507 797 503 789 507 790 l 507 885 b 497 894 507 890 503 894 l 89 894 b 79 885 83 894 79 890 z m 546 885 l 546 797 b 497 750 546 776 521 750 l 89 750 b 79 751 85 750 81 750 b 128 713 85 732 106 713 l 535 713 b 583 760 560 713 583 739 l 583 846 b 544 893 583 867 564 889 b 546 885 546 890 546 889 z "},"":{"ha":957,"x_min":0,"x_max":0,"o":"m 476 975 b 18 185 167 975 18 481 b 53 0 18 90 33 0 l 188 0 b 199 13 196 0 199 3 b 181 181 199 38 181 65 b 236 292 181 260 189 292 l 600 292 b 654 213 657 292 651 243 b 725 0 661 140 674 0 l 871 0 b 879 14 879 0 879 7 b 476 975 740 329 831 975 z m 461 833 b 619 444 563 833 619 629 b 597 426 619 433 606 426 l 256 426 b 228 444 242 426 228 429 b 461 833 228 611 354 833 z m 828 424 b 917 21 850 279 868 129 b 871 -37 917 -7 917 -37 l 710 -37 b 754 -76 724 -64 738 -76 l 908 -76 b 956 -18 956 -76 956 -44 b 867 385 904 104 888 238 b 692 906 821 711 797 839 b 828 424 776 789 801 607 z m 614 232 b 600 254 614 243 614 254 l 236 254 b 218 182 222 254 218 231 b 236 15 218 79 236 53 b 188 -37 236 -22 218 -37 l 51 -37 b 92 -76 64 -64 76 -76 l 226 -76 b 275 -19 257 -76 275 -61 b 257 146 275 22 257 50 b 275 215 257 192 261 215 l 615 215 z m 488 761 b 525 746 504 761 517 753 b 465 796 511 779 493 796 b 265 465 372 796 274 608 l 304 465 b 488 761 329 608 414 761 z m 440 1083 b 601 1246 544 1083 601 1164 b 561 1276 601 1265 597 1276 b 440 1157 514 1276 519 1157 b 319 1276 361 1157 367 1276 b 279 1246 283 1276 279 1265 b 440 1083 279 1164 336 1083 z m 461 1007 b 678 1207 617 1007 678 1172 b 635 1268 678 1236 665 1260 b 639 1246 639 1261 639 1253 b 447 1044 639 1246 621 1044 b 347 1072 413 1044 385 1051 b 461 1007 361 1040 399 1007 z "}}}
